<svg width="14" height="14" viewBox="0 0 14 14" fill="none" xmlns="http://www.w3.org/2000/svg">
<path d="M6.81564 0.111123C6.96209 -0.037041 7.19952 -0.037041 7.34597 0.111123L13.8902 6.73173C14.0366 6.87993 14.0366 7.12013 13.8902 7.26829L7.346 13.8889C7.19952 14.037 6.96209 14.037 6.81564 13.8889L6.19692 13.2629C6.0505 13.1148 6.0505 12.8746 6.19692 12.7264L11.0447 7.82198H0.375C0.167908 7.82198 0 7.65212 0 7.44261V6.55739C0 6.34788 0.167908 6.17801 0.375 6.17801H11.0447L6.19692 1.27362C6.0505 1.12542 6.0505 0.885226 6.19692 0.737092L6.81564 0.111123Z" fill="white"/>
</svg>
