<svg width="14" height="14" viewBox="0 0 14 14" fill="none" xmlns="http://www.w3.org/2000/svg">
<path d="M5.9375 1.09375L6.65625 0.40625C6.80208 0.260417 6.97917 0.1875 7.1875 0.1875C7.39583 0.1875 7.57292 0.260417 7.71875 0.40625L13.7812 6.46875C13.9271 6.61458 14 6.79167 14 7C14 7.20833 13.9271 7.38542 13.7812 7.53125L7.71875 13.5938C7.57292 13.7396 7.39583 13.8125 7.1875 13.8125C6.97917 13.8125 6.80208 13.7396 6.65625 13.5938L5.9375 12.9062C5.79167 12.7604 5.71875 12.5833 5.71875 12.375C5.73958 12.1667 5.82292 11.9896 5.96875 11.8438L9.71875 8.25H0.75C0.541667 8.25 0.364583 8.17708 0.21875 8.03125C0.0729167 7.88542 0 7.70833 0 7.5V6.5C0 6.29167 0.0729167 6.11458 0.21875 5.96875C0.364583 5.82292 0.541667 5.75 0.75 5.75H9.71875L5.96875 2.15625C5.82292 2.01042 5.73958 1.83333 5.71875 1.625C5.71875 1.41667 5.79167 1.23958 5.9375 1.09375Z" fill="#6851FF"/>
</svg>
