<svg width="54" height="63" viewBox="0 0 54 63" fill="none" xmlns="http://www.w3.org/2000/svg">
<mask id="path-1-outside-1" maskUnits="userSpaceOnUse" x="10.9556" y="26.4406" width="43.1757" height="36.9333" fill="black">
<rect fill="white" x="10.9556" y="26.4406" width="43.1757" height="36.9333"/>
<path fill-rule="evenodd" clip-rule="evenodd" d="M43.2038 43.8626C41.995 46.3634 38.9993 47.4283 36.4861 46.2733L40.9144 37.0975C43.3845 38.3478 44.414 41.3594 43.2038 43.8626ZM42.3921 34.0356L44.2366 30.2135L14.653 38.4901L30.4863 48.764L32.5555 56.1599L38.1024 54.608L36.7972 49.9426C37.7017 50.1401 38.6191 50.189 39.5154 50.0917C42.3347 49.7859 44.9423 48.0785 46.2652 45.3424C48.291 41.1511 46.5518 36.1016 42.3921 34.0356Z"/>
</mask>
<path d="M36.4861 46.2733L34.2346 45.1867C33.9429 45.7912 33.9065 46.4876 34.1336 47.1192C34.3607 47.7509 34.8323 48.2646 35.4422 48.5449L36.4861 46.2733ZM40.9144 37.0975L42.0434 34.867C41.4445 34.5638 40.7489 34.5142 40.1131 34.7294C39.4772 34.9446 38.9546 35.4064 38.6629 36.0109L40.9144 37.0975ZM44.2366 30.2135L46.4881 31.3001C46.9152 30.4152 46.7843 29.3621 46.1536 28.6087C45.5229 27.8553 44.5093 27.5412 43.5631 27.806L44.2366 30.2135ZM14.653 38.4901L13.9794 36.0826C13.0332 36.3473 12.3297 37.1417 12.1815 38.1131C12.0334 39.0844 12.4679 40.0525 13.2921 40.5873L14.653 38.4901ZM30.4863 48.764L32.8939 48.0904C32.7299 47.5043 32.3577 46.9981 31.8471 46.6668L30.4863 48.764ZM32.5555 56.1599L30.1479 56.8334C30.3266 57.472 30.7515 58.0134 31.3293 58.3386C31.9072 58.6637 32.5905 58.7461 33.229 58.5674L32.5555 56.1599ZM38.1024 54.608L38.776 57.0156C40.1056 56.6436 40.882 55.2641 40.51 53.9345L38.1024 54.608ZM36.7972 49.9426L37.3304 47.5001C36.4735 47.313 35.5811 47.5887 34.979 48.2267C34.377 48.8646 34.1533 49.7714 34.3896 50.6161L36.7972 49.9426ZM39.5154 50.0917L39.2459 47.6063L39.2457 47.6063L39.5154 50.0917ZM46.2652 45.3424L48.5159 46.4306L48.5161 46.4303L46.2652 45.3424ZM40.953 42.7746C40.3393 44.0441 38.8113 44.5905 37.5301 44.0017L35.4422 48.5449C39.1874 50.2661 43.6507 48.6827 45.4547 44.9506L40.953 42.7746ZM38.7376 47.3599L43.1659 38.1841L38.6629 36.0109L34.2346 45.1867L38.7376 47.3599ZM39.7854 39.328C41.0449 39.9656 41.5673 41.5038 40.953 42.7745L45.4546 44.9507C47.2606 41.2149 45.7241 36.73 42.0434 34.867L39.7854 39.328ZM44.6437 35.1222L46.4881 31.3001L41.9851 29.1269L40.1406 32.949L44.6437 35.1222ZM43.5631 27.806L13.9794 36.0826L15.3265 40.8977L44.9102 32.6211L43.5631 27.806ZM13.2921 40.5873L29.1255 50.8611L31.8471 46.6668L16.0138 36.3929L13.2921 40.5873ZM28.0788 49.4375L30.1479 56.8334L34.963 55.4863L32.8939 48.0904L28.0788 49.4375ZM33.229 58.5674L38.776 57.0156L37.4288 52.2005L31.8819 53.7523L33.229 58.5674ZM40.51 53.9345L39.2047 49.269L34.3896 50.6161L35.6949 55.2816L40.51 53.9345ZM36.2639 52.385C37.4288 52.6394 38.6173 52.7038 39.7851 52.5771L39.2457 47.6063C38.6209 47.6741 37.9747 47.6408 37.3304 47.5001L36.2639 52.385ZM39.785 52.5771C43.4222 52.1826 46.8009 49.9777 48.5159 46.4306L44.0145 44.2542C43.0837 46.1793 41.2472 47.3892 39.2459 47.6063L39.785 52.5771ZM48.5161 46.4303C51.1396 41.0022 48.888 34.4706 43.5042 31.7966L41.28 36.2746C44.2157 37.7327 45.4423 41.3 44.0143 44.2545L48.5161 46.4303Z" fill="#6851FF" mask="url(#path-1-outside-1)"/>
<path fill-rule="evenodd" clip-rule="evenodd" d="M23.6043 19.4907C23.694 19.4833 23.7652 19.4117 23.7715 19.3219L23.7748 19.2753C23.781 19.1855 23.7204 19.1048 23.6327 19.0849C18.6208 17.9712 15.9136 14.8554 15.5086 9.7384C15.5012 9.64765 15.4296 9.57753 15.3387 9.57117L15.2932 9.56799C15.2034 9.5617 15.1226 9.6223 15.1028 9.71001C13.988 14.7207 10.8733 17.4292 5.75513 17.8341C5.66552 17.8415 5.59426 17.9131 5.5879 18.004L5.58472 18.0495C5.57843 18.1393 5.63903 18.22 5.72788 18.24C10.7386 19.3547 13.4458 22.4705 13.852 27.5876C13.8594 27.6772 13.9309 27.7485 14.0207 27.7548L14.0867 27.7594C14.1651 27.7649 14.2362 27.7116 14.253 27.6351C15.364 22.6116 18.4804 19.8964 23.6043 19.4907Z" stroke="#6851FF" stroke-width="2.5"/>
<path fill-rule="evenodd" clip-rule="evenodd" d="M40.7795 17.3562C40.8371 17.3514 40.8829 17.3054 40.8869 17.2477L40.889 17.2177C40.8931 17.16 40.8541 17.1081 40.7977 17.0953C37.5758 16.3794 35.8354 14.3764 35.5751 11.0869C35.5703 11.0285 35.5243 10.9835 35.4658 10.9794L35.4366 10.9773C35.3789 10.9733 35.327 11.0122 35.3142 11.0686C34.5976 14.2898 32.5952 16.0309 29.305 16.2912C29.2474 16.296 29.2016 16.342 29.1975 16.4005L29.1954 16.4297C29.1914 16.4874 29.2304 16.5394 29.2875 16.5522C32.5086 17.2688 34.249 19.2718 34.5101 22.5614C34.5149 22.619 34.5609 22.6648 34.6186 22.6688L34.661 22.6718C34.7114 22.6753 34.7571 22.6411 34.7679 22.5919C35.4822 19.3625 37.4855 17.617 40.7795 17.3562Z" stroke="#6851FF" stroke-width="2.5"/>
</svg>
