<svg width="44" height="50" viewBox="0 0 44 50" fill="none" xmlns="http://www.w3.org/2000/svg">
<mask id="path-1-outside-1" maskUnits="userSpaceOnUse" x="0.457827" y="0.341918" width="43.6049" height="49.1844" fill="black">
<rect fill="white" x="0.457827" y="0.341918" width="43.6049" height="49.1844"/>
<path fill-rule="evenodd" clip-rule="evenodd" d="M17.0156 24.2942L14.757 17.7347C13.9268 15.3235 15.2131 12.6861 17.6243 11.8559C20.0355 11.0256 22.6728 12.312 23.5031 14.7232L25.7617 21.2827L17.0156 24.2942ZM32.3218 19.0239L30.1352 19.7768L27.8766 13.2173C26.2161 8.39493 20.9414 5.82227 16.1191 7.48274C11.2967 9.14321 8.72406 14.4179 10.3845 19.2403L12.6432 25.7998L10.4566 26.5527C9.24914 26.9685 8.60723 28.2846 9.02301 29.4921L14.2931 44.7977C14.708 46.0024 16.0513 46.6381 17.2325 46.2313L39.0976 38.7025C40.3051 38.2868 40.9471 36.9707 40.5313 35.7632L35.2611 20.4576C34.8454 19.2501 33.5293 18.6082 32.3218 19.0239ZM16.7737 34.2999C16.0698 34.5422 15.6956 35.3095 15.938 36.0134C16.1803 36.7173 16.9476 37.0915 17.6515 36.8492C18.3554 36.6068 18.7296 35.8395 18.4873 35.1356C18.2449 34.4317 17.4776 34.0575 16.7737 34.2999ZM14.0469 36.6646C13.4449 34.9163 14.3743 33.0108 16.1226 32.4088C17.8709 31.8068 19.7763 32.7362 20.3783 34.4845C20.9803 36.2328 20.0509 38.1382 18.3026 38.7402C16.5544 39.3422 14.6489 38.4128 14.0469 36.6646ZM24.282 31.7147C23.5781 31.9571 23.2038 32.7244 23.4462 33.4283C23.6886 34.1322 24.4559 34.5064 25.1598 34.264C25.8637 34.0216 26.2379 33.2544 25.9955 32.5505C25.7531 31.8466 24.9859 31.4723 24.282 31.7147ZM21.5552 34.0794C20.9532 32.3311 21.8825 30.4257 23.6308 29.8237C25.3791 29.2217 27.2846 30.151 27.8866 31.8993C28.4885 33.6476 27.5592 35.5531 25.8109 36.155C24.0626 36.757 22.1572 35.8277 21.5552 34.0794ZM31.7094 29.1574C31.0055 29.3997 30.6313 30.167 30.8737 30.8709C31.116 31.5748 31.8833 31.949 32.5872 31.7067C33.2911 31.4643 33.6653 30.697 33.423 29.9931C33.1806 29.2892 32.4133 28.915 31.7094 29.1574ZM28.9826 31.522C28.3806 29.7738 29.31 27.8683 31.0583 27.2663C32.8066 26.6643 34.712 27.5937 35.314 29.342C35.916 31.0903 34.9866 32.9957 33.2383 33.5977C31.4901 34.1997 29.5846 33.2703 28.9826 31.522Z"/>
</mask>
<path d="M17.0156 24.2942L15.1246 24.9453L15.7757 26.8364L17.6668 26.1852L17.0156 24.2942ZM14.757 17.7347L16.648 17.0835L14.757 17.7347ZM23.5031 14.7232L25.3941 14.072L23.5031 14.7232ZM25.7617 21.2827L26.4128 23.1737L28.3039 22.5226L27.6527 20.6316L25.7617 21.2827ZM30.1352 19.7768L28.2442 20.428L28.8953 22.319L30.7864 21.6679L30.1352 19.7768ZM27.8766 13.2173L29.7677 12.5661L27.8766 13.2173ZM12.6432 25.7998L13.2943 27.6909L15.1853 27.0397L14.5342 25.1487L12.6432 25.7998ZM17.2325 46.2313L17.8837 48.1223L17.2325 46.2313ZM39.0976 38.7025L38.4465 36.8115L39.0976 38.7025ZM27.8866 31.8993L25.9955 32.5505L27.8866 31.8993ZM28.9826 31.522L27.0916 32.1732L28.9826 31.522ZM35.314 29.342L33.423 29.9931L35.314 29.342ZM18.9067 23.6431L16.648 17.0835L12.866 18.3858L15.1246 24.9453L18.9067 23.6431ZM16.648 17.0835C16.1774 15.7167 16.9086 14.2175 18.2754 13.7469L16.9731 9.96485C13.5176 11.1547 11.6761 14.9302 12.866 18.3858L16.648 17.0835ZM18.2754 13.7469C19.6422 13.2763 21.1414 14.0075 21.612 15.3743L25.3941 14.072C24.2042 10.6165 20.4287 8.775 16.9731 9.96485L18.2754 13.7469ZM21.612 15.3743L23.8707 21.9338L27.6527 20.6316L25.3941 14.072L21.612 15.3743ZM25.1106 19.3916L16.3645 22.4032L17.6668 26.1852L26.4128 23.1737L25.1106 19.3916ZM31.6706 17.1329L29.4841 17.8858L30.7864 21.6679L32.9729 20.915L31.6706 17.1329ZM32.0263 19.1257L29.7677 12.5661L25.9856 13.8684L28.2442 20.428L32.0263 19.1257ZM29.7677 12.5661C27.7476 6.69941 21.3347 3.57162 15.4679 5.59171L16.7702 9.37378C20.5482 8.07293 24.6847 10.0905 25.9856 13.8684L29.7677 12.5661ZM15.4679 5.59171C9.60119 7.61179 6.47341 14.0247 8.49349 19.8914L12.2756 18.5892C10.9747 14.8112 12.9922 10.6746 16.7702 9.37378L15.4679 5.59171ZM8.49349 19.8914L10.7521 26.451L14.5342 25.1487L12.2756 18.5892L8.49349 19.8914ZM11.992 23.9088L9.80551 24.6617L11.1078 28.4437L13.2943 27.6909L11.992 23.9088ZM9.80551 24.6617C7.55362 25.4371 6.35659 27.8913 7.13197 30.1432L10.914 28.841C10.8579 28.6778 10.9447 28.4999 11.1078 28.4437L9.80551 24.6617ZM7.13197 30.1432L12.4021 45.4488L16.1842 44.1465L10.914 28.841L7.13197 30.1432ZM12.4021 45.4488C13.1811 47.7111 15.6712 48.8842 17.8837 48.1223L16.5814 44.3403C16.5213 44.3609 16.4364 44.3619 16.3455 44.318C16.2573 44.2754 16.2066 44.2115 16.1842 44.1465L12.4021 45.4488ZM17.8837 48.1223L39.7488 40.5936L38.4465 36.8115L16.5814 44.3403L17.8837 48.1223ZM39.7488 40.5936C42.0007 39.8182 43.1977 37.3639 42.4223 35.112L38.6402 36.4143C38.6964 36.5774 38.6096 36.7553 38.4465 36.8115L39.7488 40.5936ZM42.4223 35.112L37.1522 19.8064L33.3701 21.1087L38.6402 36.4143L42.4223 35.112ZM37.1522 19.8064C36.3768 17.5546 33.9225 16.3575 31.6706 17.1329L32.9729 20.915C33.136 20.8588 33.3139 20.9456 33.3701 21.1087L37.1522 19.8064ZM17.829 35.3623C17.9462 35.7028 17.7653 36.0737 17.4249 36.1909L16.1226 32.4088C14.3743 33.0108 13.4449 34.9163 14.0469 36.6646L17.829 35.3623ZM17.0004 34.9581C17.3409 34.8409 17.7118 35.0218 17.829 35.3623L14.0469 36.6646C14.6489 38.4128 16.5544 39.3422 18.3026 38.7402L17.0004 34.9581ZM16.5962 35.7868C16.479 35.4463 16.6599 35.0754 17.0004 34.9581L18.3026 38.7402C20.0509 38.1382 20.9803 36.2328 20.3783 34.4845L16.5962 35.7868ZM17.4249 36.1909C17.0844 36.3081 16.7135 36.1273 16.5962 35.7868L20.3783 34.4845C19.7763 32.7362 17.8709 31.8068 16.1226 32.4088L17.4249 36.1909ZM15.4714 30.5178C12.6788 31.4794 11.1943 34.523 12.1559 37.3157L15.938 36.0134C15.6956 35.3095 16.0698 34.5422 16.7737 34.2999L15.4714 30.5178ZM22.2693 33.8334C21.3077 31.0407 18.2641 29.5562 15.4714 30.5178L16.7737 34.2999C17.4776 34.0575 18.2449 34.4317 18.4873 35.1356L22.2693 33.8334ZM18.9538 40.6312C21.7465 39.6697 23.2309 36.626 22.2693 33.8334L18.4873 35.1356C18.7296 35.8395 18.3554 36.6068 17.6515 36.8492L18.9538 40.6312ZM12.1559 37.3157C13.1175 40.1084 16.1611 41.5928 18.9538 40.6312L17.6515 36.8492C16.9476 37.0915 16.1803 36.7173 15.938 36.0134L12.1559 37.3157ZM25.3373 32.7771C25.4545 33.1176 25.2736 33.4885 24.9331 33.6057L23.6308 29.8237C21.8825 30.4257 20.9532 32.3311 21.5552 34.0794L25.3373 32.7771ZM24.5086 32.373C24.8491 32.2557 25.22 32.4366 25.3373 32.7771L21.5552 34.0794C22.1572 35.8277 24.0626 36.757 25.8109 36.155L24.5086 32.373ZM24.1045 33.2016C23.9872 32.8611 24.1681 32.4902 24.5086 32.373L25.8109 36.155C27.5592 35.5531 28.4885 33.6476 27.8866 31.8993L24.1045 33.2016ZM24.9331 33.6057C24.5926 33.723 24.2217 33.5421 24.1045 33.2016L27.8866 31.8993C27.2846 30.151 25.3791 29.2217 23.6308 29.8237L24.9331 33.6057ZM22.9797 27.9326C20.187 28.8942 18.7025 31.9379 19.6641 34.7305L23.4462 33.4283C23.2038 32.7244 23.5781 31.9571 24.282 31.7147L22.9797 27.9326ZM29.7776 31.2482C28.816 28.4555 25.7724 26.971 22.9797 27.9326L24.282 31.7147C24.9859 31.4723 25.7531 31.8466 25.9955 32.5505L29.7776 31.2482ZM26.462 38.0461C29.2547 37.0845 30.7392 34.0409 29.7776 31.2482L25.9955 32.5505C26.2379 33.2544 25.8637 34.0216 25.1598 34.264L26.462 38.0461ZM19.6641 34.7305C20.6257 37.5232 23.6694 39.0077 26.462 38.0461L25.1598 34.264C24.4559 34.5064 23.6886 34.1322 23.4462 33.4283L19.6641 34.7305ZM32.7647 30.2198C32.8819 30.5603 32.701 30.9312 32.3605 31.0484L31.0583 27.2663C29.31 27.8683 28.3806 29.7738 28.9826 31.522L32.7647 30.2198ZM31.9361 29.8156C32.2766 29.6984 32.6474 29.8793 32.7647 30.2198L28.9826 31.522C29.5846 33.2703 31.4901 34.1997 33.2383 33.5977L31.9361 29.8156ZM31.5319 30.6443C31.4147 30.3038 31.5956 29.9329 31.9361 29.8156L33.2383 33.5977C34.9866 32.9957 35.916 31.0903 35.314 29.342L31.5319 30.6443ZM32.3605 31.0484C32.02 31.1656 31.6492 30.9847 31.5319 30.6443L35.314 29.342C34.712 27.5937 32.8066 26.6643 31.0583 27.2663L32.3605 31.0484ZM30.4071 25.3753C27.6145 26.3369 26.13 29.3805 27.0916 32.1732L30.8737 30.8709C30.6313 30.167 31.0055 29.3997 31.7094 29.1574L30.4071 25.3753ZM37.205 28.6908C36.2434 25.8982 33.1998 24.4137 30.4071 25.3753L31.7094 29.1574C32.4133 28.915 33.1806 29.2892 33.423 29.9931L37.205 28.6908ZM33.8895 35.4887C36.6821 34.5271 38.1666 31.4835 37.205 28.6908L33.423 29.9931C33.6653 30.697 33.2911 31.4643 32.5872 31.7067L33.8895 35.4887ZM27.0916 32.1732C28.0532 34.9659 31.0968 36.4503 33.8895 35.4887L32.5872 31.7067C31.8833 31.949 31.116 31.5748 30.8737 30.8709L27.0916 32.1732Z" fill="#00C988" mask="url(#path-1-outside-1)"/>
</svg>
