<svg width="32" height="43" viewBox="0 0 32 43" fill="none" xmlns="http://www.w3.org/2000/svg">
<path fill-rule="evenodd" clip-rule="evenodd" d="M28.3335 16.335C28.3335 16.716 28.0799 17.0713 27.657 17.2826L19.2224 23.7776H13.1484L4.71385 17.2826C4.29094 17.0713 4.03735 16.716 4.03735 16.335V3.27776C4.03735 2.01987 5.39718 1 7.07437 1L25.2965 1C26.9737 1 28.3335 2.01987 28.3335 3.27776V16.335Z" stroke="#6851FF" stroke-width="2"/>
<path fill-rule="evenodd" clip-rule="evenodd" d="M20.3759 1H11.5776V21.4389L13.7772 23.7776H18.1763L20.3759 21.4389V1Z" stroke="#6851FF" stroke-width="2"/>
<path fill-rule="evenodd" clip-rule="evenodd" d="M15.2657 13.9194C15.394 13.6605 15.6574 13.4965 15.9467 13.4965C16.2352 13.4965 16.4994 13.6605 16.6278 13.9194L20.6579 22.0867C20.7687 22.3106 20.9828 22.4663 21.2296 22.502L30.2427 23.8117C30.5289 23.8527 30.7666 24.0531 30.8562 24.328C30.945 24.6028 30.8706 24.905 30.6641 25.1062L24.1421 31.4642C23.9629 31.6381 23.8809 31.8894 23.9234 32.1361L25.4632 41.1128C25.5118 41.3975 25.3949 41.6853 25.161 41.8554C24.9272 42.0247 24.6174 42.0474 24.3615 41.913L16.2998 37.6749C16.0788 37.5587 15.8146 37.5587 15.5929 37.6749L7.5319 41.913C7.27603 42.0474 6.96625 42.0247 6.7324 41.8554C6.49855 41.6853 6.38163 41.3975 6.43022 41.1128L7.96999 32.1361C8.01174 31.8894 7.93051 31.6381 7.75132 31.4642L1.22933 25.1062C1.02281 24.905 0.947648 24.6028 1.03724 24.328C1.12683 24.0531 1.36448 23.8527 1.64996 23.8117L10.6631 22.502C10.9106 22.4663 11.1247 22.3106 11.2348 22.0867L15.2657 13.9194Z" fill="black" stroke="#6851FF" stroke-width="2"/>
</svg>
