<svg width="35" height="46" viewBox="0 0 35 46" fill="none" xmlns="http://www.w3.org/2000/svg">
<mask id="path-1-inside-1" fill="white">
<path fill-rule="evenodd" clip-rule="evenodd" d="M16.93 46.0001C7.05417 46.0001 0 40.3567 0 30.4809C0 15.6671 17.6354 14.2563 14.1083 0.853394C21.1625 6.49673 25.395 10.7292 25.395 20.6051C28.9221 18.4888 28.9221 11.4346 27.5112 5.79131C35.9762 15.6671 42.4146 46.0001 16.93 46.0001Z"/>
</mask>
<path d="M14.1083 0.853394L15.6701 -1.09878C14.8281 -1.77237 13.6491 -1.83022 12.7452 -1.24229C11.8413 -0.654358 11.4162 0.446859 11.6906 1.48963L14.1083 0.853394ZM25.395 20.6051H22.895C22.895 21.5057 23.3795 22.3368 24.1633 22.7806C24.947 23.2243 25.9089 23.2122 26.6812 22.7488L25.395 20.6051ZM27.5112 5.79131L29.4094 4.16433C28.6548 3.28402 27.394 3.03803 26.3639 3.57014C25.3338 4.10226 24.8047 5.27282 25.0859 6.39765L27.5112 5.79131ZM16.93 43.5001C12.4522 43.5001 8.85631 42.2229 6.41562 40.0693C4.01376 37.95 2.5 34.7831 2.5 30.4809H-2.5C-2.5 36.0545 -0.486678 40.6472 3.10751 43.8185C6.66286 46.9556 11.532 48.5001 16.93 48.5001V43.5001ZM2.5 30.4809C2.5 24.2642 6.05931 20.9006 10.1246 16.9256C12.0736 15.0199 14.2447 12.8598 15.6147 10.198C17.0583 7.39324 17.5629 4.15716 16.526 0.21716L11.6906 1.48963C12.4173 4.25108 12.0401 6.21746 11.1691 7.90975C10.2245 9.74497 8.64804 11.3764 6.62903 13.3506C2.7584 17.1352 -2.5 21.8838 -2.5 30.4809H2.5ZM12.5466 2.80557C16.0744 5.62783 18.6009 7.87727 20.2981 10.5002C21.9346 13.0294 22.895 16.0664 22.895 20.6051H27.895C27.895 15.2679 26.7391 11.2507 24.4959 7.78391C22.3133 4.41077 19.1964 1.72229 15.6701 -1.09878L12.5466 2.80557ZM26.6812 22.7488C29.5054 21.0543 30.5087 17.7012 30.7932 14.7617C31.0919 11.6757 30.6922 8.2075 29.9366 5.18497L25.0859 6.39765C25.7411 9.01846 26.0469 11.899 25.8165 14.28C25.5719 16.8075 24.8117 18.0396 24.1088 18.4613L26.6812 22.7488ZM25.6131 7.41829C27.4595 9.57245 29.313 13.0036 30.6386 17.0233C31.9587 21.0261 32.6926 25.4243 32.456 29.4525C32.2191 33.4873 31.0267 36.9482 28.7125 39.3844C26.4415 41.7751 22.7848 43.5001 16.93 43.5001V48.5001C23.8175 48.5001 28.9127 46.4334 32.3376 42.828C35.7192 39.2682 37.1665 34.5287 37.4474 29.7457C37.7287 24.9563 36.8586 19.9195 35.3871 15.4573C33.9211 11.012 31.7955 6.94808 29.4094 4.16433L25.6131 7.41829Z" fill="#6851FF" mask="url(#path-1-inside-1)"/>
<mask id="path-3-inside-2" fill="white">
<path fill-rule="evenodd" clip-rule="evenodd" d="M23.4093 33.1097C23.4093 36.5554 20.4369 39.3116 16.7209 39.3116C13.0048 39.3116 10.0325 36.5347 10.0325 33.1097C10.0325 26.9077 16.052 27.5157 16.052 19.2465C17.5382 21.3138 23.4093 26.9077 23.4093 33.1097Z"/>
</mask>
<path d="M16.052 19.2465L18.0819 17.7872L13.552 11.4859V19.2465H16.052ZM20.9093 33.1097C20.9093 35.0003 19.2373 36.8116 16.7209 36.8116V41.8116C21.6366 41.8116 25.9093 38.1105 25.9093 33.1097H20.9093ZM16.7209 36.8116C14.21 36.8116 12.5325 34.9849 12.5325 33.1097H7.53247C7.53247 38.0846 11.7996 41.8116 16.7209 41.8116V36.8116ZM12.5325 33.1097C12.5325 31.1014 13.3099 30.3771 14.8929 28.6342C15.6853 27.7616 16.6463 26.6436 17.3747 25.091C18.1135 23.5164 18.552 21.6346 18.552 19.2465H13.552C13.552 20.9929 13.2381 22.1361 12.8482 22.9671C12.448 23.8201 11.904 24.4881 11.1916 25.2725C9.76486 26.8434 7.53247 28.916 7.53247 33.1097H12.5325ZM14.0221 20.7057C14.4628 21.3187 15.2278 22.1962 15.9074 23.0123C16.6475 23.9012 17.461 24.916 18.2205 26.0332C19.7772 28.3229 20.9093 30.7607 20.9093 33.1097H25.9093C25.9093 29.2567 24.1057 25.7965 22.3554 23.222C21.4614 21.907 20.5285 20.7481 19.7498 19.8129C18.9105 18.8049 18.3844 18.2079 18.0819 17.7872L14.0221 20.7057Z" fill="#6851FF" mask="url(#path-3-inside-2)"/>
</svg>
