<svg width="49" height="40" viewBox="0 0 49 40" fill="none" xmlns="http://www.w3.org/2000/svg">
<path d="M13.163 33.4523L12.3857 34.0815L12.7172 34.491L13.2424 34.4492L13.163 33.4523ZM13.163 33.4523C13.2424 34.4492 13.2427 34.4491 13.243 34.4491L13.2441 34.449L13.2473 34.4488L13.2583 34.4479L13.2982 34.4444C13.3327 34.4414 13.3828 34.4369 13.4474 34.4307C13.5768 34.4184 13.7648 34.3993 14.0042 34.3722C14.4828 34.3178 15.1678 34.231 16.0009 34.1004C17.6648 33.8395 19.931 33.4019 22.3304 32.6947C24.725 31.9889 27.2853 31.005 29.5193 29.6382C31.7496 28.2737 33.7181 26.4885 34.8276 24.1548C36.166 21.3396 36.1927 18.8811 35.2294 16.9159C34.2806 14.9804 32.4622 13.71 30.4742 13.0517C28.4841 12.3926 26.2239 12.3094 24.2306 12.8375C23.4615 13.0412 22.7168 13.3411 22.0391 13.7442C22.0851 12.4263 21.8554 11.2254 21.3951 10.17C20.5547 8.24329 18.9847 6.89533 17.1459 6.24691C13.4474 4.94264 8.74587 6.46973 6.38951 11.426C4.03562 16.377 5.68308 22.1485 7.71126 26.468C8.74121 28.6616 9.90607 30.5591 10.8114 31.9065C11.2648 32.5812 11.655 33.1207 11.9332 33.4933C12.0724 33.6797 12.1837 33.8245 12.2611 33.9238C12.2998 33.9735 12.3301 34.0118 12.3511 34.0382L12.3756 34.0689L12.3825 34.0775L12.3846 34.0801L12.3853 34.081C12.3855 34.0813 12.3857 34.0815 13.163 33.4523Z" stroke="#00C988" stroke-width="2"/>
<path d="M37.3336 9.48802L36.3385 9.38885L36.2863 9.91307L36.6891 10.2526L37.3336 9.48802ZM37.3336 9.48802C36.6891 10.2526 36.6892 10.2528 36.6895 10.253L36.69 10.2534L36.6913 10.2545L36.6951 10.2577L36.7074 10.268L36.7505 10.3034C36.7871 10.3333 36.8396 10.3756 36.9065 10.4283C37.0401 10.5334 37.2318 10.6803 37.4703 10.8521C37.9454 11.1944 38.6153 11.6423 39.3883 12.0579C40.1569 12.471 41.0574 12.8685 41.9904 13.0878C42.919 13.306 43.9523 13.3643 44.9319 13.01C46.059 12.6022 46.8283 11.8956 47.1418 10.9626C47.4446 10.061 47.2563 9.13988 46.881 8.40307C46.5048 7.6646 45.8958 7.01386 45.1798 6.60276C45.2745 6.44458 45.3549 6.28011 45.4206 6.1101C45.7459 5.26779 45.6712 4.38322 45.3103 3.63974C44.5788 2.13271 42.7304 1.26433 40.6937 2.00114C38.6629 2.73585 37.6039 4.76367 37.0555 6.3094C36.7689 7.11741 36.5911 7.88045 36.4848 8.43887C36.4313 8.71934 36.3953 8.95137 36.3724 9.11562C36.361 9.19782 36.3528 9.26326 36.3473 9.30955C36.3446 9.3327 36.3425 9.35108 36.3411 9.3644L36.3393 9.38053L36.3388 9.38568L36.3386 9.38751L36.3386 9.38825C36.3385 9.38856 36.3385 9.38885 37.3336 9.48802Z" stroke="#00C988" stroke-width="2"/>
</svg>
