<svg width="51" height="49" viewBox="0 0 51 49" fill="none" xmlns="http://www.w3.org/2000/svg">
<path fill-rule="evenodd" clip-rule="evenodd" d="M43.0078 36.3119L9.69452 26.645L15.4946 6.65704L48.8079 16.3239L43.0078 36.3119Z" stroke="#00C988" stroke-width="2"/>
<path fill-rule="evenodd" clip-rule="evenodd" d="M20.2239 15.2531L13.5613 13.3197L15.4946 6.65704L22.1573 8.59041L20.2239 15.2531Z" fill="#00C988"/>
<path fill-rule="evenodd" clip-rule="evenodd" d="M33.549 19.1199L26.8863 17.1865L28.8197 10.5239L35.4824 12.4572L33.549 19.1199Z" fill="#00C988"/>
<path fill-rule="evenodd" clip-rule="evenodd" d="M46.8746 22.9866L40.2119 21.0533L42.1453 14.3906L48.8079 16.324L46.8746 22.9866Z" fill="#00C988"/>
<path fill-rule="evenodd" clip-rule="evenodd" d="M24.953 23.8493L18.2904 21.9159L20.2238 15.2532L26.8864 17.1866L24.953 23.8493Z" fill="#00C988"/>
<path fill-rule="evenodd" clip-rule="evenodd" d="M38.2781 27.7161L31.6155 25.7827L33.5488 19.1201L40.2115 21.0534L38.2781 27.7161Z" fill="#00C988"/>
<path fill-rule="evenodd" clip-rule="evenodd" d="M16.3566 28.5787L9.69395 26.6453L11.6273 19.9827L18.29 21.916L16.3566 28.5787Z" fill="#00C988"/>
<path fill-rule="evenodd" clip-rule="evenodd" d="M29.6822 32.4452L23.0195 30.5118L24.9529 23.8492L31.6155 25.7826L29.6822 32.4452Z" fill="#00C988"/>
<path fill-rule="evenodd" clip-rule="evenodd" d="M43.0077 36.312L36.3451 34.3787L38.2784 27.716L44.9411 29.6494L43.0077 36.312Z" fill="#00C988"/>
<path d="M17.8034 5.05304C18.1351 3.90998 17.4778 2.71334 16.3335 2.3813L14.1126 1.73685C12.9684 1.40481 11.7726 2.0637 11.4409 3.20676L1.77406 36.52C1.44237 37.6631 2.09974 38.8597 3.24397 39.1918L5.46486 39.8362C6.6091 40.1683 7.8049 39.5094 8.1366 38.3663L17.8034 5.05304Z" fill="black" stroke="#00C988" stroke-width="2" stroke-linejoin="round"/>
</svg>
