<svg width="122" height="37" viewBox="0 0 122 37" fill="none" xmlns="http://www.w3.org/2000/svg">
<path d="M68.5975 17.51C69.9937 17.8534 71.0695 18.5401 71.825 19.5702C72.6034 20.5774 72.9921 21.8364 72.9921 23.3472C72.9921 25.476 72.294 27.1012 70.8978 28.2229C69.5246 29.3445 67.567 29.9053 65.0262 29.9053H56.477C56.1561 29.9053 55.8817 29.8023 55.6526 29.5963C55.4465 29.3903 55.3438 29.1385 55.3438 28.8409V6.76289C55.3438 6.46534 55.4465 6.21349 55.6526 6.00751C55.8817 5.80148 56.1561 5.69849 56.477 5.69849H64.6829C67.1554 5.69849 69.0665 6.24788 70.4173 7.34661C71.7676 8.44534 72.4427 10.0134 72.4427 12.0506C72.4427 13.3554 72.0994 14.477 71.4128 15.4156C70.7491 16.3541 69.8105 17.0522 68.5975 17.51ZM57.438 16.686H64.374C66.3196 16.686 67.7961 16.2854 68.8036 15.4842C69.8105 14.683 70.314 13.5271 70.314 12.0163C70.314 9.01764 68.334 7.51826 64.374 7.51826H57.438V16.686ZM64.889 28.0855C66.9264 28.0855 68.4259 27.7078 69.3869 26.9524C70.3714 26.1741 70.8634 24.9953 70.8634 23.4158C70.8634 20.1653 68.8719 18.5401 64.889 18.5401H57.438V28.0855H64.889Z" fill="black"/>
<path d="M111.304 30.077C110.983 30.077 110.731 29.974 110.548 29.7679C110.365 29.562 110.274 29.2987 110.274 28.9782V7.55264H102.342C102.044 7.55264 101.804 7.4725 101.621 7.31228C101.461 7.15205 101.381 6.92311 101.381 6.62557C101.381 6.32796 101.461 6.09908 101.621 5.93885C101.804 5.77857 102.044 5.69849 102.342 5.69849H120.265C120.54 5.69849 120.769 5.79005 120.952 5.97318C121.135 6.13341 121.227 6.35087 121.227 6.62557C121.227 6.90021 121.135 7.12915 120.952 7.31228C120.769 7.4725 120.54 7.55264 120.265 7.55264H112.368V28.9782C112.368 29.2987 112.265 29.562 112.059 29.7679C111.876 29.974 111.624 30.077 111.304 30.077Z" fill="black"/>
<path d="M100.06 28.7722C100.129 28.9096 100.163 29.0469 100.163 29.1843C100.163 29.436 100.06 29.6535 99.8543 29.8366C99.6482 29.9969 99.4082 30.0769 99.1332 30.0769C98.9501 30.0769 98.767 30.0198 98.5838 29.9053C98.4237 29.7908 98.2979 29.6306 98.2061 29.4246L95.5969 23.4501H82.2743L79.6306 29.4246C79.4245 29.8595 79.1042 30.0769 78.669 30.0769C78.3946 30.0769 78.1541 29.9969 77.948 29.8366C77.7649 29.6535 77.6736 29.4246 77.6736 29.1499C77.6736 28.9896 77.696 28.8637 77.7419 28.7722L87.7682 6.24786C87.9743 5.74422 88.352 5.49243 88.9014 5.49243C89.1529 5.49243 89.3819 5.56115 89.588 5.69847C89.8165 5.83579 89.9772 6.01892 90.0685 6.24786L100.06 28.7722ZM94.7725 21.596L88.9353 8.308L83.0642 21.596H94.7725Z" fill="#FF5000"/>
<g clip-path="url(#clip0)">
<path d="M21.104 0.0762939V14.4167L29.6863 29.2907L42.1363 36.5229C42.2484 36.327 42.2323 36.0568 42.0607 35.7599L31.8946 18.1414L21.7285 0.522858C21.5562 0.224939 21.3298 0.0762939 21.104 0.0762939Z" fill="#9E1F63"/>
<path d="M0.071197 36.5229L12.5215 29.291L21.1044 14.4167V0.0762939C20.8777 0.0762939 20.6516 0.224939 20.4799 0.522543L10.3132 18.1414L0.146464 35.7595C-0.0245403 36.0568 -0.0406015 36.3267 0.071197 36.5229" fill="#FF4724"/>
<path d="M42.1365 36.523L29.6866 29.291H12.5215L0.0712891 36.523C0.184032 36.7195 0.425895 36.8417 0.768849 36.8417H41.4393C41.7825 36.8417 42.0238 36.7195 42.1365 36.523Z" fill="#662D91"/>
<path d="M12.5215 29.2907H29.6868L21.1041 14.4167L12.5215 29.2907Z" fill="white"/>
</g>
<defs>
<clipPath id="clip0">
<rect width="42.2" height="36.8463" fill="white"/>
</clipPath>
</defs>
</svg>
