<svg width="126" height="33" viewBox="0 0 126 33" fill="none" xmlns="http://www.w3.org/2000/svg">
<path fill-rule="evenodd" clip-rule="evenodd" d="M20.8435 4.39408H24.8041C24.9915 4.39408 25.1582 4.24726 25.1582 4.03999V0.490443C25.1582 0.30908 24.9915 0.136353 24.8041 0.136353H20.8435C20.6561 0.136353 20.4894 0.283171 20.4894 0.490443V4.03999C20.4894 4.22135 20.6561 4.39408 20.8435 4.39408ZM13.7539 9.4809H9.79327C9.60586 9.4809 9.45991 9.30817 9.43918 9.12681V5.57726C9.43918 5.36999 9.60586 5.22317 9.79327 5.22317H13.7539C13.962 5.22317 14.108 5.3959 14.108 5.57726V9.12681C14.108 9.30817 13.9413 9.4809 13.7539 9.4809ZM44.6876 12.3309C44.5624 12.2273 43.4371 11.3723 41.0189 11.3723C40.3936 11.3723 39.7476 11.4414 39.1224 11.545C38.6964 8.57675 36.3821 7.03926 35.9714 6.7664L35.9714 6.76638C35.9399 6.74551 35.9197 6.73204 35.9122 6.7259L35.2662 6.35453L34.8491 6.95908C34.3283 7.7709 33.9319 8.68635 33.703 9.62772C33.2652 11.4414 33.5364 13.1514 34.4527 14.6109C33.3481 15.2327 31.556 15.3795 31.1804 15.3968H1.58095C0.809726 15.3968 0.184453 16.0273 0.184453 16.7959C0.142999 19.3782 0.580862 21.9691 1.47732 24.4045C2.49814 27.0732 4.01986 29.0509 5.97945 30.26C8.18863 31.6159 11.7952 32.3845 15.8595 32.3845C17.6938 32.3845 19.5282 32.2204 21.3418 31.8836C23.8636 31.4259 26.2818 30.5536 28.5126 29.2841C30.347 28.2218 31.993 26.8659 33.3904 25.2768C35.7455 22.6341 37.142 19.6718 38.1637 17.0464H38.58C41.1441 17.0464 42.728 16.0273 43.6038 15.1464C44.1876 14.6109 44.6255 13.9373 44.9381 13.1859L45.1255 12.6504L44.6876 12.3309ZM58.9869 9.54135C58.3193 9.51544 57.7778 10.0336 57.757 10.6814V10.7677V16.6836C54.901 14.395 50.7115 14.8527 48.4185 17.7114C47.4806 18.8945 46.959 20.3541 46.959 21.8741C46.8968 25.5445 49.815 28.5673 53.4838 28.6277C57.1525 28.6968 60.1744 25.7777 60.2374 22.1073V21.8741V10.7677C60.2374 10.4309 60.1122 10.12 59.8825 9.89544C59.6329 9.66226 59.3202 9.54135 58.9869 9.54135ZM57.4228 23.4804C57.0065 24.4823 56.2146 25.2768 55.2136 25.7173C54.1712 26.1491 53.0045 26.1491 51.962 25.7173C50.9611 25.2941 50.1899 24.4823 49.7736 23.5064C49.3357 22.4786 49.3357 21.3127 49.7736 20.2764C50.1899 19.2745 50.9818 18.48 51.962 18.0654C53.0045 17.625 54.1712 17.625 55.2136 18.0654C56.2146 18.4973 57.0065 19.2918 57.4228 20.2936C57.8607 21.2954 57.8607 22.4614 57.4228 23.4804ZM72.8482 17.1932C70.2634 14.6023 66.0531 14.6023 63.4683 17.1932C62.2177 18.4368 61.5294 20.1295 61.5294 21.8827C61.4672 25.5532 64.3855 28.5673 68.0542 28.6364C71.7229 28.6968 74.7448 25.7777 74.8078 22.1073V21.8827C74.8078 21.0018 74.6411 20.1468 74.3078 19.335C73.9735 18.5232 73.4735 17.7977 72.8482 17.1932ZM71.9941 23.4632C71.7851 23.9641 71.4725 24.4045 71.0976 24.7759C70.722 25.1559 70.2634 25.4668 69.784 25.6741C68.7416 26.1145 67.5749 26.1145 66.5325 25.6741C65.5315 25.2595 64.7395 24.4477 64.3233 23.4632C63.8854 22.4441 63.8854 21.2782 64.3233 20.2332C64.7395 19.2314 65.5315 18.4627 66.5325 18.0223C67.5749 17.5904 68.7416 17.5904 69.784 18.0223C70.2841 18.2295 70.722 18.5491 71.0976 18.9204C71.4725 19.2918 71.7851 19.7582 71.9941 20.2332C72.4311 21.2954 72.4311 22.4614 71.9941 23.4632ZM100.3 16.4591C100.3 16.295 100.258 16.1309 100.195 15.9841C100.133 15.8373 100.029 15.7077 99.9241 15.5868C99.8204 15.4832 99.6745 15.3795 99.5285 15.3104C99.3826 15.25 99.2159 15.2068 99.0492 15.2068C98.8195 15.2068 98.5906 15.2759 98.3816 15.3968L91.2946 20.0086V10.7936C91.2946 10.4568 91.1694 10.1459 90.9405 9.91272C90.7108 9.68817 90.3982 9.54135 90.0648 9.54135C89.3774 9.54135 88.835 10.0854 88.8143 10.7677V10.7936V27.2545C88.8143 27.5914 88.9395 27.9023 89.1684 28.1354C89.3981 28.3859 89.7107 28.5068 90.0441 28.5068C90.3774 28.5068 90.6901 28.3859 90.9198 28.1354C91.1487 27.9023 91.2946 27.5914 91.2739 27.2545V22.9882L92.7119 22.0468L98.1942 28.1959C98.424 28.4032 98.715 28.5327 99.0285 28.5068C99.1952 28.5068 99.3619 28.4895 99.5078 28.4032C99.6538 28.3427 99.7781 28.2564 99.9034 28.1354L99.9346 28.0969C100.028 27.9815 100.119 27.8704 100.175 27.7382C100.237 27.5914 100.279 27.4273 100.279 27.2545C100.279 26.9436 100.154 26.6327 99.9448 26.3995L94.8589 20.6736L99.8204 17.4436C100.154 17.2364 100.32 16.8564 100.3 16.4591ZM81.0623 18.0223C80.5614 18.2295 80.1028 18.5404 79.728 18.9204L79.7279 18.9251L79.7278 18.9286C79.7276 18.9302 79.7274 18.9311 79.7269 18.9312C79.7251 18.9317 79.7202 18.9216 79.7072 18.8945C78.1017 20.5268 78.1017 23.1523 79.728 24.7759C80.1244 25.1473 80.5614 25.4668 81.0623 25.6741C81.583 25.8986 82.1254 26.0023 82.6876 26.0023C83.167 26.0023 83.6679 25.9245 84.1264 25.7518C84.585 25.5704 85.0013 25.32 85.377 24.9832C85.6059 24.8191 85.877 24.7327 86.169 24.7327H86.2527C86.8987 24.75 87.4195 25.2941 87.3988 25.9591C87.3988 26.3218 87.2528 26.65 87.0024 26.8832C85.7941 27.9195 84.2508 28.4895 82.6462 28.4895C78.9982 28.4636 76.0385 25.5014 76.0385 21.8395C76.0385 18.1691 79.0189 15.1895 82.6876 15.1895C84.2931 15.1464 85.8356 15.725 87.024 16.7873C87.315 17.0204 87.461 17.3745 87.461 17.7286C87.461 18.0654 87.3366 18.3936 87.1069 18.6268C86.878 18.8773 86.5438 18.9982 86.2104 18.9809C85.9185 18.9809 85.6266 18.8945 85.3977 18.7132C85.0229 18.3764 84.585 18.1259 84.1264 17.9359C83.6679 17.7718 83.1885 17.6854 82.6876 17.6854C82.1254 17.6854 81.583 17.815 81.0623 18.0223ZM124.918 16.0618C124.667 15.8373 124.396 15.6645 124.083 15.5609C123.729 15.44 123.355 15.3536 122.979 15.3104C122.604 15.2759 122.228 15.25 121.854 15.25C121.103 15.25 120.332 15.3795 119.623 15.6473C118.915 15.8977 118.269 16.2691 117.685 16.7354V16.485C117.664 15.7941 117.08 15.2759 116.392 15.2932C115.746 15.3104 115.225 15.8373 115.204 16.485V27.2977C115.225 27.9886 115.809 28.5068 116.496 28.4895C117.142 28.4636 117.664 27.9454 117.685 27.2977V21.9C117.685 21.3386 117.788 20.7945 118.018 20.2764C118.226 19.7754 118.518 19.335 118.915 18.9636C119.289 18.5836 119.748 18.2727 120.227 18.0654C120.749 17.8582 121.29 17.7286 121.854 17.7286C122.417 17.7286 122.958 17.8409 123.48 18.0223C123.646 18.1086 123.813 18.1518 124.001 18.1518C124.167 18.1518 124.334 18.1259 124.48 18.0482C124.626 17.9791 124.751 17.9014 124.876 17.7718C124.98 17.6682 125.084 17.5214 125.147 17.3745C125.21 17.2364 125.251 17.0636 125.251 16.8995C125.272 16.5886 125.147 16.295 124.918 16.0618ZM113.413 19.335C112.35 16.8736 109.933 15.2759 107.264 15.25C103.595 15.25 100.636 18.2123 100.615 21.8827C100.615 25.5532 103.595 28.5327 107.264 28.5327C108.849 28.5327 110.391 27.9714 111.6 26.9264C111.621 26.9004 111.642 26.8832 111.642 26.8832C111.746 26.7968 111.85 26.6932 111.913 26.5723C112.309 25.985 112.163 25.2164 111.6 24.8191C111.12 24.5082 110.495 24.5686 110.079 24.9659C110.064 24.9808 110.04 25.003 110.014 25.0262C109.965 25.0704 109.912 25.1187 109.912 25.13L109.89 25.1559C109.536 25.4409 109.141 25.6914 108.703 25.8382C108.244 26.0109 107.765 26.0886 107.264 26.0714C106.806 26.0714 106.368 26.0109 105.931 25.8641C105.514 25.7173 105.117 25.5273 104.763 25.2595C104.409 25.0091 104.096 24.6982 103.846 24.3441C103.575 23.99 103.387 23.5668 103.262 23.1523H112.642C112.976 23.1523 113.289 23.0227 113.518 22.7982C113.768 22.565 113.893 22.2541 113.872 21.9259C113.893 21.0277 113.726 20.1468 113.413 19.335ZM103.262 20.6736C103.387 20.2332 103.575 19.8359 103.846 19.4818C104.096 19.1277 104.409 18.8168 104.763 18.5664C105.117 18.3159 105.514 18.1086 105.931 17.9618C106.347 17.815 106.806 17.7545 107.243 17.7545C107.681 17.7545 108.14 17.815 108.557 17.9618C109.39 18.2295 110.12 18.7736 110.641 19.4818C110.912 19.8359 111.1 20.2504 111.245 20.6736H103.262ZM8.29227 14.5418H4.33163C4.14423 14.5418 3.99827 14.395 3.97754 14.1877V10.6468C3.97754 10.4395 4.14423 10.2927 4.33163 10.2927H8.29227C8.50041 10.2927 8.64636 10.4568 8.64636 10.6468V14.1877C8.64636 14.395 8.47968 14.5418 8.29227 14.5418ZM9.79327 14.5418H13.7539C13.9413 14.5418 14.108 14.395 14.108 14.1877V10.6468C14.108 10.4568 13.962 10.2927 13.7539 10.2927H9.79327C9.60586 10.2927 9.43918 10.4395 9.43918 10.6468V14.1877C9.45991 14.395 9.60586 14.5418 9.79327 14.5418ZM19.32 14.5418H15.3594C15.1513 14.5418 15.0053 14.395 15.0053 14.1877V10.6468C15.0053 10.4395 15.172 10.2927 15.3594 10.2927H19.32C19.529 10.2927 19.6741 10.4568 19.6741 10.6468V14.1877C19.6741 14.395 19.5075 14.5418 19.32 14.5418ZM20.8435 14.5418H24.8041C24.9915 14.5418 25.1582 14.395 25.1582 14.1877V10.6468C25.1582 10.4568 25.0123 10.2927 24.8041 10.2927H20.8435C20.6561 10.2927 20.4894 10.4395 20.4894 10.6468V14.1877C20.4894 14.395 20.6561 14.5418 20.8435 14.5418ZM15.3594 9.4809H19.32C19.5075 9.4809 19.6741 9.30817 19.6741 9.12681V5.57726C19.6741 5.3959 19.529 5.22317 19.32 5.22317H15.3594C15.172 5.22317 15.0053 5.36999 15.0053 5.57726V9.12681C15.0053 9.30817 15.1513 9.4809 15.3594 9.4809ZM24.8041 9.4809H20.8435C20.6561 9.4809 20.4894 9.30817 20.4894 9.12681V5.57726C20.4894 5.36999 20.6561 5.22317 20.8435 5.22317H24.8041C24.9915 5.22317 25.1582 5.3959 25.1582 5.57726V9.12681C25.1582 9.30817 24.9915 9.4809 24.8041 9.4809ZM30.3262 14.5418H26.3656C26.1782 14.5418 26.0322 14.395 26.0115 14.1877V10.6468C26.0115 10.4395 26.1782 10.2927 26.3656 10.2927H30.3262C30.5352 10.2927 30.6812 10.4568 30.6812 10.6468V14.1877C30.6812 14.395 30.5145 14.5418 30.3262 14.5418Z" fill="#0091E2"/>
</svg>
