<svg width="131" height="40" viewBox="0 0 131 40" fill="none" xmlns="http://www.w3.org/2000/svg">
<g clip-path="url(#clip0)">
<path d="M46.7703 0.562988H0.585449V38.9847H46.7703V0.562988Z" fill="white"/>
<path d="M66.6415 20.2765H68.4825C69.7628 20.2765 71.0398 20.555 71.0398 22.0791C71.0398 23.4484 69.6843 23.9073 68.432 23.9073H66.6415V20.2765ZM60.196 27.567H70.5533C74.262 27.567 77.8934 27.107 77.8934 22.6373C77.8934 20.8613 76.3597 18.9338 73.8786 18.603V18.5507C76.2555 17.9423 77.5605 16.6445 77.5605 14.2101C77.5605 10.8322 74.5187 9.84497 71.4254 9.84497H60.196V27.567ZM66.6415 13.1973H68.505C69.7327 13.1973 70.8594 13.6018 70.8594 14.9241C70.8594 16.2657 69.5544 16.6211 68.3525 16.6211H66.6405V13.1973H66.6415Z" fill="#003F2D"/>
<path d="M88.3033 22.1538C88.3033 23.2968 87.6353 24.5167 86.3077 24.5167C85.3078 24.5167 84.7987 24.1592 84.7987 23.2467C84.7987 21.8784 86.3335 21.7493 87.6621 21.7493H88.3044V22.1538H88.3033ZM80.4498 18.4984C81.7301 17.8655 83.3637 17.3831 84.8996 17.3831C86.514 17.3831 88.2776 17.5859 88.3033 19.2882C87.7148 19.2348 86.6922 19.1089 85.7943 19.1089C82.5958 19.1089 78.916 19.9232 78.916 23.9841C78.916 26.7526 81.3219 27.8711 83.7987 27.8711C85.6171 27.8711 87.2572 27.1593 88.1487 25.6598H88.2013V27.568H94.1828V19.5176C94.1828 14.6925 89.7082 14.0319 86.0253 14.0319C83.5216 14.0319 82.368 14.2603 80.4508 14.7928V18.4984H80.4498Z" fill="#003F2D"/>
<path d="M95.999 14.3382H102.089V16.6211H102.141C102.906 14.7683 104.67 14.0319 106.488 14.0319C109.912 14.0319 111.165 15.8099 111.165 18.3714V27.5659H104.722V19.9467C104.722 19.1846 104.722 18.144 103.598 18.144C102.445 18.144 102.445 19.1846 102.445 19.9467V27.5659H96.0001V14.3382H95.999Z" fill="#003F2D"/>
<path d="M119.783 19.5892H119.84L123.521 14.3361H130.805L126.306 20.1741L130.988 27.5671H123.47L119.84 21.1421H119.783V27.5671H113.341V8.52271H119.783V19.5892Z" fill="#003F2D"/>
<path d="M0 39.5195H47.2589V0.0305176H0V39.5195ZM31.0223 30.9771H20.0131V12.4439H25.5435V27.6984H30.8601C34.5312 27.6984 36.0747 25.3141 36.0747 19.2008C36.0747 13.0405 34.3186 11.2518 30.5959 11.2518H18.4707V30.9771H12.9919V11.2518H4.96112V7.96993H32.2961C38.892 7.96993 42.0293 11.1493 42.0293 19.1517C42.0293 29.6846 37.3485 30.9771 31.0223 30.9771Z" fill="#54B848"/>
</g>
<defs>
<clipPath id="clip0">
<rect width="131" height="39.4926" fill="white"/>
</clipPath>
</defs>
</svg>
