<svg width="82" height="29" viewBox="0 0 82 29" fill="none" xmlns="http://www.w3.org/2000/svg">
<path fill-rule="evenodd" clip-rule="evenodd" d="M6.81643 23.0005C6.21534 22.3614 5.7438 21.5928 5.40352 20.6859C5.06325 19.7878 4.89398 18.7859 4.89398 17.6805V0.727295H0.772705V17.9223C0.772705 19.5459 1.04043 21.0141 1.57675 22.3355C2.11393 23.6568 2.8463 24.7882 3.77471 25.7296C4.70398 26.6709 5.80252 27.3964 7.07207 27.9059C8.34075 28.4155 9.70789 28.6746 11.1735 28.6746C12.6123 28.6746 13.9535 28.4155 15.1963 27.8887C16.4391 27.3618 17.5186 26.6191 18.4341 25.6518V28.1996H22.5156V0.727295H18.3952V17.6805C18.3952 18.7859 18.2251 19.7791 17.8848 20.6687C17.5445 21.5582 17.0669 22.3182 16.452 22.9659C15.8371 23.605 15.1177 24.0973 14.2938 24.4514C13.469 24.8055 12.5864 24.9868 11.6442 24.9868C10.676 24.9868 9.77957 24.8141 8.95566 24.4773C8.13175 24.1318 7.41839 23.6396 6.81643 23.0005ZM29.6182 0.727295V10.7368C30.5345 9.82139 31.5942 9.09593 32.7972 8.56048C34.0011 8.02502 35.3095 7.7573 36.7224 7.7573C38.188 7.7573 39.5612 8.02502 40.8437 8.57775C42.1253 9.13048 43.2377 9.8732 44.1791 10.8146C45.1213 11.7559 45.8675 12.87 46.4167 14.1482C46.966 15.435 47.2407 16.7909 47.2407 18.2332C47.2407 19.6755 46.966 21.0228 46.4167 22.2923C45.8675 23.5618 45.1213 24.6673 44.1791 25.6087C43.2377 26.55 42.1253 27.3014 40.8437 27.8455C39.5612 28.3982 38.1872 28.6746 36.7224 28.6746C35.3095 28.6746 33.9942 28.4068 32.7782 27.8714C31.5613 27.3359 30.4947 26.6105 29.5793 25.695V28.1996H25.6541V0.727295H29.6182ZM30.0698 20.945C30.4231 21.7827 30.9136 22.5082 31.5415 23.1387C32.1693 23.7691 32.9026 24.2614 33.7394 24.6327C34.5772 24.9955 35.4797 25.1768 36.4478 25.1768C37.39 25.1768 38.2796 24.9955 39.1164 24.6327C39.9533 24.2614 40.6796 23.7691 41.2945 23.1387C41.9094 22.5082 42.4 21.7827 42.7662 20.945C43.1332 20.1073 43.3163 19.2005 43.3163 18.2332C43.3163 17.2659 43.1332 16.3591 42.7662 15.5041C42.4 14.6577 41.9094 13.915 41.2945 13.2846C40.6796 12.6628 39.9542 12.1705 39.1164 11.8164C38.2787 11.4623 37.3892 11.2896 36.4478 11.2896C35.5056 11.2896 34.616 11.4623 33.7792 11.8164C32.9414 12.1705 32.2091 12.6628 31.5812 13.2846C30.9533 13.915 30.4559 14.6577 30.0897 15.5041C29.7235 16.3591 29.5396 17.2659 29.5396 18.2332C29.5396 19.2005 29.7166 20.1073 30.0698 20.945ZM51.6374 10.875C50.722 11.8337 50.0026 12.9391 49.4792 14.1914C48.9558 15.4437 48.6942 16.7823 48.6942 18.19C48.6942 19.6841 48.9688 21.0659 49.5181 22.3355C50.0682 23.605 50.8204 24.7105 51.7756 25.6518C52.7299 26.5932 53.8553 27.3273 55.1507 27.8455C56.4462 28.3723 57.8392 28.6314 59.3307 28.6314C61.1616 28.6314 62.8103 28.2514 64.2759 27.5C65.7406 26.74 66.9704 25.6864 67.9653 24.3564L65.0998 22.2405C63.6342 24.2009 61.7118 25.1768 59.3307 25.1768C58.493 25.1768 57.7019 25.0387 56.9557 24.745C56.2104 24.46 55.5428 24.0628 54.9538 23.5532C54.3657 23.0437 53.8751 22.4391 53.4822 21.7482C53.0901 21.0487 52.8284 20.2973 52.6971 19.4855H68.9853V18.19C68.9853 16.7046 68.7366 15.3228 68.24 14.0532C67.7425 12.7837 67.049 11.6868 66.1595 10.7541C65.2699 9.83002 64.2103 9.10457 62.9804 8.57775C61.7506 8.05093 60.4163 7.79184 58.9775 7.79184C57.5119 7.79184 56.1517 8.0682 54.8951 8.62093C53.6393 9.16502 52.5538 9.91639 51.6374 10.875ZM52.7757 16.3505C53.1419 14.8046 53.8812 13.5696 54.9935 12.6368C56.1059 11.7127 57.4074 11.2464 58.8989 11.2464C60.3904 11.2464 61.6919 11.7127 62.8034 12.6368C63.9157 13.5696 64.6421 14.8046 64.9823 16.3505H52.7757ZM75.1465 16.8255C75.1465 15.2537 75.5653 14.01 76.4022 13.0946C77.2399 12.1791 78.3126 11.7214 79.621 11.7214H81.2697V8.03366H79.8956C78.7962 8.03366 77.8479 8.26684 77.0499 8.74184C76.2519 9.2082 75.6042 9.84729 75.1076 10.6591V8.18911H71.1824V28.2082H75.1465V16.8255Z" fill="#010202"/>
</svg>
