<svg width="107" height="36" viewBox="0 0 107 36" fill="none" xmlns="http://www.w3.org/2000/svg">
<path fill-rule="evenodd" clip-rule="evenodd" d="M37.3337 27.3822C42.1579 27.3822 46.0884 23.6772 46.0884 18.6508C46.0884 13.5986 42.1579 9.9281 37.3337 9.9281C32.5094 9.9281 28.5781 13.5986 28.5781 18.6508C28.5781 23.6772 32.5094 27.3822 37.3337 27.3822ZM37.3337 13.3654C39.9781 13.3654 42.2564 15.5158 42.2564 18.6508C42.2564 21.7599 39.9781 23.9449 37.3337 23.9449C34.6892 23.9449 32.4109 21.7599 32.4109 18.6508C32.4109 15.5158 34.6892 13.3654 37.3337 13.3654Z" fill="#EA4335"/>
<path fill-rule="evenodd" clip-rule="evenodd" d="M56.2222 27.3822C61.0465 27.3822 64.9778 23.6772 64.9778 18.6508C64.9778 13.5986 61.0465 9.9281 56.2222 9.9281C51.3979 9.9281 47.4667 13.5986 47.4667 18.6508C47.4667 23.6772 51.3979 27.3822 56.2222 27.3822ZM56.2222 13.3654C58.8667 13.3654 61.1449 15.5158 61.1449 18.6508C61.1449 21.7599 58.8667 23.9449 56.2222 23.9449C53.5778 23.9449 51.2995 21.7599 51.2995 18.6508C51.2995 15.5158 53.5778 13.3654 56.2222 13.3654Z" fill="#FBBC05"/>
<path fill-rule="evenodd" clip-rule="evenodd" d="M83.077 26.1213V10.4549H79.4385V11.8799H79.3047C78.4428 10.8522 76.7906 9.9281 74.7093 9.9281C70.3453 9.9281 66.3467 13.7626 66.3467 18.6854C66.3467 23.5736 70.3453 27.3822 74.7093 27.3822C76.7941 27.3822 78.4471 26.4581 79.3047 25.3958H79.4385V26.6481C79.4385 29.9904 77.656 31.7695 74.7801 31.7695C72.4345 31.7695 70.9784 30.094 70.3842 28.669L67.0471 30.0595C68.0075 32.374 70.5535 35.1981 74.7835 35.1981C79.277 35.1981 83.077 32.5726 83.077 26.1213ZM75.0513 13.3654C77.6603 13.3654 79.7106 15.6108 79.7106 18.6854C79.7106 21.7254 77.6603 23.9449 75.0513 23.9449C72.4068 23.9449 70.1916 21.7254 70.1916 18.6854C70.1916 15.6108 72.4068 13.3654 75.0513 13.3654Z" fill="#4285F4"/>
<path d="M89.0793 1.27454V26.8554H85.3397V1.27454H89.0793Z" fill="#34A853"/>
<path fill-rule="evenodd" clip-rule="evenodd" d="M106.62 23.5132L103.649 21.5268C102.656 22.9864 101.3 23.945 99.3479 23.945C97.4048 23.945 96.0143 23.0468 95.1161 21.3023L106.784 16.4659L106.387 15.4727C105.661 13.5296 103.45 9.91956 98.9161 9.91956C94.4252 9.91956 90.6857 13.4605 90.6857 18.6509C90.6857 23.5477 94.3907 27.3823 99.3479 27.3823C103.347 27.3823 105.661 24.9296 106.62 23.5132ZM102.284 15.1532L94.4857 18.3918C94.3907 15.0236 97.1025 13.2964 99.0457 13.2964C100.566 13.2964 101.861 14.0564 102.284 15.1532Z" fill="#EA4335"/>
<path d="M14.4265 16.3882V12.6832H26.9044C27.027 13.3309 27.0892 14.0909 27.0892 14.92C27.0892 17.6923 26.33 21.1295 23.8825 23.5823C21.5023 26.0609 18.4606 27.3822 14.4309 27.3822C6.96213 27.3822 0.681763 21.2936 0.681763 13.8232C0.681763 6.36134 6.96213 0.272705 14.4309 0.272705C18.5625 0.272705 21.5058 1.89634 23.7175 4.01225L21.1042 6.62043C19.5185 5.13498 17.3698 3.97771 14.4265 3.97771C8.97267 3.97771 4.70717 8.37361 4.70717 13.8232C4.70717 19.2813 8.97267 23.6772 14.4265 23.6772C17.964 23.6772 19.9789 22.2523 21.27 20.9654C22.3167 19.9204 23.005 18.4263 23.2762 16.3795L14.4265 16.3882Z" fill="#4285F4"/>
</svg>
