<svg width="85" height="37" viewBox="0 0 85 37" fill="none" xmlns="http://www.w3.org/2000/svg">
<mask id="mask0" mask-type="alpha" maskUnits="userSpaceOnUse" x="0" y="0" width="84" height="37">
<path d="M78.9578 17.9427H80.9518C81.4454 17.9345 81.8153 17.7866 82.062 17.4991C82.3051 17.2324 82.4263 16.904 82.4263 16.5141C82.4183 16.0464 82.273 15.7072 81.9905 15.498C81.7677 15.3134 81.4454 15.2208 81.0235 15.2208H78.9578V17.9427ZM77.6435 14.018H81.0355C81.7589 14.018 82.3492 14.2143 82.8063 14.6074C83.3563 15.0537 83.6433 15.6902 83.667 16.5173C83.651 17.7332 83.0924 18.5603 81.9905 18.9984L84 22.9716H82.4383L80.6411 19.1451H78.9578V22.9716H77.6435V14.018ZM71.8984 19.7666L70.6421 15.8496H70.6184L69.362 19.7666H71.8984ZM72.2735 20.969H68.9809L68.3142 22.9716H66.9209L70.0765 14.018H71.1779L74.3337 22.9716H72.9464L72.2735 20.969ZM59.2955 21.695H60.8694C61.6087 21.695 62.1452 21.4343 62.4791 20.9133C62.6264 20.7206 62.7196 20.4765 62.7594 20.181C62.7952 19.8896 62.813 19.344 62.813 18.5438C62.813 17.7646 62.7952 17.2066 62.7594 16.87C62.7116 16.5337 62.5986 16.2608 62.4197 16.0517C62.0537 15.5307 61.5373 15.2784 60.8694 15.2945H59.2955V21.695ZM57.981 14.018H61.0188C62.1943 14.0261 63.0759 14.5296 63.6636 15.5285C63.8739 15.8642 64.0068 16.2165 64.0621 16.5849C64.1058 16.9532 64.1275 17.59 64.1275 18.4948C64.1275 19.4569 64.0938 20.1283 64.0264 20.5092C63.9945 20.7014 63.9467 20.8735 63.8834 21.0249C63.8158 21.1724 63.7344 21.3257 63.6393 21.4855C63.385 21.9073 63.0315 22.2552 62.579 22.5296C62.1304 22.8243 61.5803 22.9716 60.9291 22.9716H57.981V14.018ZM52.2361 19.7666L50.9799 15.8496H50.956L49.6996 19.7666H52.2361ZM52.6111 20.969H49.3186L48.6518 22.9716H47.2585L50.4142 14.018H51.5158L54.6714 22.9716H53.2841L52.6111 20.969ZM39.6577 17.9427H41.6517C42.1451 17.9345 42.5152 17.7866 42.7619 17.4991C43.0047 17.2324 43.1262 16.904 43.1262 16.5141C43.1182 16.0464 42.9729 15.7072 42.6904 15.498C42.4674 15.3134 42.1451 15.2208 41.7231 15.2208H39.6577V17.9427ZM38.3432 14.018H41.7354C42.4588 14.018 43.0491 14.2143 43.5061 14.6074C44.056 15.0537 44.3429 15.6902 44.3668 16.5173C44.3509 17.7332 43.7922 18.5603 42.6904 18.9984L44.6997 22.9716H43.1382L41.3412 19.1451H39.6577V22.9716H38.3432V14.018ZM14.663 10.3227C17.9863 10.3231 20.6899 13.0242 20.6899 16.3442C20.6899 19.1616 18.7426 21.5324 16.122 22.1862L4.17436 10.3227H14.663ZM29.298 35.2691L23.8503 29.86C28.1766 26.9159 31.0235 21.9563 31.0235 16.3442C31.0235 7.33188 23.6838 0 14.6619 0H0.0221743V1.72044H14.6619C22.7342 1.72044 29.3012 8.28049 29.3012 16.3442C29.3012 21.4855 26.6294 26.012 22.602 28.6204L20.7187 26.7505C24.3028 24.6608 26.7178 20.7801 26.7178 16.3442C26.7178 9.70351 21.3097 4.30111 14.6619 4.30111H0.0221743V6.02155H14.6619C20.3601 6.02155 24.9956 10.6523 24.9956 16.3442C24.9956 20.3115 22.7422 23.761 19.4479 25.4886L17.4955 23.5498C20.3736 22.4195 22.4122 19.6206 22.4122 16.3442C22.4122 12.0685 18.9424 8.60221 14.6619 8.60221H0L13.8615 22.3658H0.0221743V24.086H14.6619V24.0862C14.9601 24.0862 15.2535 24.0677 15.5427 24.035L17.7265 26.2034C16.7577 26.5045 15.7284 26.6669 14.6619 26.6669V26.6666H0.0221743V28.3871H14.6619V28.3873C16.221 28.3873 17.7101 28.0869 19.0789 27.5464L21.0475 29.5009C19.1166 30.4398 16.95 30.968 14.6619 30.968H0.0221743V32.6884H14.6619C17.432 32.6884 20.0423 31.9949 22.3314 30.7759L26.8567 35.2691H0.0236813V36.9895H28.5897H31.0181H31.0224L31.0246 36.9876V36.9831L29.298 35.2691Z" fill="black"/>
</mask>
<g mask="url(#mask0)">
<path d="M78.9578 17.9427H80.9518C81.4454 17.9345 81.8153 17.7866 82.062 17.4991C82.3051 17.2324 82.4263 16.904 82.4263 16.5141C82.4183 16.0464 82.273 15.7072 81.9905 15.498C81.7677 15.3134 81.4454 15.2208 81.0235 15.2208H78.9578V17.9427ZM77.6435 14.018H81.0355C81.7589 14.018 82.3492 14.2143 82.8063 14.6074C83.3563 15.0537 83.6433 15.6902 83.667 16.5173C83.651 17.7332 83.0924 18.5603 81.9905 18.9984L84 22.9716H82.4383L80.6411 19.1451H78.9578V22.9716H77.6435V14.018ZM71.8984 19.7666L70.6421 15.8496H70.6184L69.362 19.7666H71.8984ZM72.2735 20.969H68.9809L68.3142 22.9716H66.9209L70.0765 14.018H71.1779L74.3337 22.9716H72.9464L72.2735 20.969ZM59.2955 21.695H60.8694C61.6087 21.695 62.1452 21.4343 62.4791 20.9133C62.6264 20.7206 62.7196 20.4765 62.7594 20.181C62.7952 19.8896 62.813 19.344 62.813 18.5438C62.813 17.7646 62.7952 17.2066 62.7594 16.87C62.7116 16.5337 62.5986 16.2608 62.4197 16.0517C62.0537 15.5307 61.5373 15.2784 60.8694 15.2945H59.2955V21.695ZM57.981 14.018H61.0188C62.1943 14.0261 63.0759 14.5296 63.6636 15.5285C63.8739 15.8642 64.0068 16.2165 64.0621 16.5849C64.1058 16.9532 64.1275 17.59 64.1275 18.4948C64.1275 19.4569 64.0938 20.1283 64.0264 20.5092C63.9945 20.7014 63.9467 20.8735 63.8834 21.0249C63.8158 21.1724 63.7344 21.3257 63.6393 21.4855C63.385 21.9073 63.0315 22.2552 62.579 22.5296C62.1304 22.8243 61.5803 22.9716 60.9291 22.9716H57.981V14.018ZM52.2361 19.7666L50.9799 15.8496H50.956L49.6996 19.7666H52.2361ZM52.6111 20.969H49.3186L48.6518 22.9716H47.2585L50.4142 14.018H51.5158L54.6714 22.9716H53.2841L52.6111 20.969ZM39.6577 17.9427H41.6517C42.1451 17.9345 42.5152 17.7866 42.7619 17.4991C43.0047 17.2324 43.1262 16.904 43.1262 16.5141C43.1182 16.0464 42.9729 15.7072 42.6904 15.498C42.4674 15.3134 42.1451 15.2208 41.7231 15.2208H39.6577V17.9427ZM38.3432 14.018H41.7354C42.4588 14.018 43.0491 14.2143 43.5061 14.6074C44.056 15.0537 44.3429 15.6902 44.3668 16.5173C44.3509 17.7332 43.7922 18.5603 42.6904 18.9984L44.6997 22.9716H43.1382L41.3412 19.1451H39.6577V22.9716H38.3432V14.018ZM14.663 10.3227C17.9863 10.3231 20.6899 13.0242 20.6899 16.3442C20.6899 19.1616 18.7426 21.5324 16.122 22.1862L4.17436 10.3227H14.663ZM29.298 35.2691L23.8503 29.86C28.1766 26.9159 31.0235 21.9563 31.0235 16.3442C31.0235 7.33188 23.6838 0 14.6619 0H0.0221743V1.72044H14.6619C22.7342 1.72044 29.3012 8.28049 29.3012 16.3442C29.3012 21.4855 26.6294 26.012 22.602 28.6204L20.7187 26.7505C24.3028 24.6608 26.7178 20.7801 26.7178 16.3442C26.7178 9.70351 21.3097 4.30111 14.6619 4.30111H0.0221743V6.02155H14.6619C20.3601 6.02155 24.9956 10.6523 24.9956 16.3442C24.9956 20.3115 22.7422 23.761 19.4479 25.4886L17.4955 23.5498C20.3736 22.4195 22.4122 19.6206 22.4122 16.3442C22.4122 12.0685 18.9424 8.60221 14.6619 8.60221H0L13.8615 22.3658H0.0221743V24.086H14.6619V24.0862C14.9601 24.0862 15.2535 24.0677 15.5427 24.035L17.7265 26.2034C16.7577 26.5045 15.7284 26.6669 14.6619 26.6669V26.6666H0.0221743V28.3871H14.6619V28.3873C16.221 28.3873 17.7101 28.0869 19.0789 27.5464L21.0475 29.5009C19.1166 30.4398 16.95 30.968 14.6619 30.968H0.0221743V32.6884H14.6619C17.432 32.6884 20.0423 31.9949 22.3314 30.7759L26.8567 35.2691H0.0236813V36.9895H28.5897H31.0181H31.0224L31.0246 36.9876V36.9831L29.298 35.2691Z" fill="black"/>
</g>
</svg>
