<svg width="90" height="45" viewBox="0 0 90 45" fill="none" xmlns="http://www.w3.org/2000/svg">
<g clip-path="url(#clip0)">
<path d="M63.1128 14.4632C26.8092 25.5852 0 14.4632 0 14.4632L19.9733 0C26.0358 4.60256 32.7029 8.34885 39.7869 11.1334C40.2142 11.2931 40.6292 11.4466 41.0451 11.5888C41.3376 11.6917 41.6221 11.7885 41.8988 11.8792C42.377 12.0389 42.8438 12.1924 43.3027 12.3232C43.5366 12.3969 43.7645 12.4653 43.9862 12.5285C44.481 12.6706 44.9653 12.8066 45.4427 12.9268C45.7103 12.9944 45.9691 13.0628 46.2323 13.1199C46.5342 13.1944 48.5496 13.6209 48.7259 13.6551C49.033 13.7121 49.3401 13.763 49.6481 13.8148C50.8887 14.0253 52.0723 14.1727 53.1998 14.2701C53.4841 14.2982 53.7631 14.321 54.0421 14.3438C54.0588 14.3438 55.2705 14.4316 55.8347 14.4518C55.9768 14.4632 56.1198 14.4693 56.2558 14.4693C58.888 14.5658 61.1395 14.4632 63.0408 14.4632H63.1128Z" fill="#1B98ED"/>
<path d="M64.4622 13.3874C64.4622 13.3874 64.0692 13.3988 63.6533 13.4164L63.1128 13.4331H63.0443C61.143 13.4331 58.8951 13.5357 56.2594 13.4392C56.1234 13.4392 55.9803 13.4331 55.8382 13.4216C55.2696 13.3988 54.0623 13.3137 54.0457 13.3137C53.7667 13.2909 53.4876 13.2681 53.2034 13.24C52.0759 13.1426 50.8923 12.9952 49.6516 12.7846C49.3436 12.7329 49.0374 12.682 48.7295 12.625C48.554 12.5907 48.3785 12.5627 48.203 12.5223C47.8845 12.46 46.5412 12.1634 46.2394 12.0897C45.9762 12.0327 45.7129 11.9643 45.4497 11.8967C44.9724 11.7765 44.4846 11.6405 43.9932 11.4975C43.7715 11.4349 43.5437 11.3668 43.3097 11.2931C42.8491 11.1623 42.3823 11.0088 41.9059 10.8491C41.6268 10.7578 41.3423 10.661 41.0521 10.5587C40.6363 10.4165 40.2212 10.263 39.7939 10.1033L49.1822 3.30164L64.4622 13.3874Z" fill="#C6EBF4"/>
<path d="M26.8083 42.3471C26.1872 42.3985 25.5627 42.3014 24.9865 42.0639C24.4103 41.8264 23.8988 41.4552 23.4944 40.981C22.6866 39.6978 22.3152 38.1879 22.4353 36.6764V33.8073C22.4353 31.8045 22.7883 30.353 23.4944 29.4528C23.9129 28.9786 24.4369 28.6095 25.0243 28.3751C25.6117 28.1407 26.2459 28.0476 26.8759 28.1033C27.8522 28.0491 28.819 28.3194 29.6257 28.8719C29.941 29.0838 30.2044 29.3641 30.3965 29.692C30.5885 30.0198 30.7041 30.3867 30.7347 30.7654C30.7392 30.7979 30.7554 30.8277 30.7803 30.8492C30.8051 30.8707 30.837 30.8824 30.8698 30.882H33.2388C33.2573 30.8823 33.2756 30.8788 33.2927 30.8718C33.3098 30.8649 33.3253 30.8545 33.3383 30.8414C33.3513 30.8283 33.3616 30.8127 33.3685 30.7956C33.3753 30.7785 33.3787 30.7601 33.3783 30.7417C33.3705 29.6041 32.926 28.5129 32.1368 27.6936C31.0208 26.4418 29.2218 25.8156 26.7399 25.815C25.774 25.7472 24.805 25.8929 23.9017 26.2416C22.9984 26.5904 22.1829 27.1337 21.5132 27.8331C20.3287 29.1784 19.7367 31.1824 19.7373 33.8451V37.2266C19.7373 39.6833 20.3293 41.5393 21.5132 42.7946C22.205 43.4551 23.0275 43.9635 23.9277 44.2871C24.8279 44.6106 25.7858 44.7421 26.7399 44.6731C29.5178 44.6731 31.4305 43.8876 32.4781 42.3164C32.792 41.8699 33.0393 41.3801 33.2125 40.8626C33.3505 40.3391 33.4198 39.8 33.4187 39.2587C33.4193 39.2402 33.4162 39.2219 33.4095 39.2047C33.4028 39.1875 33.3928 39.1719 33.3799 39.1587C33.367 39.1455 33.3516 39.1351 33.3346 39.128C33.3176 39.1209 33.2994 39.1173 33.281 39.1174H30.8698C30.8383 39.1177 30.8078 39.129 30.7836 39.1493C30.7594 39.1696 30.7431 39.1977 30.7374 39.2288C30.6096 40.1544 30.13 40.995 29.3981 41.5758C28.6663 42.1566 27.7387 42.4329 26.8083 42.3471V42.3471Z" fill="#25314C"/>
<path d="M49.6234 30.7049C49.6059 30.4782 49.5617 30.2544 49.4918 30.038C49.2581 29.2272 48.8577 28.4741 48.3161 27.827C47.9313 27.3837 47.4708 27.0124 46.9561 26.7302C45.7752 26.0833 44.4412 25.768 43.0955 25.8177C40.6125 25.8177 38.8109 26.4436 37.6907 27.6954C36.9293 28.5176 36.5144 29.6019 36.5326 30.7224C36.5323 30.7409 36.5358 30.7593 36.5428 30.7764C36.5497 30.7935 36.5601 30.8091 36.5731 30.8222C36.5862 30.8353 36.6018 30.8456 36.6189 30.8526C36.6361 30.8596 36.6544 30.863 36.6729 30.8628H39.0419C39.0753 30.8625 39.1072 30.8497 39.1316 30.8269C39.156 30.8042 39.1709 30.7732 39.1735 30.74C39.1906 30.3698 39.2929 30.0085 39.4725 29.6843C39.6521 29.3602 39.9041 29.0819 40.2089 28.8711C41.0144 28.3186 41.9797 28.0472 42.9552 28.099C43.5847 28.0445 44.2181 28.1384 44.8048 28.373C45.3914 28.6077 45.9149 28.9766 46.3332 29.4502L46.342 29.4589C46.6768 29.8829 46.881 30.395 46.9298 30.933C46.9474 31.1172 46.9561 31.3103 46.9561 31.5208V44.0327C47.7645 43.8591 48.5614 43.6364 49.3427 43.3658C49.4307 43.3368 49.5079 43.282 49.5643 43.2084C49.6206 43.1348 49.6535 43.046 49.6585 42.9535V31.4507C49.6585 31.1874 49.641 30.9418 49.6234 30.7049Z" fill="#25314C"/>
<path d="M46.9562 33.2581V33.5301C46.2543 33.4423 45.5436 33.3721 44.8416 33.3283C44.1397 33.2844 43.5518 33.2581 43.0956 33.2581C40.6125 33.2581 38.7963 33.7319 37.6294 34.6619C36.4624 35.592 35.8921 37.0748 35.8921 39.1016C35.8921 41.0143 36.4449 42.3977 37.5504 43.2517C38.5155 44.0063 40.5599 44.4187 42.6218 44.5064C42.8675 44.5152 43.1044 44.5152 43.35 44.5064C43.6484 44.4976 43.9467 44.4801 44.245 44.445C45.9818 44.294 47.6937 43.9316 49.3427 43.3658C49.4307 43.3368 49.508 43.2819 49.5643 43.2084C49.6207 43.1348 49.6535 43.0459 49.6586 42.9534V33.2581H46.9562ZM46.9562 41.3302C46.956 41.3662 46.9451 41.4013 46.9248 41.4311C46.9044 41.4608 46.8756 41.4837 46.8421 41.4969C44.7107 42.3027 42.373 42.3829 40.1914 41.725C39.8956 41.6282 39.6249 41.4671 39.3989 41.2532C39.1728 41.0393 38.997 40.7779 38.884 40.4879C38.7232 40.0317 38.6459 39.5502 38.6559 39.0665C38.6053 38.5648 38.6698 38.0583 38.8447 37.5854C39.0196 37.1125 39.3001 36.6858 39.6649 36.3378C40.3318 35.785 41.5514 35.513 43.2974 35.513C43.6835 35.513 45.9559 35.706 46.807 35.8025C46.8489 35.8089 46.887 35.8301 46.9144 35.8624C46.9418 35.8946 46.9567 35.9357 46.9562 35.978V41.3302Z" fill="#25314C"/>
<path d="M58.8363 26.2827C58.2116 26.4295 57.6233 26.702 57.1074 27.0837C56.5915 27.4653 56.1587 27.9481 55.8356 28.5025C55.8041 28.5493 55.7776 28.5993 55.7566 28.6517V26.4933C55.7567 26.4736 55.753 26.4542 55.7455 26.436C55.738 26.4179 55.7271 26.4014 55.7132 26.3875C55.6993 26.3736 55.6828 26.3627 55.6647 26.3552C55.6465 26.3478 55.6271 26.344 55.6075 26.3441H53.2736C53.2539 26.344 53.2345 26.3478 53.2163 26.3552C53.1982 26.3627 53.1817 26.3736 53.1678 26.3875C53.1539 26.4014 53.143 26.4179 53.1355 26.436C53.1281 26.4542 53.1243 26.4736 53.1244 26.4933V44.0589C53.1243 44.0785 53.1281 44.098 53.1355 44.1161C53.143 44.1343 53.1539 44.1508 53.1678 44.1647C53.1817 44.1785 53.1982 44.1895 53.2163 44.197C53.2345 44.2044 53.2539 44.2082 53.2736 44.2081H55.6864C55.718 44.2082 55.7489 44.1992 55.7754 44.182C55.8019 44.1649 55.8228 44.1404 55.8356 44.1116C55.8356 44.094 55.8444 44.0765 55.8444 44.0589L55.8268 34.2144C55.8268 34.0653 55.8356 33.9249 55.8356 33.7845C55.8647 32.7726 56.0943 31.7765 56.5112 30.854C56.8096 30.1866 57.2859 29.6142 57.8879 29.1995C58.4899 28.7847 59.1944 28.5436 59.9243 28.5025C60.4486 28.4427 60.9759 28.4134 61.5036 28.4148L62.1529 28.4235C62.1861 28.4209 62.2172 28.406 62.2399 28.3816C62.2626 28.3572 62.2754 28.3252 62.2757 28.2919V25.9466C62.2757 25.493 59.1522 26.1862 58.8363 26.2827Z" fill="#25314C"/>
<path d="M74.0505 25.9467V28.1051C74.0507 28.1236 74.0473 28.142 74.0403 28.1591C74.0333 28.1763 74.023 28.1919 74.0099 28.2049C73.9968 28.218 73.9813 28.2283 73.9641 28.2353C73.947 28.2423 73.9286 28.2458 73.9101 28.2455H64.6096C64.5911 28.2458 64.5728 28.2423 64.5556 28.2353C64.5385 28.2283 64.5229 28.218 64.5098 28.2049C64.4968 28.1919 64.4864 28.1763 64.4795 28.1591C64.4725 28.142 64.469 28.1236 64.4692 28.1051V25.9467C64.4706 25.9107 64.4861 25.8767 64.5124 25.8521C64.5387 25.8274 64.5736 25.8142 64.6096 25.8151H73.9101C73.9461 25.8142 73.9811 25.8274 74.0073 25.8521C74.0336 25.8767 74.0491 25.9107 74.0505 25.9467Z" fill="#25314C"/>
<path d="M74.0505 41.9356V44.0502C74.0508 44.0687 74.0473 44.0871 74.0403 44.1042C74.0333 44.1213 74.023 44.1369 74.0099 44.15C73.9968 44.1631 73.9813 44.1734 73.9641 44.1804C73.947 44.1873 73.9286 44.1908 73.9101 44.1906H71.6991C71.0897 44.2466 70.4753 44.1783 69.8931 43.9898C69.3109 43.8013 68.7731 43.4964 68.3123 43.0938C67.5259 42.1249 67.1453 40.889 67.2506 39.6456V22.1501C67.2504 22.1316 67.2538 22.1133 67.2608 22.0961C67.2678 22.079 67.2781 22.0634 67.2912 22.0503C67.3043 22.0372 67.3198 22.0269 67.337 22.0199C67.3541 22.013 67.3725 22.0095 67.391 22.0097L69.8126 21.2727C69.8311 21.2725 69.8495 21.276 69.8666 21.2829C69.8838 21.2899 69.8993 21.3002 69.9124 21.3133C69.9255 21.3264 69.9358 21.342 69.9428 21.3591C69.9498 21.3762 69.9533 21.3946 69.953 21.4131V39.2069C69.8894 39.9036 70.0525 40.6022 70.4181 41.1986C70.6043 41.4135 70.8393 41.5806 71.1034 41.6859C71.3675 41.7912 71.653 41.8317 71.936 41.804H73.9101C73.9461 41.8031 73.9811 41.8164 74.0074 41.841C74.0336 41.8656 74.0492 41.8996 74.0505 41.9356V41.9356Z" fill="#25314C"/>
<path d="M89.9649 30.7049C89.9474 30.4782 89.9032 30.2544 89.8333 30.038C89.5996 29.2272 89.1991 28.4741 88.6576 27.827C88.2727 27.3837 87.8123 27.0124 87.2976 26.7302C86.1166 26.0833 84.7826 25.768 83.437 25.8177C80.9539 25.8177 79.1523 26.4436 78.0322 27.6954C77.2707 28.5176 76.8558 29.6019 76.874 30.7224C76.8738 30.7409 76.8772 30.7593 76.8842 30.7764C76.8912 30.7935 76.9015 30.8091 76.9146 30.8222C76.9277 30.8353 76.9432 30.8456 76.9604 30.8526C76.9775 30.8596 76.9959 30.863 77.0144 30.8628H79.3834C79.4167 30.8625 79.4487 30.8497 79.473 30.8269C79.4974 30.8042 79.5124 30.7732 79.515 30.74C79.532 30.3698 79.6343 30.0085 79.8139 29.6843C79.9935 29.3602 80.2455 29.0819 80.5503 28.8711C81.3559 28.3186 82.3212 28.0472 83.2966 28.099C83.9261 28.0445 84.5596 28.1384 85.1462 28.373C85.7329 28.6077 86.2563 28.9766 86.6746 29.4502L86.6834 29.4589C87.0182 29.8829 87.2225 30.395 87.2713 30.933C87.2888 31.1172 87.2976 31.3103 87.2976 31.5208V44.0327C88.1059 43.8591 88.9029 43.6364 89.6841 43.3658C89.7722 43.3368 89.8494 43.282 89.9057 43.2084C89.9621 43.1348 89.9949 43.046 90 42.9535V31.4507C90 31.1874 89.9825 30.9418 89.9649 30.7049Z" fill="#25314C"/>
<path d="M87.2976 33.2581V33.5301C86.5957 33.4423 85.885 33.3721 85.1831 33.3283C84.4811 33.2844 83.8933 33.2581 83.437 33.2581C80.954 33.2581 79.1377 33.7319 77.9708 34.6619C76.8038 35.592 76.2335 37.0748 76.2335 39.1016C76.2335 41.0143 76.7863 42.3977 77.8918 43.2517C78.857 44.0063 80.9013 44.4187 82.9632 44.5064C83.2089 44.5152 83.4458 44.5152 83.6915 44.5064C83.9898 44.4976 84.2881 44.4801 84.5864 44.445C86.3233 44.294 88.0352 43.9316 89.6842 43.3658C89.7722 43.3368 89.8494 43.2819 89.9058 43.2084C89.9621 43.1348 89.995 43.0459 90 42.9534V33.2581H87.2976ZM87.2976 41.3302C87.2975 41.3662 87.2865 41.4013 87.2662 41.4311C87.2459 41.4608 87.2171 41.4837 87.1835 41.4969C85.0521 42.3027 82.7144 42.3829 80.5328 41.725C80.237 41.6282 79.9664 41.4671 79.7403 41.2532C79.5142 41.0393 79.3384 40.7779 79.2255 40.4879C79.0646 40.0317 78.9873 39.5502 78.9974 39.0665C78.9467 38.5648 79.0113 38.0583 79.1861 37.5854C79.361 37.1125 79.6415 36.6858 80.0064 36.3378C80.6732 35.785 81.8928 35.513 83.6388 35.513C84.0249 35.513 86.2974 35.706 87.1485 35.8025C87.1903 35.8089 87.2284 35.8301 87.2559 35.8624C87.2833 35.8946 87.2981 35.9357 87.2976 35.978V41.3302Z" fill="#25314C"/>
</g>
<defs>
<clipPath id="clip0">
<rect width="90" height="44.6697" fill="white"/>
</clipPath>
</defs>
</svg>
