<svg width="128" height="45" viewBox="0 0 128 45" fill="none" xmlns="http://www.w3.org/2000/svg">
<g clip-path="url(#clip0)">
<path d="M72.0826 22.5488C72.0929 23.9921 71.8493 25.4261 71.3628 26.7863C70.9063 28.0694 70.1994 29.2506 69.2826 30.2624C68.3449 31.2764 67.2002 32.0805 65.9247 32.6209C62.9963 33.7867 59.7277 33.7867 56.7994 32.6209C55.5194 32.0762 54.3694 31.2698 53.4245 30.2545C52.5001 29.2487 51.7923 28.0663 51.3443 26.7796C50.4061 24.0359 50.4061 21.0617 51.3443 18.318C51.7893 17.0243 52.4973 15.835 53.4245 14.824C54.3705 13.8119 55.5203 13.0083 56.7994 12.4654C59.7244 11.3007 62.9895 11.3007 65.9145 12.4654C67.191 13.0078 68.3362 13.8142 69.2735 14.8307C70.1968 15.8475 70.907 17.0364 71.3628 18.3281C71.8459 19.6834 72.0894 21.1113 72.0826 22.5488V22.5488ZM61.3671 30.0097C62.31 30.0344 63.2459 29.8422 64.1014 29.4481C64.8643 29.0787 65.5317 28.5408 66.0526 27.8758C66.5968 27.171 66.9952 26.3664 67.2251 25.5082C67.7377 23.573 67.7377 21.5392 67.2251 19.604C66.9961 18.7467 66.5993 17.9426 66.0571 17.2376C65.5362 16.5725 64.8688 16.0346 64.106 15.6652C63.2441 15.288 62.3125 15.0932 61.3705 15.0932C60.4286 15.0932 59.4969 15.288 58.6351 15.6652C57.8723 16.0346 57.2048 16.5725 56.6839 17.2376C56.1418 17.9426 55.7449 18.7467 55.516 19.604C55.0033 21.5392 55.0033 23.573 55.516 25.5082C55.747 26.3598 56.1442 27.1581 56.6851 27.8578C57.2055 28.5238 57.8735 29.0618 58.6373 29.4302C59.4915 29.83 60.4275 30.0276 61.3717 30.0074L61.3671 30.0097ZM74.8972 33.1196V11.9803H79.3756V22.1377L86.7648 11.9803H91.9471L84.1097 22.4253L92.4915 33.123H86.9572L79.3744 22.7431V33.123L74.8972 33.1196ZM94.2502 11.9803H107.051V15.5035H98.7297V20.6137H106.663V24.1369H98.7297V29.5975H107.143V33.1196H94.2513L94.2502 11.9803ZM122.997 11.9803H127.863L120.862 22.487L128 33.1196H123.107L118.507 25.9137L113.906 33.1196H108.999L116.129 22.4859L109.134 11.978H114L118.51 19.1233L122.997 11.9803Z" fill="white"/>
<path d="M20.2324 20.0779C21.8362 20.4676 23.511 20.4676 25.1148 20.0779C25.5626 18.2691 26.501 16.6166 27.8282 15.2996C29.1553 13.9825 30.8205 13.0513 32.6432 12.6069C33.0126 11.1076 33.0338 9.54468 32.7053 8.03609C32.3767 6.5275 31.707 5.11273 30.7467 3.89866C29.7864 2.6846 28.5606 1.70298 27.1619 1.02797C25.7633 0.352953 24.2283 0.00219727 22.673 0.00219727C21.1178 0.00219727 19.5828 0.352953 18.1842 1.02797C16.7855 1.70298 15.5597 2.6846 14.5994 3.89866C13.6391 5.11273 12.9694 6.5275 12.6408 8.03609C12.3123 9.54468 12.3335 11.1076 12.7029 12.6069C14.5257 13.0511 16.1912 13.9823 17.5186 15.2993C18.8459 16.6163 19.7845 18.269 20.2324 20.0779V20.0779Z" fill="#7ABDF7"/>
<path d="M25.1146 24.9207C23.5109 24.531 21.836 24.531 20.2323 24.9207C19.7841 26.7293 18.8456 28.3817 17.5185 29.6986C16.1914 31.0156 14.5263 31.9469 12.7038 32.3917C12.3345 33.891 12.3132 35.4539 12.6418 36.9625C12.9703 38.4711 13.6401 39.8859 14.6004 41.0999C15.5607 42.314 16.7865 43.2956 18.1851 43.9706C19.5838 44.6456 21.1187 44.9964 22.674 44.9964C24.2293 44.9964 25.7642 44.6456 27.1629 43.9706C28.5615 43.2956 29.7873 42.314 30.7476 41.0999C31.7079 39.8859 32.3777 38.4711 32.7062 36.9625C33.0348 35.4539 33.0136 33.891 32.6442 32.3917C30.8213 31.9475 29.1558 31.0163 27.8285 29.6993C26.5011 28.3822 25.5625 26.7296 25.1146 24.9207V24.9207Z" fill="#0D74F5"/>
<path d="M35.0834 12.3136C34.2612 12.3135 33.442 12.4116 32.6434 12.6057C32.1957 14.4142 31.2575 16.0665 29.9305 17.3833C28.6035 18.7002 26.9385 19.6312 25.1161 20.0755C24.7234 21.667 24.7234 23.3291 25.1161 24.9206C26.9385 25.3652 28.6035 26.2965 29.9305 27.6136C31.2574 28.9306 32.1956 30.583 32.6434 32.3916C34.0531 32.7333 35.5199 32.7745 36.9468 32.5124C38.3738 32.2503 39.7285 31.6909 40.9216 30.8711C42.1147 30.0512 43.1191 28.9897 43.8684 27.7564C44.6178 26.5231 45.0951 25.1461 45.2688 23.7164C45.4426 22.2866 45.3088 20.8365 44.8764 19.4618C44.4439 18.0871 43.7227 16.8191 42.7601 15.7413C41.7976 14.6635 40.6157 13.8005 39.2924 13.2093C37.9692 12.6181 36.5346 12.3121 35.0834 12.3114V12.3136Z" fill="#4494F7"/>
<path d="M20.2324 24.9208C20.6252 23.3292 20.6252 21.6672 20.2324 20.0756C18.4099 19.6313 16.7448 18.7003 15.4176 17.3835C14.0905 16.0666 13.152 14.4143 12.704 12.6058C11.1932 12.2392 9.61827 12.2181 8.09809 12.5442C6.5779 12.8702 5.15226 13.5349 3.92886 14.4878C2.70546 15.4408 1.7163 16.6573 1.03609 18.0453C0.355893 19.4332 0.00244141 20.9565 0.00244141 22.4999C0.00244141 24.0433 0.355893 25.5666 1.03609 26.9545C1.7163 28.3425 2.70546 29.559 3.92886 30.5119C5.15226 31.4649 6.5779 32.1296 8.09809 32.4556C9.61827 32.7816 11.1932 32.7606 12.704 32.394C13.1516 30.5849 14.0899 28.9319 15.417 27.6145C16.7442 26.2971 18.4095 25.3655 20.2324 24.9208V24.9208Z" fill="#005CF4"/>
<path d="M25.115 20.0779C26.9375 19.6332 28.6026 18.7018 29.9296 17.3848C31.2567 16.0679 32.1953 14.4155 32.6434 12.6069C30.8208 13.0513 29.1555 13.9826 27.8284 15.2996C26.5012 16.6166 25.5628 18.2691 25.115 20.0779V20.0779Z" fill="#186EF9"/>
<path d="M25.115 24.9208C25.5628 26.7295 26.5012 28.3821 27.8284 29.6991C29.1555 31.0161 30.8208 31.9474 32.6434 32.3918C32.1953 30.5832 31.2567 28.9308 29.9296 27.6138C28.6026 26.2969 26.9375 25.3655 25.115 24.9208V24.9208Z" fill="#0246F2"/>
<path d="M20.2323 20.0779C19.7841 18.2693 18.8456 16.617 17.5185 15.3C16.1914 13.983 14.5264 13.0517 12.7039 12.6069C13.152 14.4155 14.0905 16.0679 15.4176 17.3848C16.7447 18.7018 18.4098 19.6332 20.2323 20.0779V20.0779Z" fill="#0046F8"/>
<path d="M20.2323 24.9208C18.4098 25.3655 16.7447 26.2969 15.4176 27.6138C14.0905 28.9308 13.152 30.5832 12.7039 32.3918C14.5264 31.947 16.1914 31.0157 17.5185 29.6987C18.8456 28.3817 19.7841 26.7294 20.2323 24.9208V24.9208Z" fill="#0729F1"/>
<path d="M72.0826 22.5488C72.0929 23.9921 71.8493 25.4261 71.3628 26.7863C70.9063 28.0694 70.1994 29.2506 69.2826 30.2624C68.3449 31.2764 67.2002 32.0805 65.9247 32.6209C62.9963 33.7867 59.7277 33.7867 56.7994 32.6209C55.5194 32.0762 54.3694 31.2698 53.4245 30.2545C52.5001 29.2487 51.7923 28.0663 51.3443 26.7796C50.4061 24.0359 50.4061 21.0617 51.3443 18.318C51.7893 17.0243 52.4973 15.835 53.4245 14.824C54.3705 13.8119 55.5203 13.0083 56.7994 12.4654C59.7244 11.3007 62.9895 11.3007 65.9145 12.4654C67.191 13.0078 68.3362 13.8142 69.2735 14.8307C70.1968 15.8475 70.907 17.0364 71.3628 18.3281C71.8459 19.6834 72.0894 21.1113 72.0826 22.5488V22.5488ZM61.3671 30.0097C62.31 30.0344 63.2459 29.8422 64.1014 29.4481C64.8643 29.0787 65.5317 28.5408 66.0526 27.8758C66.5968 27.171 66.9952 26.3664 67.2251 25.5082C67.7377 23.573 67.7377 21.5392 67.2251 19.604C66.9961 18.7467 66.5993 17.9426 66.0571 17.2376C65.5362 16.5725 64.8688 16.0346 64.106 15.6652C63.2441 15.288 62.3125 15.0932 61.3705 15.0932C60.4286 15.0932 59.4969 15.288 58.6351 15.6652C57.8723 16.0346 57.2048 16.5725 56.6839 17.2376C56.1418 17.9426 55.7449 18.7467 55.516 19.604C55.0033 21.5392 55.0033 23.573 55.516 25.5082C55.747 26.3598 56.1442 27.1581 56.6851 27.8578C57.2055 28.5238 57.8735 29.0618 58.6373 29.4302C59.4915 29.83 60.4275 30.0276 61.3717 30.0074L61.3671 30.0097ZM74.8972 33.1196V11.9803H79.3756V22.1377L86.7648 11.9803H91.9471L84.1097 22.4253L92.4915 33.123H86.9572L79.3744 22.7431V33.123L74.8972 33.1196ZM94.2502 11.9803H107.051V15.5035H98.7297V20.6137H106.663V24.1369H98.7297V29.5975H107.143V33.1196H94.2513L94.2502 11.9803ZM122.997 11.9803H127.863L120.862 22.487L128 33.1196H123.107L118.507 25.9137L113.906 33.1196H108.999L116.129 22.4859L109.134 11.978H114L118.51 19.1233L122.997 11.9803Z" fill="black"/>
<path d="M20.2324 20.0779C21.8362 20.4676 23.511 20.4676 25.1148 20.0779C25.5626 18.2691 26.501 16.6166 27.8282 15.2996C29.1553 13.9825 30.8205 13.0513 32.6432 12.6069C33.0126 11.1076 33.0338 9.54468 32.7053 8.03609C32.3767 6.5275 31.707 5.11273 30.7467 3.89866C29.7864 2.6846 28.5606 1.70298 27.1619 1.02797C25.7633 0.352953 24.2283 0.00219727 22.673 0.00219727C21.1178 0.00219727 19.5828 0.352953 18.1842 1.02797C16.7855 1.70298 15.5597 2.6846 14.5994 3.89866C13.6391 5.11273 12.9694 6.5275 12.6408 8.03609C12.3123 9.54468 12.3335 11.1076 12.7029 12.6069C14.5257 13.0511 16.1912 13.9823 17.5186 15.2993C18.8459 16.6163 19.7845 18.269 20.2324 20.0779V20.0779Z" fill="#7ABDF7"/>
<path d="M25.1146 24.9207C23.5109 24.531 21.836 24.531 20.2323 24.9207C19.7841 26.7293 18.8456 28.3817 17.5185 29.6986C16.1914 31.0156 14.5263 31.9469 12.7038 32.3917C12.3345 33.891 12.3132 35.4539 12.6418 36.9625C12.9703 38.4711 13.6401 39.8859 14.6004 41.0999C15.5607 42.314 16.7865 43.2956 18.1851 43.9706C19.5838 44.6456 21.1187 44.9964 22.674 44.9964C24.2293 44.9964 25.7642 44.6456 27.1629 43.9706C28.5615 43.2956 29.7873 42.314 30.7476 41.0999C31.7079 39.8859 32.3777 38.4711 32.7062 36.9625C33.0348 35.4539 33.0136 33.891 32.6442 32.3917C30.8213 31.9475 29.1558 31.0163 27.8285 29.6993C26.5011 28.3822 25.5625 26.7296 25.1146 24.9207V24.9207Z" fill="#0D74F5"/>
<path d="M35.0834 12.3136C34.2612 12.3135 33.442 12.4116 32.6434 12.6057C32.1957 14.4142 31.2575 16.0665 29.9305 17.3833C28.6035 18.7002 26.9385 19.6312 25.1161 20.0755C24.7234 21.667 24.7234 23.3291 25.1161 24.9206C26.9385 25.3652 28.6035 26.2965 29.9305 27.6136C31.2574 28.9306 32.1956 30.583 32.6434 32.3916C34.0531 32.7333 35.5199 32.7745 36.9468 32.5124C38.3738 32.2503 39.7285 31.6909 40.9216 30.8711C42.1147 30.0512 43.1191 28.9897 43.8684 27.7564C44.6178 26.5231 45.0951 25.1461 45.2688 23.7164C45.4426 22.2866 45.3088 20.8365 44.8764 19.4618C44.4439 18.0871 43.7227 16.8191 42.7601 15.7413C41.7976 14.6635 40.6157 13.8005 39.2924 13.2093C37.9692 12.6181 36.5346 12.3121 35.0834 12.3114V12.3136Z" fill="#4494F7"/>
<path d="M20.2324 24.9208C20.6252 23.3292 20.6252 21.6672 20.2324 20.0756C18.4099 19.6313 16.7448 18.7003 15.4176 17.3835C14.0905 16.0666 13.152 14.4143 12.704 12.6058C11.1932 12.2392 9.61827 12.2181 8.09809 12.5442C6.5779 12.8702 5.15226 13.5349 3.92886 14.4878C2.70546 15.4408 1.7163 16.6573 1.03609 18.0453C0.355893 19.4332 0.00244141 20.9565 0.00244141 22.4999C0.00244141 24.0433 0.355893 25.5666 1.03609 26.9545C1.7163 28.3425 2.70546 29.559 3.92886 30.5119C5.15226 31.4649 6.5779 32.1296 8.09809 32.4556C9.61827 32.7816 11.1932 32.7606 12.704 32.394C13.1516 30.5849 14.0899 28.9319 15.417 27.6145C16.7442 26.2971 18.4095 25.3655 20.2324 24.9208V24.9208Z" fill="#005CF4"/>
<path d="M25.115 20.0779C26.9375 19.6332 28.6026 18.7018 29.9296 17.3848C31.2567 16.0679 32.1953 14.4155 32.6434 12.6069C30.8208 13.0513 29.1555 13.9826 27.8284 15.2996C26.5012 16.6166 25.5628 18.2691 25.115 20.0779V20.0779Z" fill="#186EF9"/>
<path d="M25.115 24.9208C25.5628 26.7295 26.5012 28.3821 27.8284 29.6991C29.1555 31.0161 30.8208 31.9474 32.6434 32.3918C32.1953 30.5832 31.2567 28.9308 29.9296 27.6138C28.6026 26.2969 26.9375 25.3655 25.115 24.9208V24.9208Z" fill="#0246F2"/>
<path d="M20.2323 20.0779C19.7841 18.2693 18.8456 16.617 17.5185 15.3C16.1914 13.983 14.5264 13.0517 12.7039 12.6069C13.152 14.4155 14.0905 16.0679 15.4176 17.3848C16.7447 18.7018 18.4098 19.6332 20.2323 20.0779V20.0779Z" fill="#0046F8"/>
<path d="M20.2323 24.9208C18.4098 25.3655 16.7447 26.2969 15.4176 27.6138C14.0905 28.9308 13.152 30.5832 12.7039 32.3918C14.5264 31.947 16.1914 31.0157 17.5185 29.6987C18.8456 28.3817 19.7841 26.7294 20.2323 24.9208V24.9208Z" fill="#0729F1"/>
</g>
<defs>
<clipPath id="clip0">
<rect width="128" height="45" fill="white"/>
</clipPath>
</defs>
</svg>
