<svg width="104" height="36" viewBox="0 0 104 36" fill="none" xmlns="http://www.w3.org/2000/svg">
<path fill-rule="evenodd" clip-rule="evenodd" d="M20.0509 5.89498C21.2824 4.40952 22.1107 2.3368 21.8853 0.272705C20.1148 0.350432 17.9704 1.45589 16.7009 2.94134C15.5634 4.26271 14.5651 6.36998 14.8371 8.39089C16.8028 8.53771 18.8237 7.38043 20.0509 5.89498ZM40.0069 23.3577L37.9688 29.5327H35.3494L42.0192 9.90225H45.0765L51.7723 29.5327H49.063L46.9661 23.3577H40.0069ZM44.5246 15.7232L46.4436 21.3713H40.5415L42.4605 15.6886C42.8388 14.4968 43.1575 13.2963 43.4503 12.1391H43.5055L43.567 12.3787C43.8394 13.4417 44.1174 14.5264 44.5246 15.7232ZM53.7595 20.0327C53.7595 18.2277 53.7042 16.7682 53.6403 15.4295H55.9419L56.0602 17.8563H56.1155C57.1648 16.1291 58.8247 15.11 61.1255 15.11C64.5351 15.11 67.0958 17.9945 67.0958 22.2782C67.0958 27.3477 64.0091 29.8522 60.6884 29.8522C58.8247 29.8522 57.1942 29.0318 56.3495 27.6413H56.2943V35.3018H53.7595V20.0327ZM56.4083 24.8432C56.3452 24.515 56.2899 24.1782 56.2899 23.7895L56.2943 21.38C56.2943 21.0345 56.3789 20.6545 56.4679 20.335C56.9688 18.4091 58.5993 17.1568 60.3447 17.1568C63.0531 17.1568 64.5394 19.5663 64.5394 22.3991C64.5394 25.6291 62.9641 27.84 60.2558 27.84C58.4171 27.84 56.8755 26.6136 56.4083 24.8432ZM69.7454 20.0327C69.7454 18.2277 69.6901 16.7682 69.6262 15.4295H71.9269L72.0461 17.8563H72.1014C73.1499 16.1291 74.8106 15.11 77.1114 15.11C80.521 15.11 83.0817 17.9945 83.0817 22.2782C83.0817 27.3477 79.9942 29.8522 76.6744 29.8522C74.8106 29.8522 73.1801 29.0318 72.3346 27.6413H72.2802V35.3018H69.7454V20.0327ZM72.3985 24.8432C72.3346 24.515 72.2802 24.1782 72.2802 23.7895L72.2836 21.38C72.2836 21.0345 72.3691 20.6545 72.4581 20.335C72.959 18.4091 74.5895 17.1568 76.3349 17.1568C79.0433 17.1568 80.5296 19.5663 80.5296 22.3991C80.5296 25.6291 78.9544 27.84 76.2451 27.84C74.4073 27.84 72.8657 26.6136 72.3985 24.8432ZM85.7348 8.84861H88.2998V29.5327H85.7348V8.84861ZM98.286 27.84C95.7253 27.84 93.5092 26.415 93.4539 22.9432H103.351L103.355 22.9166C103.389 22.6567 103.44 22.2605 103.44 21.7513C103.44 19.1604 102.217 15.11 97.615 15.11C93.5092 15.11 91.0038 18.4609 91.0038 22.7186C91.0038 26.9763 93.5982 29.8263 97.938 29.8263C100.18 29.8263 101.725 29.36 102.625 28.9541L102.188 27.1145C101.228 27.5204 100.12 27.84 98.286 27.84ZM100.969 21.1123C100.999 19.48 100.298 16.9495 97.4155 16.9495C94.8211 16.9495 93.688 19.3418 93.4842 21.1123H100.969ZM28.2681 12.2875C27.9531 12.4797 24.4391 14.6243 24.4805 18.9791C24.5314 24.2991 29.151 26.0695 29.2063 26.0868C29.2044 26.0927 29.201 26.1035 29.1963 26.1188C29.0976 26.437 28.386 28.7311 26.7734 31.0959C25.3044 33.2463 23.7844 35.3795 21.3852 35.4227C20.2343 35.4438 19.4642 35.1104 18.6637 34.7638C17.8256 34.4009 16.9541 34.0236 15.5773 34.0236C14.1366 34.0236 13.226 34.412 12.3485 34.7862C11.5862 35.1113 10.8489 35.4257 9.81077 35.4659C7.49277 35.5522 5.73527 33.1513 4.25327 31.0095C1.22622 26.6482 -1.08401 18.6595 2.01558 13.2877C3.55718 10.6104 6.31218 8.91771 9.30122 8.87452C10.5887 8.85006 11.8349 9.34409 12.9266 9.77689C13.7616 10.1079 14.5063 10.4032 15.11 10.4032C15.6514 10.4032 16.3764 10.1172 17.2215 9.7839C18.5497 9.26004 20.1744 8.61926 21.8481 8.78816C22.9942 8.83998 26.2129 9.25452 28.2848 12.2773C28.281 12.2796 28.2754 12.283 28.2681 12.2875Z" fill="black"/>
</svg>
