<svg width="141" height="39" viewBox="0 0 141 39" fill="none" xmlns="http://www.w3.org/2000/svg">
<path d="M81.7732 5.46332L89.6813 8.57323L81.7732 11.515V15.7176L95.3179 10.2543V6.89219L81.7732 1.42883V5.46332Z" fill="#BC04FF"/>
<path d="M9.17004 21.097C5.38424 21.097 2.60799 22.7781 2.3556 26.3083H6.56205V26.2242C6.64618 25.0475 7.73985 24.207 8.91766 24.291C10.5161 24.291 11.2733 25.2156 11.2733 26.8126V27.569H9.3383C5.21599 27.569 1.85083 28.8298 1.85083 32.7802V32.9483C1.85083 36.1423 4.20644 37.5712 7.06682 37.5712C8.83353 37.6552 10.432 36.8147 11.4415 35.4699V37.319H15.7321V26.7285C15.648 22.694 12.8717 21.097 9.17004 21.097ZM8.24462 34.4613C6.7303 34.4613 6.05727 33.7048 6.05727 32.6121V32.444C6.05727 31.0151 7.15095 30.4268 9.3383 30.4268H11.105V31.9397C11.1891 33.6208 9.75894 34.4613 8.24462 34.4613Z" fill="black"/>
<path d="M25.8276 34.2932C23.7244 34.2932 22.6307 32.8643 22.6307 29.6703V29.166C22.6307 26.0561 23.8926 24.5432 25.8276 24.5432C27.3419 24.5432 28.1832 25.5518 28.4356 27.0647H32.642C32.3055 22.9462 29.2769 21.097 25.7435 21.097C21.537 21.097 18.1719 23.9548 18.1719 29.3341V29.5022C18.1719 34.8815 21.3688 37.5712 25.7435 37.5712C30.034 37.5712 32.4738 34.9656 32.8103 31.4354H28.7721C28.4356 33.2005 27.3419 34.2932 25.8276 34.2932Z" fill="black"/>
<path d="M42.2326 34.2932C40.1294 34.2932 39.0357 32.8643 39.0357 29.6703V29.166C39.0357 26.0561 40.2977 24.5432 42.2326 24.5432C43.747 24.5432 44.5882 25.5518 44.8406 27.0647H49.0471C48.7106 22.9462 45.6819 21.097 42.1485 21.097C37.9421 21.097 34.5769 23.9548 34.5769 29.3341V29.5022C34.5769 34.8815 37.7738 37.5712 42.1485 37.5712C46.4391 37.5712 48.8788 34.9656 49.1312 31.4354H45.1771C44.9248 33.2005 43.747 34.2932 42.2326 34.2932Z" fill="black"/>
<path d="M58.8062 34.3772C56.8712 34.3772 55.6934 33.2845 55.5251 30.4268H65.7889V28.5776C65.7889 23.3664 62.5078 21.097 58.5538 21.097C54.2632 21.097 50.9822 24.0389 50.9822 29.3341V29.6703C50.9822 34.9656 54.0949 37.6552 58.6379 37.6552C62.7602 37.6552 65.2841 35.3858 65.7047 32.36H61.5824C61.4142 33.6208 60.1522 34.5453 58.8062 34.3772ZM58.5538 24.1229C60.3205 24.1229 61.4142 25.1315 61.4983 27.485H55.6093C55.9458 24.9634 57.2077 24.207 58.5538 24.1229Z" fill="black"/>
<path d="M77.735 21.097C75.7159 21.013 73.8651 22.0216 72.9396 23.7867V21.4332H68.5649V37.235H72.9396V27.569C72.9396 27.4009 72.9396 27.3169 72.9396 27.1488C73.0238 25.7199 74.2857 24.5432 75.7159 24.6272C77.3143 24.6272 78.0715 25.4677 78.0715 27.3169V37.235H82.5303V26.6444C82.5303 22.7781 80.5954 21.097 77.735 21.097Z" fill="black"/>
<path d="M90.775 32.1918V24.7112H93.8036V21.4332H90.775V16.6422L86.4003 18.4914V21.4332H84.4653V24.7112H86.3162V32.6961C86.3162 35.8901 87.9146 37.487 91.3639 37.487C92.2052 37.487 93.0465 37.403 93.8878 37.1508V33.7047C93.383 33.8728 92.8782 33.9569 92.3734 33.9569C91.3639 33.9569 90.775 33.3685 90.775 32.1918Z" fill="black"/>
<path d="M106.002 31.2673C106.002 31.4354 106.002 31.5194 106.002 31.6875C105.918 33.1164 104.656 34.2931 103.226 34.2091C101.628 34.2091 100.955 33.3686 100.955 31.5194V21.4332H96.4958V32.1078C96.4958 35.8061 98.5991 37.5712 101.459 37.5712C103.394 37.6552 105.161 36.6466 106.087 34.8815V37.2349H110.545V21.4332H106.087L106.002 31.2673Z" fill="black"/>
<path d="M118.117 24.291V21.3492H113.742V37.1509H118.117V28.9979C118.117 26.3923 119.884 25.4677 122.912 25.4677V21.097C120.725 21.097 118.79 22.3578 118.117 24.291Z" fill="black"/>
<path d="M139.065 28.4936C139.065 23.2824 135.784 21.097 131.83 21.097C127.539 21.097 124.258 24.0389 124.258 29.3341V29.6703C124.258 34.9656 127.371 37.6552 131.914 37.6552C136.036 37.6552 138.476 35.3858 138.981 32.36H134.859C134.522 33.7048 133.26 34.5453 131.914 34.4613C129.979 34.4613 128.801 33.3686 128.633 30.5108H138.897V28.4936H139.065ZM128.801 27.485C129.138 24.8794 130.4 24.1229 131.83 24.1229C133.597 24.1229 134.69 25.1315 134.774 27.485H128.801Z" fill="black"/>
</svg>
