<svg width="271" height="80" viewBox="0 0 271 80" fill="none" xmlns="http://www.w3.org/2000/svg">
<mask id="mask0" mask-type="alpha" maskUnits="userSpaceOnUse" x="0" y="0" width="271" height="80">
<rect width="271" height="79.4805" fill="#C4C4C4"/>
</mask>
<g mask="url(#mask0)">
<path d="M26 66.332C26 66.668 26.084 66.71 26.252 66.71H36.584C36.752 66.71 36.836 66.668 36.836 66.332C36.836 65.996 36.752 65.954 36.584 65.954H34.232C33.602 65.954 33.518 65.87 33.518 65.24V57.554C33.518 55.916 33.434 53.9 33.392 53.396L33.518 53.312C34.526 55.244 36.29 56.504 39.062 56.504C43.598 56.504 47 52.766 47 46.97C47 41.174 43.598 37.436 39.062 37.436C36.08 37.436 34.274 39.032 33.392 41.342L33.266 41.258C33.35 40.544 33.434 38.864 33.434 38.654C33.434 38.024 33.35 37.94 32.72 37.94H26.672C26.504 37.94 26.462 37.982 26.462 38.318C26.462 38.654 26.504 38.696 26.672 38.696H28.646C29.276 38.696 29.36 38.78 29.36 39.41V65.24C29.36 65.87 29.276 65.954 28.646 65.954H26.252C26.084 65.954 26 65.996 26 66.332ZM42.506 46.97C42.506 51.212 41.54 53.354 40.49 54.404C39.65 55.244 38.852 55.58 37.844 55.58C35.45 55.58 33.686 53.27 33.476 50.456V43.778C34.022 40.418 35.576 38.36 37.844 38.36C38.81 38.36 39.65 38.696 40.49 39.536C41.54 40.586 42.506 43.064 42.506 46.97Z" fill="black"/>
<path d="M52.0216 55.622C52.0216 55.958 52.1056 56 52.2736 56H62.2276C62.3956 56 62.4796 55.958 62.4796 55.622C62.4796 55.286 62.3956 55.244 62.2276 55.244H60.2956C59.6656 55.244 59.5816 55.16 59.5816 54.53V25.088C59.5816 24.458 59.4976 24.374 58.8676 24.374H52.7356C52.5676 24.374 52.4836 24.416 52.4836 24.752C52.4836 25.088 52.5676 25.13 52.7356 25.13H54.7096C55.3396 25.13 55.4236 25.214 55.4236 25.844V54.53C55.4236 55.16 55.3396 55.244 54.7096 55.244H52.2736C52.1056 55.244 52.0216 55.286 52.0216 55.622Z" fill="black"/>
<path d="M67.5071 51.254C67.5071 54.11 69.3971 56.504 73.6391 56.504C75.8651 56.504 77.6291 55.37 78.3011 53.396H78.4691C79.0151 55.118 80.6111 56.504 82.4591 56.504C83.6351 56.504 84.6011 56.21 85.5671 55.622C85.7351 55.496 85.3571 54.866 85.1471 54.992C84.7271 55.244 84.0551 55.454 83.5511 55.454C82.7111 55.454 82.2071 55.034 82.2071 53.69V44.072C82.2071 39.872 79.6871 37.436 74.5631 37.436C71.1611 37.436 68.6831 39.704 68.6831 41.762C68.6831 42.98 69.4811 44.03 70.4891 44.03C71.5391 44.03 72.2111 43.274 72.2111 42.392C72.2111 41.258 71.4131 40.88 71.4131 39.914C71.4131 39.074 72.4631 38.192 74.5631 38.192C76.6211 38.192 78.1331 39.452 78.1331 42.644V46.718C77.2091 46.298 76.0751 45.92 74.4791 45.92C70.0271 45.92 67.5071 47.852 67.5071 51.254ZM71.8751 51.254C71.8751 47.768 73.2191 46.634 75.2771 46.634C76.3691 46.634 77.4191 47.054 78.1331 47.516V51.17C77.8811 53.942 76.5371 55.58 74.8571 55.58C72.9251 55.58 71.8751 54.488 71.8751 51.254Z" fill="black"/>
<path d="M105.688 42.182C105.688 39.578 102.664 37.436 99.5137 37.436C94.2217 37.436 90.2737 41.384 90.2737 46.97C90.2737 52.472 94.2637 56.504 99.1777 56.504C102.244 56.504 104.638 54.362 105.898 51.926C105.982 51.716 105.394 51.38 105.268 51.59C104.05 53.606 102.328 55.58 99.8077 55.58C98.6317 55.58 97.4557 55.16 96.6997 54.404C95.4397 53.144 94.7677 51.044 94.7677 46.97C94.7677 42.896 95.4397 40.586 96.6997 39.326C97.4557 38.57 98.3377 38.192 99.5137 38.192C101.614 38.192 102.664 39.2 102.664 40.334C102.664 41.426 101.824 41.93 101.824 43.064C101.824 43.904 102.454 44.618 103.42 44.618C104.428 44.618 105.688 43.652 105.688 42.182Z" fill="black"/>
<path d="M111.604 46.97C111.604 52.472 115.594 56.504 120.508 56.504C123.826 56.504 126.556 54.362 127.69 51.926C127.774 51.716 127.186 51.38 127.06 51.59C125.884 53.564 123.868 55.58 121.138 55.58C119.962 55.58 118.786 55.16 118.03 54.404C116.77 53.144 116.098 51.044 116.098 46.97V46.214H127.312C127.816 46.214 127.984 46.088 127.984 45.542C127.984 41.426 125.296 37.436 120.508 37.436C115.804 37.436 111.604 41.384 111.604 46.97ZM120.256 38.15C121.096 38.15 121.936 38.444 122.524 39.032C123.574 40.082 123.91 41.678 123.91 45.038C123.91 45.458 123.742 45.5 123.154 45.5H116.056C116.056 42.728 116.434 40.502 117.778 39.158C118.45 38.486 119.458 38.15 120.256 38.15Z" fill="black"/>
<path d="M132.549 55.622C132.549 55.958 132.633 56 132.801 56H142.797C142.965 56 143.049 55.958 143.049 55.622C143.049 55.286 142.965 55.244 142.797 55.244H140.571C139.941 55.244 139.857 55.16 139.857 54.53V43.064C140.319 40.292 141.999 38.36 144.183 38.36C146.577 38.36 148.047 39.998 148.047 43.568V54.53C148.047 55.16 147.963 55.244 147.333 55.244H145.359C145.191 55.244 145.107 55.286 145.107 55.622C145.107 55.958 145.191 56 145.359 56H154.557C154.725 56 154.809 55.958 154.809 55.622C154.809 55.286 154.725 55.244 154.557 55.244H152.919C152.289 55.244 152.205 55.16 152.205 54.53V43.946C152.205 39.788 149.811 37.436 145.359 37.436C142.083 37.436 140.403 39.284 139.731 41.3L139.605 41.216C139.731 40.292 139.857 38.528 139.857 37.52V25.088C139.857 24.458 139.773 24.374 139.143 24.374H133.221C133.053 24.374 133.011 24.416 133.011 24.752C133.011 25.088 133.053 25.13 133.221 25.13H134.985C135.615 25.13 135.699 25.214 135.699 25.844V54.53C135.699 55.16 135.615 55.244 134.985 55.244H132.801C132.633 55.244 132.549 55.286 132.549 55.622Z" fill="black"/>
<path d="M178.281 46.97C178.281 41.426 174.333 37.436 169.041 37.436C163.749 37.436 159.801 41.426 159.801 46.97C159.801 52.472 163.791 56.504 169.041 56.504C174.291 56.504 178.281 52.472 178.281 46.97ZM164.295 46.97C164.295 42.896 164.967 40.586 166.227 39.326C166.983 38.57 167.865 38.192 169.041 38.192C170.217 38.192 171.099 38.57 171.855 39.326C173.115 40.586 173.787 42.896 173.787 46.97C173.787 51.044 173.115 53.354 171.855 54.614C171.099 55.37 170.217 55.748 169.041 55.748C167.865 55.748 166.983 55.37 166.227 54.614C164.967 53.354 164.295 51.044 164.295 46.97Z" fill="black"/>
<path d="M182.627 55.622C182.627 55.958 182.711 56 182.879 56H192.833C193.001 56 193.085 55.958 193.085 55.622C193.085 55.286 193.001 55.244 192.833 55.244H190.901C190.271 55.244 190.187 55.16 190.187 54.53V25.088C190.187 24.458 190.103 24.374 189.473 24.374H183.341C183.173 24.374 183.089 24.416 183.089 24.752C183.089 25.088 183.173 25.13 183.341 25.13H185.315C185.945 25.13 186.029 25.214 186.029 25.844V54.53C186.029 55.16 185.945 55.244 185.315 55.244H182.879C182.711 55.244 182.627 55.286 182.627 55.622Z" fill="black"/>
<path d="M198.155 46.97C198.155 52.766 201.557 56.504 206.093 56.504C209.075 56.504 210.881 54.908 211.763 52.598L211.889 52.682C211.847 53.354 211.721 54.992 211.721 55.286C211.721 55.916 211.805 56 212.435 56H218.441C218.609 56 218.693 55.958 218.693 55.622C218.693 55.286 218.609 55.244 218.441 55.244H216.509C215.879 55.244 215.795 55.16 215.795 54.53V25.088C215.795 24.458 215.711 24.374 215.081 24.374H208.949C208.781 24.374 208.697 24.416 208.697 24.752C208.697 25.088 208.781 25.13 208.949 25.13H210.923C211.553 25.13 211.637 25.214 211.637 25.844V36.386C211.637 38.024 211.721 40.124 211.763 40.544L211.637 40.628C210.629 38.738 208.865 37.436 206.093 37.436C201.557 37.436 198.155 41.174 198.155 46.97ZM202.649 46.97C202.649 43.064 203.615 40.586 204.665 39.536C205.505 38.696 206.345 38.36 207.311 38.36C209.705 38.36 211.469 40.67 211.679 43.484V50.162C211.133 53.522 209.579 55.58 207.311 55.58C206.345 55.58 205.505 55.244 204.665 54.404C203.615 53.354 202.649 50.876 202.649 46.97Z" fill="black"/>
<path d="M223.75 46.97C223.75 52.472 227.74 56.504 232.654 56.504C235.972 56.504 238.702 54.362 239.836 51.926C239.92 51.716 239.332 51.38 239.206 51.59C238.03 53.564 236.014 55.58 233.284 55.58C232.108 55.58 230.932 55.16 230.176 54.404C228.916 53.144 228.244 51.044 228.244 46.97V46.214H239.458C239.962 46.214 240.13 46.088 240.13 45.542C240.13 41.426 237.442 37.436 232.654 37.436C227.95 37.436 223.75 41.384 223.75 46.97ZM232.402 38.15C233.242 38.15 234.082 38.444 234.67 39.032C235.72 40.082 236.056 41.678 236.056 45.038C236.056 45.458 235.888 45.5 235.3 45.5H228.202C228.202 42.728 228.58 40.502 229.924 39.158C230.596 38.486 231.604 38.15 232.402 38.15Z" fill="black"/>
<path d="M245.016 55.622C245.016 55.958 245.1 56 245.268 56H255.558C255.726 56 255.81 55.958 255.81 55.622C255.81 55.286 255.726 55.244 255.558 55.244H253.08C252.45 55.244 252.366 55.16 252.366 54.53V44.492C252.912 40.208 254.676 38.36 256.146 38.36C256.818 38.36 257.196 38.822 257.196 39.41C257.196 40.208 256.482 40.586 256.482 41.72C256.482 42.644 257.196 43.358 258.246 43.358C259.422 43.358 260.64 42.308 260.64 40.67C260.64 38.99 259.254 37.436 257.07 37.436C254.676 37.436 252.912 39.158 252.324 41.636L252.198 41.552C252.198 40.922 252.282 39.284 252.282 38.864V38.654C252.282 38.024 252.198 37.94 251.568 37.94H245.52C245.352 37.94 245.268 37.982 245.268 38.318C245.268 38.654 245.352 38.696 245.52 38.696H247.494C248.124 38.696 248.208 38.78 248.208 39.41V54.53C248.208 55.16 248.124 55.244 247.494 55.244H245.268C245.1 55.244 245.016 55.286 245.016 55.622Z" fill="black"/>
<path fill-rule="evenodd" clip-rule="evenodd" d="M16.875 25.875H21V27.125H18.125V65.375H21V66.625H16.875V25.875Z" fill="black"/>
<path fill-rule="evenodd" clip-rule="evenodd" d="M270.625 66.625H266.5V65.375H269.375V27.125L266.5 27.125V25.875L270.625 25.875V66.625Z" fill="black"/>
</g>
</svg>
