<svg width="271" height="80" viewBox="0 0 271 80" fill="none" xmlns="http://www.w3.org/2000/svg">
<mask id="mask0" mask-type="alpha" maskUnits="userSpaceOnUse" x="0" y="0" width="271" height="80">
<rect width="271" height="79.4805" fill="#C4C4C4"/>
</mask>
<g mask="url(#mask0)">
<path d="M123.279 42.0445C122.525 42.0445 121.803 41.7412 121.27 41.2067C120.737 40.6723 120.436 39.9501 120.436 39.199C120.436 38.4478 120.737 37.7256 121.27 37.1912C121.803 36.6567 122.525 36.3534 123.279 36.3534C123.659 36.3389 124.037 36.4112 124.393 36.5412C124.748 36.6712 125.073 36.8878 125.346 37.1478C125.62 37.4078 125.837 37.7256 125.986 38.0723C126.133 38.4334 126.208 38.809 126.207 39.1845C126.207 39.5601 126.129 39.9356 125.981 40.2967C125.833 40.6434 125.616 40.9612 125.343 41.2356C125.07 41.4956 124.748 41.6979 124.393 41.8423C124.039 41.9867 123.659 42.059 123.279 42.0445Z" fill="black"/>
<path fill-rule="evenodd" clip-rule="evenodd" d="M249.699 52.228C249.699 56.3591 252.358 59.6091 255.825 59.6091C257.662 59.6091 259.652 58.4825 261.165 56.5613L261.312 56.3736V59.5947L267.88 58.5113L268.072 58.0636L267.438 57.9047C266.395 57.6013 266.168 57.168 266.168 55.4636V36.3679L259.021 38.679L260.067 38.9968L260.311 39.0546C261.117 39.2424 261.305 39.3435 261.305 40.9179V44.298L261.189 44.2546C260.243 43.8213 259.218 43.5902 258.178 43.5757C257.048 43.5757 255.929 43.7924 254.884 44.2257C253.841 44.6591 252.897 45.2946 252.105 46.1035C251.315 46.9124 250.694 47.8657 250.281 48.9202C249.866 49.9746 249.668 51.1013 249.699 52.228ZM254.917 50.798C254.917 46.5513 256.054 44.4857 258.404 44.4857C259.349 44.4857 261.302 45.208 261.297 47.3891V54.1491C261.266 54.8713 260.958 55.5502 260.439 56.0413C259.921 56.5469 259.23 56.8358 258.508 56.8358C256.294 56.8358 254.917 54.5247 254.917 50.798Z" fill="black"/>
<path d="M119.089 59.0891L119.165 58.6557L120.277 58.4824C120.487 58.468 120.683 58.3813 120.826 58.2224C120.968 58.0635 121.047 57.8613 121.044 57.6591V48.299C121.044 46.5368 120.235 46.089 119.531 45.8868L119.113 45.7857L125.898 43.5757V57.6302C125.892 57.8324 125.958 58.0346 126.087 58.1935C126.215 58.338 126.396 58.4535 126.595 58.4824L127.76 58.6702L127.836 59.1035L119.089 59.0891Z" fill="black"/>
<path fill-rule="evenodd" clip-rule="evenodd" d="M194.843 66.9613L194.766 67.3947L203.499 67.3802L203.423 66.9469L202.315 66.7736C202.104 66.7591 201.906 66.6724 201.763 66.5136C201.62 66.3547 201.542 66.1524 201.543 65.9358V59.0313L201.659 59.0746C202.521 59.4502 203.453 59.6235 204.392 59.5946C208.54 59.5946 212.76 56.8068 212.76 51.2746C212.76 47.1435 210.382 43.5757 206.92 43.5757C205.082 43.5757 203.228 44.7024 201.725 46.6235L201.578 46.7968V43.5757L194.756 45.8146L195.452 46.0024C196.189 46.219 196.722 47.2446 196.722 48.4435V65.9502C196.725 66.1669 196.645 66.3691 196.504 66.528C196.361 66.6724 196.164 66.7736 195.955 66.788L194.843 66.9613ZM202.412 47.0856C202.927 46.5801 203.613 46.2912 204.336 46.2623C206.55 46.2623 207.788 48.2556 207.798 51.9823C207.798 57.4134 205.758 58.6846 204.165 58.6846C203.466 58.6701 202.803 58.3668 202.315 57.8757C201.827 57.3701 201.551 56.7057 201.548 55.9979V49.0067C201.588 48.2845 201.896 47.5912 202.412 47.0856Z" fill="black"/>
<path d="M158.95 57.6447V49.1802C158.947 48.8336 158.873 48.4725 158.733 48.1547C158.593 47.8225 158.389 47.5336 158.135 47.288C157.881 47.0424 157.579 46.8547 157.25 46.7247C156.919 46.5947 156.566 46.5369 156.212 46.5369C155.544 46.5513 154.907 46.8258 154.433 47.3024C153.959 47.7791 153.685 48.4147 153.667 49.0791V57.6303C153.666 57.8325 153.735 58.0203 153.862 58.1792C153.991 58.3236 154.168 58.4247 154.365 58.4536L155.529 58.6414L155.606 59.0747H147.161L147.238 58.6414L148.099 58.4536C148.294 58.4247 148.47 58.3236 148.597 58.1792C148.726 58.0347 148.797 57.8325 148.797 57.6447V40.7158C148.798 40.3258 148.681 39.9358 148.461 39.618C148.243 39.3002 147.931 39.0402 147.569 38.8957L146.809 38.6069L153.716 36.3535V46.6958L153.867 46.4791C153.887 46.4502 155.835 43.5758 159.288 43.5758C160.479 43.6047 161.616 44.0813 162.471 44.9191C163.269 45.7424 163.751 47.2158 163.751 48.8336L163.786 57.6447C163.783 57.8469 163.854 58.0492 163.981 58.1936C164.109 58.3525 164.287 58.4392 164.482 58.4825L165.648 58.6558L165.724 59.0892H157.297L157.374 58.6558L158.235 58.4825C158.428 58.4536 158.606 58.3525 158.733 58.1936C158.86 58.0492 158.931 57.8614 158.932 57.6592" fill="black"/>
<path d="M100.61 37.798C100.613 37.5957 100.535 37.3935 100.392 37.2346C100.25 37.0757 100.054 36.9891 99.8428 36.9746L98.7306 36.7869L98.654 36.3535H108.25L108.166 36.7869L107.054 36.9746C106.844 36.9891 106.648 37.0757 106.505 37.2346C106.362 37.3935 106.284 37.5957 106.286 37.798V57.428C106.286 58.3525 107.497 58.208 107.497 58.208C110.955 58.208 113.099 56.908 115.418 51.8525L115.798 51.0291H116.882L115.912 59.0892H98.654L98.7306 58.6558L99.8428 58.4825C100.054 58.4681 100.25 58.3669 100.392 58.2225C100.535 58.0636 100.613 57.8614 100.61 57.6447V37.798Z" fill="black"/>
<path d="M173.712 59.609C172.543 59.5946 171.427 59.1179 170.606 58.2801C169.786 57.4568 169.326 56.3301 169.329 55.1601V46.2045H165.906L168.032 44.1245H168.754C168.83 44.1245 168.905 44.0956 168.975 44.0667C169.045 44.0378 169.108 43.9945 169.162 43.9512C169.214 43.8934 169.256 43.8356 169.285 43.7634C169.313 43.6912 169.326 43.6189 169.326 43.5323V41.6834L173.859 40.1812V44.1245H178.21L176.219 46.219H173.872V54.6112C173.872 56.7634 175.411 57.5434 176.446 57.5434C176.888 57.5434 177.323 57.4423 177.719 57.2401L177.778 57.2112L178.207 57.7168C176.969 58.8146 175.721 59.609 173.712 59.609Z" fill="black"/>
<path fill-rule="evenodd" clip-rule="evenodd" d="M229.985 50.1335L220.66 49.989C220.638 50.2057 220.628 50.4079 220.631 50.6246C220.665 54.4235 222.64 56.8646 225.659 56.8646C226.442 56.8791 227.216 56.6913 227.908 56.3302C228.6 55.9546 229.183 55.4202 229.605 54.7557L229.955 55.0591C228.636 58.1069 226.263 59.6235 222.88 59.6235C218.665 59.6235 215.488 56.3446 215.488 51.9535C215.488 47.129 219.143 43.5757 223.985 43.5757C228.27 43.5757 229.908 46.2335 230.014 48.6024C230.027 48.9201 230.02 49.8446 229.985 50.1335ZM223.508 44.558C221.91 44.558 220.896 45.8869 220.659 48.8336L220.655 48.9202L225.631 48.8769V48.8047C225.662 46.7825 225.341 45.7136 224.679 45.0347C224.528 44.8758 224.344 44.7602 224.143 44.6736C223.941 44.5869 223.725 44.5436 223.508 44.558Z" fill="black"/>
<path fill-rule="evenodd" clip-rule="evenodd" d="M246.909 50.1335L237.583 49.989C237.554 50.2057 237.538 50.4224 237.535 50.639C237.57 54.4379 239.543 56.8791 242.562 56.8791C243.35 56.8935 244.13 56.7202 244.826 56.3446C245.521 55.9691 246.109 55.4202 246.529 54.7557L246.878 55.0591C245.56 58.1069 243.186 59.6235 239.804 59.6235C235.589 59.6235 232.413 56.3446 232.413 51.9535C232.413 47.129 236.066 43.5757 240.909 43.5757C245.195 43.5757 246.833 46.2335 246.937 48.6024C246.951 48.9201 246.944 49.8446 246.909 50.1335ZM240.431 44.558C238.835 44.558 237.821 45.8869 237.583 48.8336L237.58 48.9202L242.554 48.8769V48.8047C242.586 46.7825 242.265 45.7136 241.602 45.0347C241.451 44.8758 241.269 44.7602 241.068 44.6736C240.866 44.5869 240.649 44.5436 240.431 44.558Z" fill="black"/>
<path d="M188.044 49.5124C185.982 48.7324 184.431 48.1257 184.431 46.5946C184.431 45.2079 185.403 44.399 186.806 44.399C187.495 44.399 188.172 44.5868 188.762 44.9479L191.369 48.7324L192.262 48.689L192.087 43.5757L190.407 44.1246C189.25 43.7779 188.047 43.5901 186.836 43.5757C183.131 43.5757 180.658 45.5401 180.658 48.5879C180.658 51.4046 182.786 52.4735 185.397 53.4702C187.317 54.2213 189.107 54.7702 189.107 56.7057C189.107 57.818 188.061 58.8869 186.359 58.8869C184.574 58.8869 183.647 58.0057 182.483 56.2868L181.526 54.2935L180.609 54.5246L180.286 58.5546C182.205 59.2335 184.226 59.5946 186.266 59.6091C190.863 59.6091 192.959 57.168 192.959 54.4957C192.952 51.4768 190.41 50.4802 188.044 49.5124Z" fill="black"/>
<path fill-rule="evenodd" clip-rule="evenodd" d="M140.427 56.1856H134.972C134.645 56.1568 134.34 56.0123 134.115 55.7812C133.89 55.5501 133.76 55.2323 133.751 54.9001C133.745 54.7267 133.773 54.5534 133.835 54.3945C133.896 54.2356 133.989 54.0912 134.109 53.9612C134.229 53.8312 134.374 53.7301 134.533 53.6579C134.693 53.6001 134.863 53.5567 135.038 53.5567H135.261C135.779 53.6579 136.306 53.7012 136.834 53.6867C140.975 53.6867 143.781 51.5345 143.781 48.4867C143.781 47.5912 143.633 46.9267 143.12 46.3489L145.019 44.6012L144.56 43.2578L141.31 44.6012C140.001 43.9223 138.547 43.5756 137.073 43.59C133.036 43.59 130.296 46.1756 130.296 48.9201C130.296 51.2745 131.632 52.589 133.584 53.2679V53.2967C131.566 53.889 129.717 55.2612 129.717 57.0956C129.717 58.7423 131.359 60.2157 133.381 60.4612C131.329 61.2412 129.309 62.1657 129.309 63.9857C129.309 66.2824 131.499 67.409 135.934 67.409C141.581 67.409 145.588 64.2601 145.588 60.5912C145.594 57.8468 143.475 56.1856 140.427 56.1856ZM135.453 45.511C135.603 45.2221 135.831 44.9766 136.111 44.8177C136.39 44.6443 136.712 44.5577 137.039 44.5577C138.326 44.5577 139.13 45.6555 139.13 48.7755C139.13 51.8955 138.528 52.9644 137.039 52.9644C135.78 52.9644 135.055 51.7222 135.055 48.7321C135.051 47.2877 135.132 46.1899 135.453 45.511ZM132.967 63.1044C132.967 64.9533 134.232 66.2244 136.387 66.2244H136.405C139.162 66.2244 142.377 64.8811 142.377 62.9455C142.377 61.1977 141.223 60.6633 138.782 60.5044H135.867C134.486 60.5044 132.967 61.7177 132.967 63.1044Z" fill="black"/>
<path d="M81.5993 47.7356H70.2344V36.3678L58.8636 25V36.3678V47.7356V59.1035H70.2344H81.5993H92.97L81.5993 47.7356Z" fill="#ED6D5B"/>
</g>
</svg>
