<svg width="230" height="82" viewBox="0 0 230 82" fill="none" xmlns="http://www.w3.org/2000/svg">
<mask id="mask0" mask-type="alpha" maskUnits="userSpaceOnUse" x="0" y="0" width="230" height="82">
<rect width="230" height="82" fill="#E43B3B"/>
</mask>
<g mask="url(#mask0)">
</g>
<g clip-path="url(#clip0)">
<path fill-rule="evenodd" clip-rule="evenodd" d="M112.96 41.1791H110.267V20.9854H112.96V29.242C113.287 28.8909 113.566 28.5398 113.893 28.2372C114.867 27.3402 116.114 26.7946 117.435 26.6875C118.454 26.557 119.49 26.6733 120.455 27.0265C121.083 27.2599 121.643 27.6436 122.087 28.1439C122.531 28.6443 122.845 29.2458 123.002 29.8958C123.207 30.6325 123.305 31.395 123.293 32.1597V40.9975C123.299 41.0619 123.299 41.1267 123.293 41.1912H120.564V32.5713C120.588 32.01 120.514 31.4488 120.346 30.9127C120.18 30.4102 119.867 29.9688 119.448 29.6452C119.029 29.3215 118.522 29.1305 117.993 29.0967C117.028 28.94 116.038 29.0781 115.152 29.4929C114.267 29.9077 113.528 30.5798 113.032 31.4212C112.977 31.5209 112.952 31.6344 112.96 31.7481V41.1791V41.1791Z" fill="#7D7D7D"/>
<path d="M113.117 41.3366H110.109V20.8281H113.105V28.8427C113.323 28.6005 113.53 28.3705 113.748 28.1647C114.75 27.2438 116.03 26.6816 117.387 26.5666C118.427 26.441 119.482 26.5612 120.467 26.9177C121.124 27.1579 121.711 27.555 122.178 28.0741C122.646 28.5933 122.978 29.2188 123.148 29.8959C123.364 30.6431 123.466 31.4186 123.451 32.1962V41.0339C123.451 41.0339 123.451 41.1187 123.451 41.155V41.3729H120.419V32.5715C120.439 32.0262 120.365 31.4815 120.2 30.9613C120.046 30.4829 119.751 30.0625 119.352 29.7555C118.954 29.4486 118.471 29.2696 117.969 29.2422C117.025 29.0905 116.056 29.2266 115.191 29.6326C114.326 30.0387 113.603 30.6958 113.117 31.5182C113.117 31.5182 113.117 31.6029 113.117 31.7482V41.3366V41.3366ZM110.413 41.0339H112.838V31.7482C112.831 31.6046 112.865 31.4619 112.935 31.3366C113.452 30.478 114.211 29.7905 115.117 29.3599C116.023 28.9292 117.036 28.7746 118.029 28.9153C118.576 28.9645 119.097 29.1716 119.527 29.5113C119.958 29.851 120.281 30.3086 120.455 30.8281C120.628 31.3842 120.706 31.9654 120.685 32.5473V41.0218H123.111V32.1477C123.14 31.3886 123.054 30.6295 122.856 29.8959C122.711 29.2719 122.414 28.6934 121.991 28.2118C121.568 27.7302 121.032 27.3605 120.431 27.1356C119.49 26.7889 118.479 26.6727 117.484 26.7967C116.193 26.9073 114.977 27.444 114.027 28.3221C113.805 28.5282 113.594 28.7464 113.396 28.9758L113.105 29.3027L112.838 29.5933V21.1187H110.413V41.0339Z" fill="#7D7D7D"/>
<path fill-rule="evenodd" clip-rule="evenodd" d="M128.072 34.8716C128.149 35.7372 128.466 36.5644 128.986 37.2612C129.506 37.958 130.21 38.497 131.019 38.8183C132.083 39.2306 133.239 39.3518 134.366 39.1694C135.62 39.0404 136.827 38.6262 137.896 37.9588C137.896 38.0314 137.896 38.0919 137.896 38.1404C137.896 38.7699 137.896 39.351 137.896 40.0169C137.9 40.0784 137.887 40.1399 137.856 40.1937C137.826 40.2475 137.781 40.2913 137.726 40.3195C136.784 40.8655 135.739 41.2117 134.657 41.3365C133.237 41.5668 131.783 41.4589 130.412 41.0217C129.143 40.6654 128.002 39.956 127.121 38.9763C126.241 37.9966 125.657 36.7871 125.44 35.489C125.137 34.066 125.234 32.5872 125.719 31.2154C126.078 30.1482 126.706 29.1911 127.543 28.4363C128.38 27.6815 129.397 27.1543 130.497 26.9055C132.133 26.429 133.884 26.5403 135.446 27.2203C136.343 27.6128 137.132 28.2166 137.744 28.9798C138.357 29.743 138.775 30.6431 138.963 31.6028C139.157 32.5958 139.194 33.613 139.072 34.6174C139.072 34.8232 138.975 34.8837 138.769 34.8837H128.072V34.8716ZM136.562 32.9103C136.597 32.2991 136.487 31.6881 136.243 31.1267C135.998 30.5653 135.624 30.0691 135.152 29.6781C134.68 29.2871 134.123 29.0121 133.525 28.8754C132.927 28.7387 132.306 28.744 131.71 28.891C130.966 29.0165 130.27 29.3437 129.699 29.8368C129.128 30.33 128.703 30.9702 128.472 31.6876C128.342 32.0852 128.232 32.4893 128.144 32.8982L136.562 32.9103Z" fill="#7D7D7D"/>
<path d="M133.214 41.6271C132.271 41.6338 131.333 41.4865 130.437 41.1912C129.144 40.8242 127.983 40.0996 127.086 39.1013C126.188 38.103 125.593 36.8716 125.367 35.5496C125.059 34.0987 125.156 32.5912 125.646 31.1912C126.004 30.0984 126.639 29.1164 127.489 28.3402C128.339 27.564 129.375 27.0198 130.497 26.7602C132.166 26.2764 133.951 26.3921 135.543 27.0871C136.47 27.4791 137.287 28.0926 137.922 28.8737C138.556 29.6548 138.989 30.5795 139.181 31.5665C139.382 32.5751 139.419 33.6093 139.29 34.6295C139.295 34.6863 139.286 34.7434 139.265 34.7964C139.245 34.8494 139.212 34.8969 139.17 34.9354C139.128 34.9739 139.077 35.0024 139.023 35.0186C138.968 35.0348 138.91 35.0384 138.854 35.029H128.302C128.398 35.8337 128.711 36.5971 129.209 37.2371C129.707 37.877 130.371 38.3693 131.128 38.661C132.167 39.073 133.299 39.1944 134.403 39.012C135.633 38.8785 136.815 38.4642 137.859 37.8014L138.066 37.6803V37.9103C138.07 37.9789 138.07 38.0476 138.066 38.1162V39.9927C138.077 40.0785 138.06 40.1657 138.019 40.2417C137.978 40.3178 137.913 40.3789 137.835 40.4164C136.874 40.9837 135.803 41.3425 134.694 41.4697C134.205 41.5553 133.71 41.6078 133.214 41.6271V41.6271ZM132.656 26.7723C131.948 26.7794 131.243 26.8729 130.558 27.0508C129.486 27.3019 128.498 27.8251 127.688 28.5696C126.879 29.3141 126.276 30.2546 125.937 31.3002C125.454 32.6427 125.353 34.0928 125.646 35.489C125.857 36.7574 126.426 37.9397 127.285 38.8979C128.144 39.8561 129.258 40.5507 130.497 40.9007C131.845 41.3282 133.273 41.436 134.67 41.2154C135.736 41.0973 136.765 40.7548 137.69 40.2106C137.762 40.2106 137.787 40.1379 137.774 40.0411V38.2372C136.736 38.8348 135.583 39.2061 134.391 39.3268C133.238 39.513 132.055 39.3833 130.97 38.9515C130.139 38.6203 129.416 38.0662 128.881 37.3505C128.346 36.6347 128.02 35.7852 127.938 34.8958V34.7263H138.793C138.914 34.7263 138.915 34.7263 138.927 34.5932C139.052 33.6096 139.02 32.6123 138.83 31.6392C138.649 30.702 138.241 29.823 137.643 29.0784C137.045 28.3337 136.274 27.7458 135.397 27.3655C134.538 26.97 133.602 26.7675 132.656 26.7723V26.7723ZM136.683 33.0677H127.902V32.874C127.902 32.753 127.902 32.6198 127.999 32.4866C128.059 32.1998 128.136 31.9168 128.229 31.6392C128.466 30.8938 128.906 30.2286 129.499 29.7178C130.092 29.2069 130.816 28.8704 131.589 28.7457C132.26 28.5866 132.961 28.5962 133.628 28.7737C134.294 28.9512 134.906 29.291 135.409 29.7626C135.823 30.1721 136.145 30.6643 136.354 31.2068C136.563 31.7494 136.654 32.3299 136.622 32.9103L136.683 33.0677ZM128.29 32.7651H136.38C136.392 32.2487 136.298 31.7353 136.104 31.2565C135.91 30.7777 135.62 30.3435 135.252 29.9806C134.736 29.5382 134.121 29.2276 133.458 29.0753C132.796 28.923 132.106 28.9337 131.448 29.1064C130.791 29.2791 130.185 29.6086 129.684 30.0667C129.182 30.5248 128.8 31.0977 128.569 31.736C128.478 32.0062 128.401 32.281 128.338 32.5593C128.326 32.6319 128.302 32.6924 128.29 32.7651V32.7651Z" fill="#7D7D7D"/>
<path fill-rule="evenodd" clip-rule="evenodd" d="M150.837 26.9297H153.541V35.6464C153.51 36.3272 153.635 37.0062 153.905 37.6319C154.112 38.0317 154.417 38.3718 154.793 38.6199C155.169 38.8679 155.603 39.0154 156.052 39.0483C156.98 39.1714 157.924 39.0048 158.753 38.5712C159.583 38.1377 160.258 37.4586 160.685 36.627C160.71 36.5318 160.71 36.4317 160.685 36.3365V26.9297H163.402V41.167H160.867V38.6609L160.649 38.9515C160.245 39.5737 159.721 40.1087 159.106 40.5246C158.491 40.9406 157.799 41.229 157.071 41.3728C155.784 41.6551 154.44 41.5017 153.25 40.937C152.665 40.6521 152.158 40.2303 151.772 39.7075C151.385 39.1847 151.131 38.5765 151.031 37.9345C150.916 37.3359 150.855 36.7281 150.849 36.1186C150.849 33.1403 150.849 30.1621 150.849 27.1718C150.825 27.0871 150.837 27.0144 150.837 26.9297Z" fill="#7D7D7D"/>
<path d="M155.725 41.6272C154.838 41.6335 153.962 41.4346 153.165 41.0461C152.562 40.7519 152.038 40.3165 151.639 39.7769C151.24 39.2373 150.977 38.6095 150.873 37.9468C150.753 37.3364 150.688 36.7165 150.679 36.0945C150.679 33.8669 150.679 31.6272 150.679 29.3875V26.7725H153.663V29.339C153.663 31.4335 153.663 33.54 153.663 35.6466C153.628 36.3068 153.748 36.966 154.014 37.5715C154.205 37.9514 154.493 38.2744 154.848 38.5082C155.204 38.7419 155.615 38.8782 156.04 38.9032C156.254 38.9208 156.469 38.9208 156.683 38.9032C157.477 38.8661 158.248 38.6233 158.92 38.1988C159.592 37.7743 160.142 37.1826 160.515 36.4819C160.528 36.4099 160.528 36.336 160.515 36.264C160.515 33.2374 160.515 30.2107 160.515 27.1841V26.7846H163.535V41.3124H160.818V39.0122C159.973 40.2671 158.665 41.1376 157.18 41.4335C156.702 41.5435 156.215 41.6084 155.725 41.6272V41.6272ZM150.982 27.0993V29.3875C150.982 31.6272 150.982 33.8548 150.982 36.0945C150.992 36.6964 151.057 37.2961 151.176 37.8863C151.269 38.5058 151.51 39.0937 151.879 39.5998C152.249 40.1058 152.736 40.5148 153.299 40.7918C154.465 41.334 155.778 41.4786 157.034 41.2035C157.742 41.0622 158.414 40.7818 159.011 40.3786C159.609 39.9753 160.12 39.4573 160.515 38.8548L160.637 38.6853L160.806 38.4553L161.061 38.5763V40.9976H163.244V27.0872H160.818V27.2204C160.818 30.247 160.818 33.2737 160.818 36.3003C160.827 36.4284 160.806 36.5567 160.758 36.6756C160.361 37.4264 159.773 38.0598 159.054 38.5124C158.334 38.965 157.508 39.2209 156.658 39.2543C156.428 39.2723 156.197 39.2723 155.967 39.2543C155.493 39.2196 155.036 39.0632 154.641 38.8001C154.246 38.537 153.925 38.1763 153.711 37.7531C153.428 37.1052 153.3 36.4008 153.335 35.695C153.335 33.5884 153.335 31.4819 153.335 29.3875V27.0751L150.982 27.0993Z" fill="#7D7D7D"/>
<path fill-rule="evenodd" clip-rule="evenodd" d="M108.157 30.2106C107.79 29.9734 107.41 29.7591 107.017 29.5689C106.236 29.1981 105.388 28.9916 104.524 28.9625C103.66 28.9333 102.799 29.0821 101.995 29.3995C101.321 29.6564 100.723 30.0818 100.26 30.635C99.7976 31.1883 99.4846 31.8508 99.3515 32.5593C99.0321 33.8075 99.1127 35.1243 99.5819 36.3244C99.8424 37.0216 100.284 37.6369 100.862 38.1071C101.439 38.5774 102.132 38.8856 102.869 38.9999C103.775 39.2122 104.717 39.2268 105.629 39.043C106.542 38.8591 107.404 38.4811 108.157 37.9346L108.363 37.8135V38.0314C108.363 38.6852 108.363 39.351 108.363 40.0048C108.366 40.063 108.353 40.1211 108.325 40.1724C108.298 40.2237 108.256 40.2663 108.205 40.2953C107.111 40.9804 105.857 41.3724 104.567 41.4334C103.159 41.5699 101.739 41.3449 100.443 40.7796C99.0096 40.1394 97.8555 39.0046 97.1926 37.5835C96.5026 36.0684 96.2789 34.383 96.5498 32.7409C96.6823 31.5878 97.099 30.4856 97.7627 29.5326C98.7237 28.1519 100.177 27.1904 101.826 26.845C103.46 26.4444 105.174 26.5073 106.774 27.0266C107.238 27.2136 107.684 27.4404 108.108 27.7045C108.165 27.7507 108.203 27.8148 108.217 27.8861V30.1864L108.157 30.2106Z" fill="#7D7D7D"/>
<path d="M103.815 41.6149C102.632 41.6392 101.46 41.3993 100.382 40.9127C98.9157 40.2549 97.7329 39.0956 97.047 37.644C96.3687 36.1257 96.1413 34.4449 96.3921 32.8014C96.5188 31.6245 96.9355 30.4974 97.605 29.5205C98.5814 28.096 100.064 27.0961 101.753 26.7239C103.417 26.3302 105.157 26.3971 106.786 26.9176C107.128 27.0429 107.457 27.201 107.769 27.3897L108.145 27.6077C108.199 27.6405 108.244 27.6865 108.276 27.7416C108.308 27.7967 108.325 27.8589 108.327 27.9224C108.327 28.552 108.327 29.1331 108.327 29.811V30.1258V30.3316H108.084L107.744 30.1258C107.5 29.9697 107.245 29.8321 106.98 29.7142C106.224 29.3614 105.405 29.1656 104.571 29.1385C103.737 29.1115 102.906 29.2538 102.129 29.5568C101.477 29.8009 100.898 30.2088 100.45 30.7411C100.002 31.2734 99.6986 31.9121 99.5698 32.5955C99.2731 33.8004 99.3492 35.0667 99.7881 36.2275C100.046 36.897 100.475 37.4874 101.032 37.9399C101.59 38.3923 102.257 38.691 102.966 38.8062C103.854 39.0088 104.774 39.0207 105.667 38.8412C106.56 38.6617 107.405 38.2949 108.145 37.765L108.266 37.6803L108.569 37.4987V37.7529C108.574 37.8295 108.574 37.9064 108.569 37.983V39.9442C108.576 40.0312 108.558 40.1184 108.517 40.1955C108.476 40.2727 108.415 40.3367 108.339 40.3801C107.217 41.1036 105.925 41.521 104.591 41.5907L103.815 41.6149ZM104.033 26.7723C103.302 26.7745 102.574 26.8598 101.862 27.0265C100.237 27.3578 98.8001 28.2979 97.8475 29.6537C97.1891 30.5869 96.7724 31.6683 96.6347 32.8014C96.3759 34.3989 96.5953 36.0372 97.2654 37.5108C97.9166 38.9004 99.0435 40.0123 100.443 40.6464C101.484 41.1083 102.615 41.3356 103.754 41.3123H104.494C105.782 41.2586 107.035 40.875 108.132 40.1985C108.163 40.1832 108.188 40.1585 108.203 40.1279C108.219 40.0973 108.224 40.0626 108.217 40.029V38.0798C107.447 38.6279 106.568 39.0063 105.639 39.1899C104.711 39.3736 103.754 39.3584 102.832 39.1452C102.073 39.0244 101.359 38.7055 100.763 38.2208C100.166 37.7361 99.7087 37.1028 99.4363 36.3849C98.957 35.1533 98.8764 33.8026 99.2059 32.5229C99.3427 31.792 99.6656 31.1085 100.144 30.5382C100.621 29.9679 101.238 29.5298 101.935 29.2662C102.757 28.9411 103.638 28.7874 104.522 28.8144C105.407 28.8415 106.276 29.0488 107.077 29.4236C107.354 29.5496 107.622 29.6953 107.878 29.8595L108.023 29.9563V29.811C108.023 29.1815 108.023 28.6004 108.023 27.9224L107.647 27.7166C107.35 27.5368 107.037 27.3829 106.713 27.2566C105.839 26.9526 104.922 26.7892 103.997 26.7723H104.033Z" fill="#7D7D7D"/>
<path fill-rule="evenodd" clip-rule="evenodd" d="M143.839 41.1791H141.146V26.9297H143.839V29.351C143.876 29.2931 143.908 29.2324 143.936 29.1694C144.129 28.6583 144.424 28.1919 144.803 27.7985C145.183 27.405 145.639 27.093 146.143 26.8813C147.008 26.5376 147.971 26.5376 148.836 26.8813C148.865 26.8981 148.891 26.9206 148.912 26.9477C148.933 26.9747 148.948 27.0057 148.957 27.0387C148.957 27.8619 148.957 28.6731 148.957 29.46C148.447 29.3631 147.95 29.2421 147.453 29.1936C146.95 29.1359 146.441 29.2017 145.97 29.3853C145.498 29.5689 145.079 29.8646 144.748 30.2469C144.51 30.5093 144.291 30.7884 144.093 31.0823C143.89 31.391 143.784 31.7538 143.79 32.1234C143.79 35.029 143.79 37.9426 143.79 40.8643L143.839 41.1791Z" fill="#7D7D7D"/>
<path d="M143.936 41.3245H140.952V26.7966H143.924V28.77C144.354 27.8514 145.117 27.1292 146.058 26.7482C146.957 26.3854 147.961 26.3854 148.86 26.7482C148.921 26.7715 148.974 26.8108 149.015 26.8619C149.055 26.913 149.081 26.9741 149.09 27.0387V29.6659H148.908L148.447 29.5811C148.096 29.5085 147.768 29.4358 147.429 29.3995C146.949 29.3458 146.463 29.4092 146.013 29.5842C145.563 29.7592 145.162 30.0407 144.845 30.4044C144.615 30.6631 144.404 30.9382 144.215 31.2276C144.02 31.5075 143.922 31.8434 143.936 32.184C143.936 34.3995 143.936 36.615 143.936 38.8305V41.3245ZM141.255 41.0218H143.681V38.7942C143.681 36.5787 143.681 34.3632 143.681 32.1477C143.664 31.7468 143.779 31.3514 144.008 31.0218C144.207 30.7175 144.43 30.43 144.675 30.1622C145.021 29.769 145.455 29.4639 145.942 29.2723C146.43 29.0806 146.956 29.008 147.477 29.0605C147.832 29.1014 148.184 29.162 148.532 29.2421H148.811V27.0751C147.988 26.736 147.063 26.736 146.24 27.0751C145.751 27.2756 145.309 27.5749 144.942 27.954C144.575 28.3332 144.29 28.7841 144.105 29.2785L144.033 29.4237L143.948 29.5932L143.705 29.5085V29.3874V27.0872H141.34L141.255 41.0218Z" fill="#7D7D7D"/>
<path fill-rule="evenodd" clip-rule="evenodd" d="M169.187 38.9636V41.1791H166.495V20.9854H169.175V29.242L169.308 29.0604C169.911 28.2539 170.706 27.6102 171.621 27.1874C172.536 26.7646 173.542 26.5762 174.548 26.6391C175.858 26.6542 177.13 27.0775 178.186 27.8498C179.612 28.871 180.579 30.4099 180.879 32.1355C181.286 33.9287 181.103 35.8053 180.357 37.4866C179.94 38.4163 179.313 39.2376 178.526 39.8867C177.74 40.5358 176.813 40.9952 175.82 41.2294C174.827 41.4635 173.792 41.4661 172.798 41.2369C171.803 41.0078 170.875 40.553 170.085 39.9079C169.83 39.6657 169.527 39.3147 169.187 38.9636ZM169.187 34.1209C169.187 34.8473 169.187 35.5737 169.187 36.3001C169.187 36.4054 169.212 36.5092 169.26 36.6028C169.592 37.1105 170.001 37.5637 170.473 37.9466C171.499 38.7697 172.798 39.1761 174.111 39.0846C175.009 39.0374 175.871 38.7177 176.582 38.1682C177.293 37.6186 177.819 36.8655 178.089 36.0096C178.379 35.0115 178.454 33.9634 178.308 32.9345C178.244 32.2949 178.042 31.6766 177.717 31.1218C177.392 30.567 176.95 30.0888 176.423 29.7199C175.896 29.351 175.295 29.1 174.661 28.9841C174.028 28.8682 173.377 28.8901 172.753 29.0483C172.051 29.1941 171.387 29.4849 170.804 29.9018C170.222 30.3188 169.733 30.8528 169.369 31.4696C169.223 31.6788 169.146 31.9288 169.151 32.1839C169.199 32.8377 169.187 33.5277 169.187 34.1573V34.1209Z" fill="#7D7D7D"/>
<path d="M174.293 41.6151C172.752 41.6177 171.26 41.0727 170.085 40.0775C169.842 39.864 169.611 39.6377 169.393 39.3996V39.339V41.3366H166.398V20.8281H169.308V28.879C169.9 28.1054 170.667 27.4827 171.546 27.0618C172.425 26.641 173.391 26.4339 174.366 26.4577H174.572C175.925 26.4596 177.244 26.8828 178.344 27.6683C179.8 28.7163 180.791 30.2875 181.109 32.0509C181.519 33.8742 181.328 35.7809 180.564 37.4867C180.135 38.5605 179.428 39.5015 178.517 40.214C177.605 40.9265 176.52 41.3848 175.373 41.5424C175.015 41.5895 174.654 41.6138 174.293 41.6151V41.6151ZM169.029 38.6005L169.296 38.8669L169.612 39.1937C169.822 39.4238 170.044 39.6421 170.279 39.8475C170.973 40.4383 171.79 40.8693 172.67 41.1099C173.551 41.3505 174.473 41.3949 175.373 41.2398C176.464 41.0965 177.499 40.67 178.373 40.003C179.248 39.336 179.932 38.4517 180.357 37.4383C181.093 35.7839 181.271 33.9362 180.867 32.172C180.567 30.4879 179.623 28.9861 178.235 27.9831C177.18 27.2072 175.907 26.7835 174.596 26.7724C173.61 26.7133 172.624 26.9043 171.731 27.3276C170.839 27.751 170.068 28.3929 169.49 29.1937L169.393 29.3148L169.272 29.4722L169.078 29.3632V29.2543V21.1308H166.652V41.0339H169.078L169.029 38.6005ZM173.796 39.2785C172.557 39.2856 171.354 38.857 170.4 38.0678C169.923 37.6764 169.514 37.2102 169.187 36.6877C169.123 36.5679 169.086 36.4358 169.078 36.3003V33.5279C169.078 33.0799 169.078 32.632 169.078 32.172C169.064 31.8875 169.145 31.6064 169.308 31.3729C169.693 30.7519 170.202 30.2165 170.803 29.8C171.404 29.3834 172.084 29.0947 172.801 28.9516C173.446 28.79 174.117 28.769 174.77 28.8899C175.423 29.0108 176.043 29.2709 176.586 29.6524C177.129 30.0338 177.584 30.5278 177.919 31.1004C178.253 31.6731 178.461 32.3111 178.526 32.971C178.683 34.0196 178.609 35.0898 178.308 36.1066C178.026 36.9954 177.477 37.7759 176.734 38.3414C175.992 38.9069 175.093 39.23 174.16 39.2664L173.796 39.2785ZM173.905 29.1211C173.539 29.1225 173.173 29.159 172.813 29.2301C172.132 29.3685 171.487 29.6466 170.92 30.0467C170.352 30.4468 169.873 30.9602 169.515 31.5545C169.385 31.7382 169.321 31.9598 169.333 32.1841C169.333 32.632 169.333 33.0921 169.333 33.54V36.3366C169.317 36.4084 169.317 36.4827 169.333 36.5545C169.664 37.0526 170.073 37.4942 170.545 37.862C171.452 38.5999 172.59 38.9944 173.76 38.9758H174.16C175.03 38.9256 175.863 38.6077 176.545 38.0658C177.227 37.5238 177.724 36.7845 177.968 35.9492C178.251 34.9746 178.321 33.9508 178.174 32.9468C178.084 31.958 177.656 31.0303 176.961 30.3197C176.561 29.9227 176.083 29.6117 175.557 29.4056C175.032 29.1995 174.469 29.1027 173.905 29.1211V29.1211Z" fill="#7D7D7D"/>
<path fill-rule="evenodd" clip-rule="evenodd" d="M200.648 30.2227C200.257 29.982 199.852 29.7637 199.435 29.569C198.654 29.2 197.805 28.9957 196.941 28.9686C196.077 28.9415 195.217 29.0923 194.414 29.4116C193.676 29.6953 193.029 30.1762 192.546 30.8018C192.062 31.4274 191.761 32.1735 191.673 32.9588C191.486 33.9931 191.557 35.0575 191.879 36.0581C192.116 36.8146 192.56 37.4903 193.159 38.0098C193.759 38.5294 194.492 38.8722 195.275 39C196.183 39.2109 197.125 39.2261 198.039 39.0444C198.953 38.8628 199.818 38.4885 200.576 37.9467C200.64 37.8954 200.709 37.8508 200.782 37.8135V38.4794C200.782 38.9878 200.782 39.4963 200.782 40.0169C200.785 40.0752 200.772 40.1332 200.744 40.1845C200.716 40.2358 200.675 40.2784 200.624 40.3075C199.604 40.9459 198.442 41.3242 197.24 41.4092C195.893 41.5805 194.525 41.4269 193.25 40.9612C192.309 40.6227 191.46 40.0718 190.768 39.3515C190.075 38.6312 189.559 37.7609 189.26 36.8087C188.618 34.9748 188.639 32.9746 189.32 31.1549C189.697 30.0747 190.349 29.1112 191.212 28.3596C192.076 27.608 193.121 27.0943 194.244 26.8692C195.697 26.5306 197.207 26.5306 198.659 26.8692C199.312 27.0106 199.927 27.2869 200.466 27.6803C200.466 27.6803 200.588 27.7772 200.588 27.8256L200.648 30.2227Z" fill="#7D7D7D"/>
<path d="M196.209 41.6272C195.197 41.6432 194.192 41.4623 193.25 41.0945C192.289 40.7511 191.42 40.1897 190.713 39.4544C190.006 38.7192 189.479 37.8301 189.175 36.8572C188.524 34.9868 188.55 32.9479 189.248 31.0945C189.627 29.9906 190.291 29.0058 191.172 28.2388C192.054 27.4717 193.121 26.9493 194.269 26.724C195.745 26.3853 197.28 26.3853 198.756 26.724C199.427 26.8757 200.058 27.1643 200.612 27.5715C200.661 27.5989 200.703 27.6372 200.734 27.6834C200.766 27.7296 200.786 27.7824 200.794 27.8378V30.4891L200.575 30.356L200.212 30.1381C199.961 29.9791 199.702 29.8336 199.435 29.7022C198.671 29.3415 197.84 29.1424 196.995 29.1174C196.149 29.0924 195.308 29.242 194.523 29.5569C193.811 29.8311 193.189 30.296 192.725 30.9005C192.26 31.505 191.972 32.2256 191.892 32.9831C191.702 33.9923 191.769 35.0328 192.086 36.0097C192.315 36.7419 192.743 37.396 193.324 37.8985C193.905 38.401 194.614 38.7322 195.372 38.8548C196.257 39.0588 197.176 39.0726 198.067 38.8952C198.957 38.7178 199.8 38.3532 200.539 37.8257L200.685 37.7289L200.988 37.5352V38.8911C200.988 39.2664 200.988 39.6417 200.988 40.0049C200.993 40.0914 200.973 40.1774 200.929 40.2526C200.886 40.3278 200.822 40.389 200.745 40.4286C199.71 41.0875 198.526 41.4786 197.301 41.5666C196.937 41.603 196.561 41.6272 196.209 41.6272ZM196.367 26.7845C195.685 26.7872 195.006 26.8644 194.341 27.0146C193.236 27.2276 192.206 27.7267 191.355 28.4618C190.504 29.1969 189.86 30.1423 189.49 31.2034C188.841 32.999 188.841 34.9647 189.49 36.7603C189.783 37.6832 190.284 38.5267 190.954 39.2257C191.625 39.9246 192.448 40.4605 193.359 40.7918C194.615 41.251 195.962 41.4046 197.289 41.2398C198.466 41.1551 199.603 40.7807 200.6 40.1502C200.632 40.1392 200.659 40.1176 200.677 40.0889C200.694 40.0601 200.701 40.0262 200.697 39.9928C200.697 39.6175 200.697 39.2422 200.697 38.8669V38.0678C199.927 38.6128 199.05 38.9894 198.124 39.173C197.198 39.3566 196.244 39.343 195.324 39.1332C194.511 39.0014 193.752 38.646 193.131 38.1071C192.509 37.5682 192.051 36.867 191.807 36.0824C191.474 35.0589 191.403 33.9683 191.6 32.9105C191.697 32.1062 192.011 31.3434 192.509 30.7036C193.007 30.0639 193.67 29.5713 194.426 29.2785C195.249 28.9524 196.131 28.7992 197.015 28.8283C197.9 28.8575 198.769 29.0684 199.569 29.448C199.848 29.5765 200.12 29.7221 200.381 29.8838L200.503 29.9686V27.8862H200.442C199.922 27.5041 199.327 27.2359 198.696 27.0993C197.934 26.9062 197.153 26.8006 196.367 26.7845V26.7845Z" fill="#7D7D7D"/>
<path fill-rule="evenodd" clip-rule="evenodd" d="M183.644 26.9297H186.288V41.1791H183.62L183.644 26.9297Z" fill="#7D7D7D"/>
<path d="M186.458 41.3245H183.487V26.7966H186.458V41.3245ZM183.79 41.0218H186.155V27.0872H183.79V41.0218Z" fill="#7D7D7D"/>
<path fill-rule="evenodd" clip-rule="evenodd" d="M183.632 20.9854H186.288V23.6004H183.608L183.632 20.9854Z" fill="#7D7D7D"/>
<path d="M186.458 23.7579H183.487V20.8281H186.458V23.7579ZM183.79 23.4552H186.155V21.1308H183.79V23.4552Z" fill="#7D7D7D"/>
<path fill-rule="evenodd" clip-rule="evenodd" d="M113.299 59.2541H107.356C107.395 59.6501 107.524 60.032 107.735 60.37C107.945 60.708 108.231 60.9932 108.569 61.2033C109.11 61.548 109.748 61.7093 110.388 61.6633C111.204 61.6468 112.001 61.4217 112.705 61.0096C112.705 61.4091 112.705 61.7844 112.705 62.2202C112.705 62.2202 112.705 62.305 112.608 62.3292C112.053 62.6658 111.425 62.8651 110.776 62.9103C109.907 63.0192 109.025 62.8981 108.217 62.5592C107.574 62.2944 107.016 61.8587 106.603 61.2995C106.191 60.7403 105.939 60.079 105.877 59.3873C105.759 58.5596 105.894 57.7157 106.265 56.966C106.537 56.3997 106.951 55.9135 107.468 55.5549C107.984 55.1963 108.585 54.9775 109.212 54.92C109.947 54.7987 110.702 54.8955 111.383 55.1984C111.929 55.4478 112.398 55.8387 112.742 56.3306C113.085 56.8224 113.29 57.3972 113.336 57.995C113.336 58.3824 113.336 58.7698 113.336 59.2057C113.324 59.2221 113.312 59.2383 113.299 59.2541ZM107.381 58.225H111.929C111.95 57.9411 111.913 57.6557 111.821 57.3864C111.728 57.1171 111.581 56.8695 111.389 56.6588C111.198 56.448 110.965 56.2785 110.705 56.1607C110.445 56.0428 110.164 55.979 109.879 55.9732C109.252 55.9529 108.641 56.1762 108.175 56.5961C107.709 57.0161 107.424 57.5999 107.381 58.225Z" fill="#7D7D7D"/>
<path d="M110.146 63.0315C109.458 63.0268 108.78 62.874 108.157 62.5835C107.487 62.3114 106.907 61.8598 106.479 61.2786C106.05 60.6974 105.792 60.0094 105.731 59.2906C105.598 58.4274 105.734 57.5443 106.119 56.7603C106.405 56.1702 106.839 55.6638 107.379 55.2905C107.918 54.9171 108.546 54.6894 109.2 54.6296C109.961 54.5078 110.742 54.6131 111.444 54.9322C112.03 55.1834 112.535 55.5929 112.902 56.1147C113.268 56.6365 113.481 57.25 113.517 57.8862C113.542 58.1682 113.542 58.4517 113.517 58.7337C113.517 58.8426 113.517 58.9637 113.517 59.0848C113.523 59.133 113.523 59.1818 113.517 59.23V59.4116H107.538C107.595 59.7546 107.725 60.0814 107.92 60.3696C108.114 60.6579 108.369 60.901 108.666 61.0823C109.136 61.383 109.685 61.535 110.243 61.5182H110.388C111.178 61.5146 111.952 61.3016 112.632 60.9007V60.9007H112.875V61.0823V62.293C112.864 62.3427 112.844 62.3898 112.815 62.4314C112.785 62.4731 112.748 62.5083 112.705 62.5351C112.129 62.8798 111.482 63.0869 110.813 63.1404L110.146 63.0315ZM109.879 54.9443H109.273C108.67 54.999 108.092 55.2084 107.595 55.5521C107.098 55.8957 106.698 56.362 106.434 56.9056C106.075 57.6371 105.948 58.4608 106.071 59.2664C106.128 59.9316 106.367 60.5684 106.763 61.1066C107.159 61.6448 107.696 62.0637 108.314 62.3172C109.08 62.6396 109.915 62.7604 110.74 62.6683C111.365 62.6178 111.97 62.4274 112.511 62.1114V62.1114V61.2276C111.829 61.596 111.067 61.7914 110.291 61.7966C109.644 61.8512 108.995 61.7031 108.436 61.3729C108.091 61.1436 107.803 60.8393 107.592 60.4829C107.382 60.1264 107.256 59.727 107.223 59.3148V59.1453H113.214C113.221 59.0283 113.221 58.9111 113.214 58.7942C113.239 58.5284 113.239 58.261 113.214 57.9952C113.178 57.4181 112.982 56.8624 112.648 56.39C112.314 55.9176 111.855 55.5471 111.322 55.3196C110.876 55.0866 110.382 54.9582 109.879 54.9443V54.9443ZM112.111 58.3705H107.259V58.2131C107.278 57.558 107.555 56.9367 108.029 56.4836C108.504 56.0305 109.138 55.782 109.794 55.7918H109.879C110.181 55.8038 110.478 55.8768 110.751 56.0063C111.025 56.1358 111.269 56.3192 111.47 56.5454C111.67 56.7716 111.823 57.0359 111.918 57.3225C112.014 57.6091 112.05 57.912 112.026 58.2131L112.111 58.3705ZM107.575 58.0678H111.807C111.811 57.8136 111.763 57.5612 111.667 57.3255C111.572 57.0899 111.43 56.8756 111.251 56.6952C111.071 56.5149 110.857 56.3721 110.622 56.2751C110.386 56.1782 110.134 56.1291 109.879 56.1308H109.758C109.213 56.1211 108.684 56.314 108.274 56.672C107.863 57.03 107.601 57.5276 107.538 58.0678H107.575Z" fill="#7D7D7D"/>
<path fill-rule="evenodd" clip-rule="evenodd" d="M153.541 59.2543H147.598C147.642 59.7195 147.805 60.1657 148.071 60.5497C148.323 60.8986 148.655 61.182 149.039 61.3759C149.423 61.5698 149.848 61.6684 150.279 61.6635C151.211 61.6971 152.133 61.4617 152.935 60.9855C152.935 60.9855 152.935 61.0702 152.935 61.1187C152.935 61.4334 152.935 61.7361 152.935 62.0751C152.941 62.1197 152.933 62.1651 152.911 62.2045C152.889 62.2438 152.855 62.2749 152.814 62.293C152.313 62.5761 151.76 62.7571 151.188 62.8257C150.376 62.9428 149.548 62.8808 148.763 62.6441C148.042 62.4183 147.402 61.9879 146.921 61.4053C146.441 60.8227 146.141 60.1131 146.058 59.3632C145.927 58.4948 146.067 57.6074 146.458 56.8208C146.737 56.2636 147.154 55.7872 147.67 55.4374C148.186 55.0876 148.784 54.8761 149.406 54.8233C150.185 54.7114 150.98 54.838 151.686 55.1865C152.186 55.4213 152.618 55.7787 152.943 56.2254C153.267 56.6721 153.473 57.1934 153.541 57.7409C153.572 58.2449 153.572 58.7503 153.541 59.2543V59.2543ZM152.159 58.2252C152.181 57.8776 152.119 57.5297 151.978 57.2114C151.836 56.893 151.619 56.6136 151.346 56.3971C151.087 56.2128 150.794 56.0834 150.483 56.0168C150.172 55.9501 149.851 55.9477 149.539 56.0097C149.017 56.115 148.544 56.389 148.193 56.7894C147.842 57.1898 147.633 57.6944 147.598 58.2252H152.159Z" fill="#7D7D7D"/>
<path d="M150.388 63.0316C149.83 63.0283 149.274 62.9468 148.739 62.7894C147.99 62.5525 147.327 62.1037 146.83 61.4976C146.333 60.8915 146.022 60.1542 145.937 59.3754C145.806 58.4782 145.949 57.5623 146.349 56.7483C146.64 56.172 147.073 55.6794 147.608 55.3171C148.143 54.9548 148.762 54.7348 149.406 54.678C150.234 54.5397 151.084 54.6713 151.831 55.0533C152.335 55.3147 152.765 55.6975 153.082 56.1668C153.4 56.6361 153.595 57.1772 153.651 57.741C153.688 58.269 153.688 58.799 153.651 59.327V59.448H147.756C147.834 60.0491 148.136 60.599 148.601 60.989C149.066 61.379 149.66 61.5808 150.267 61.5546C151.173 61.6019 152.072 61.3785 152.85 60.9129L153.056 60.7797V61.0703V62.1236C153.058 62.1954 153.039 62.2663 153.003 62.3283C152.967 62.3903 152.914 62.441 152.85 62.4747C152.334 62.7654 151.765 62.9506 151.176 63.0195C150.914 63.0409 150.651 63.045 150.388 63.0316V63.0316ZM150.024 54.9444H149.442C148.847 54.9986 148.276 55.2025 147.782 55.537C147.288 55.8715 146.886 56.3258 146.616 56.8572C146.246 57.6072 146.111 58.4508 146.228 59.2785C146.309 60.0007 146.599 60.6837 147.062 61.2446C147.525 61.8055 148.141 62.2202 148.836 62.4383C149.583 62.6576 150.368 62.7154 151.14 62.6078C151.69 62.5514 152.223 62.3824 152.705 62.1115C152.705 62.1115 152.705 62.1115 152.705 62.0146V61.1793C151.929 61.5996 151.051 61.7966 150.17 61.7483C149.465 61.7573 148.782 61.5005 148.258 61.0293C147.734 60.558 147.408 59.9069 147.344 59.2059V59.0364H153.311C153.341 58.5849 153.341 58.1319 153.311 57.6805C153.252 57.1661 153.065 56.6748 152.766 56.2517C152.467 55.8286 152.066 55.4873 151.601 55.2592C151.109 55.0275 150.568 54.9194 150.024 54.9444V54.9444ZM152.256 58.3705H147.404V58.2132C147.428 57.7616 147.573 57.3246 147.823 56.9477C148.073 56.5707 148.42 56.2676 148.827 56.0699C149.235 55.8721 149.688 55.7869 150.139 55.8232C150.591 55.8595 151.024 56.0159 151.395 56.2761C151.689 56.5067 151.922 56.8065 152.072 57.1487C152.222 57.4909 152.286 57.8649 152.256 58.2374V58.3705ZM147.732 58.0679H151.977C151.973 57.7704 151.903 57.4775 151.773 57.2097C151.643 56.942 151.456 56.7059 151.225 56.5182C150.982 56.3451 150.705 56.2244 150.413 56.1639C150.121 56.1035 149.819 56.1046 149.527 56.1672C149.065 56.255 148.643 56.486 148.321 56.8273C147.999 57.1686 147.792 57.6028 147.732 58.0679V58.0679Z" fill="#7D7D7D"/>
<path fill-rule="evenodd" clip-rule="evenodd" d="M121.074 62.7168V62.511C121.074 60.9492 121.074 59.3754 121.074 57.8136C121.093 57.5716 121.058 57.3283 120.969 57.1021C120.881 56.8759 120.742 56.6728 120.563 56.5083C120.384 56.3437 120.17 56.222 119.937 56.1524C119.704 56.0828 119.458 56.0672 119.218 56.1066C118.767 56.1197 118.328 56.2465 117.94 56.4751C117.551 56.7038 117.228 57.0268 116.998 57.4141C116.973 57.4887 116.973 57.5695 116.998 57.6441V62.7168H115.543V54.9686H116.926V56.2882C116.963 56.2229 117.008 56.1619 117.059 56.1066C117.524 55.5031 118.175 55.0693 118.912 54.8723C119.648 54.6753 120.429 54.7262 121.134 55.017C121.518 55.1767 121.851 55.4382 122.097 55.7732C122.343 56.1082 122.492 56.504 122.529 56.9177C122.571 57.2106 122.596 57.5057 122.602 57.8015V62.5836C122.602 62.5836 122.602 62.6683 122.602 62.7289L121.074 62.7168Z" fill="#7D7D7D"/>
<path d="M122.699 62.862H120.916V61.1187C120.916 60.017 120.916 58.9153 120.916 57.8136C120.936 57.5917 120.904 57.3682 120.824 57.1603C120.744 56.9525 120.617 56.7659 120.453 56.6149C120.288 56.4639 120.092 56.3527 119.878 56.2897C119.664 56.2268 119.438 56.2138 119.218 56.2518C118.793 56.2607 118.376 56.3762 118.008 56.5878C117.639 56.7993 117.329 57.1001 117.108 57.4625C117.093 57.5139 117.093 57.5684 117.108 57.6199C117.108 59.2421 117.108 60.8765 117.108 62.4625V62.8015H115.325V54.8111H116.998V55.9128C117.343 55.5214 117.768 55.2101 118.246 55.0009C118.724 54.7917 119.242 54.6898 119.764 54.7022C120.242 54.6987 120.716 54.7892 121.158 54.9685C121.565 55.138 121.917 55.4146 122.177 55.7686C122.438 56.1226 122.597 56.5408 122.638 56.9782C122.687 57.2784 122.712 57.5821 122.711 57.8862V62.9225L122.699 62.862ZM121.219 62.5835H122.432V57.8257C122.432 57.5376 122.408 57.25 122.359 56.9661C122.331 56.5798 122.195 56.209 121.968 55.8948C121.742 55.5806 121.432 55.3354 121.074 55.1864C120.665 55.0224 120.228 54.9402 119.788 54.9443C119.287 54.932 118.791 55.0347 118.337 55.2447C117.882 55.4546 117.483 55.7661 117.168 56.155L116.95 56.4455L116.841 56.385H116.768V55.1743H115.701V62.5835H116.841C116.841 60.9613 116.841 59.3269 116.841 57.7409C116.835 57.6312 116.86 57.5221 116.913 57.4262C117.159 57.018 117.503 56.6778 117.914 56.4367C118.325 56.1956 118.79 56.0613 119.266 56.046C119.527 56.0072 119.793 56.0274 120.045 56.1052C120.297 56.183 120.529 56.3163 120.722 56.4953C120.915 56.6744 121.066 56.8945 121.162 57.1394C121.259 57.3844 121.299 57.6479 121.28 57.9104C121.28 59.0121 121.28 60.1138 121.28 61.2155L121.219 62.5835Z" fill="#7D7D7D"/>
<path fill-rule="evenodd" clip-rule="evenodd" d="M136.562 54.9563H138.053V62.7166H136.683V61.3728L136.562 61.5423C136.227 62.0292 135.761 62.4124 135.219 62.6479C134.676 62.8834 134.078 62.9617 133.493 62.874C133.163 62.851 132.84 62.7607 132.546 62.6087C132.252 62.4567 131.992 62.2462 131.783 61.9902C131.463 61.5567 131.277 61.0389 131.249 60.5011C131.249 60.2469 131.249 59.9926 131.249 59.7263V54.9684H132.729V55.1621C132.729 56.7602 132.729 58.3582 132.729 60.0047C132.722 60.2323 132.765 60.4585 132.856 60.6677C132.946 60.8768 133.08 61.0637 133.25 61.2154C133.536 61.4429 133.891 61.5667 134.257 61.5665C134.696 61.6048 135.136 61.5196 135.528 61.3206C135.921 61.1215 136.249 60.8166 136.477 60.4406C136.592 60.2827 136.652 60.0911 136.646 59.8958C136.646 58.3219 136.646 56.7481 136.646 55.1742L136.562 54.9563Z" fill="#7D7D7D"/>
<path d="M133.905 63.0315H133.445C133.092 63.0107 132.747 62.9159 132.434 62.7532C132.12 62.5905 131.845 62.3635 131.625 62.0872C131.291 61.6273 131.097 61.0807 131.067 60.5133C131.067 60.2349 131.067 59.9564 131.067 59.7264V54.8838H132.85V56.7603C132.85 57.8499 132.85 58.9395 132.85 60.0291C132.824 60.253 132.852 60.4799 132.933 60.6906C133.013 60.9013 133.143 61.0897 133.311 61.2397C133.582 61.4401 133.908 61.5502 134.245 61.5545H134.451C134.829 61.5436 135.198 61.4382 135.524 61.2478C135.851 61.0574 136.124 60.7882 136.319 60.4649C136.415 60.3361 136.463 60.1773 136.452 60.017V54.9322H138.235V62.9952H136.562V61.8814C136.24 62.2679 135.833 62.5734 135.371 62.7732C134.91 62.973 134.408 63.0615 133.905 63.0315V63.0315ZM131.334 55.1138V59.7022C131.334 59.9322 131.334 60.1986 131.334 60.4649C131.353 60.9763 131.527 61.4699 131.831 61.8814C132.027 62.1215 132.27 62.3187 132.546 62.4604C132.821 62.602 133.123 62.6852 133.432 62.7046C134.004 62.7909 134.587 62.7112 135.114 62.475C135.641 62.2388 136.089 61.8562 136.404 61.3729L136.501 61.2518L136.586 61.1308L136.828 61.2155V62.5835H137.908V55.1138H136.695V59.9564C136.701 60.1818 136.633 60.403 136.501 60.586C136.278 60.9468 135.968 61.2464 135.599 61.4578C135.231 61.6691 134.815 61.7856 134.391 61.7966H134.136C133.74 61.7854 133.358 61.6498 133.044 61.4092C132.849 61.2384 132.696 61.0251 132.598 60.7857C132.499 60.5463 132.457 60.2874 132.474 60.0291C132.474 58.9395 132.474 57.8499 132.474 56.7603V55.1865L131.334 55.1138Z" fill="#7D7D7D"/>
<path fill-rule="evenodd" clip-rule="evenodd" d="M155.142 60.8886C155.619 61.191 156.144 61.4081 156.695 61.5303C157.306 61.6791 157.94 61.7079 158.563 61.615C158.766 61.5775 158.963 61.508 159.145 61.4092C159.275 61.3432 159.386 61.2442 159.466 61.122C159.546 60.9999 159.593 60.8589 159.602 60.7132C159.61 60.5674 159.58 60.422 159.515 60.2913C159.45 60.1606 159.351 60.0494 159.23 59.9685C158.841 59.7641 158.435 59.594 158.017 59.46C157.471 59.2542 156.913 59.1089 156.379 58.891C156.056 58.7622 155.759 58.5733 155.506 58.3341C155.154 57.9823 154.957 57.5055 154.957 57.0085C154.957 56.5114 155.154 56.0346 155.506 55.6828C155.963 55.2345 156.556 54.9494 157.192 54.8717C158.219 54.704 159.272 54.8213 160.236 55.2106C160.277 55.2193 160.316 55.2358 160.35 55.2594C160.384 55.2829 160.413 55.313 160.436 55.3479C160.458 55.3828 160.474 55.4218 160.481 55.4626C160.489 55.5035 160.488 55.5454 160.479 55.5859C160.479 55.9249 160.479 56.2639 160.479 56.6029C160.139 56.4818 159.812 56.3365 159.484 56.2276C158.735 55.9801 157.931 55.9549 157.168 56.155C157.007 56.1892 156.859 56.2639 156.735 56.372C156.612 56.4801 156.519 56.618 156.464 56.7724C156.407 56.9429 156.417 57.1287 156.491 57.2925C156.565 57.4563 156.699 57.5862 156.865 57.6562C157.308 57.8388 157.762 57.9964 158.223 58.1283C158.789 58.2873 159.341 58.4939 159.872 58.7458C160.212 58.8921 160.501 59.1359 160.702 59.4463C160.903 59.7567 161.007 60.1196 161 60.4891C161.024 60.8778 160.935 61.2652 160.743 61.6045C160.552 61.9438 160.266 62.2207 159.921 62.4019C159.423 62.6804 158.866 62.838 158.296 62.862C157.42 62.9372 156.539 62.8215 155.712 62.523C155.488 62.4676 155.28 62.3597 155.106 62.2082C155.106 62.2082 155.106 61.8329 155.106 61.6271C155.106 61.4213 155.142 61.1549 155.142 60.8886Z" fill="#7D7D7D"/>
<path d="M157.823 63.0315C157.103 63.0363 156.389 62.9133 155.712 62.6683V62.6683C155.489 62.6053 155.281 62.4937 155.106 62.3414C155.009 62.2566 155.009 62.1235 155.021 61.7966V60.5859L155.252 60.7312C155.71 61.0287 156.22 61.2381 156.755 61.3486C157.35 61.5 157.969 61.5289 158.575 61.4334C158.758 61.4026 158.934 61.3412 159.096 61.2518C159.208 61.1932 159.302 61.1065 159.371 61.0004C159.439 60.8943 159.478 60.7723 159.484 60.6465C159.49 60.5332 159.465 60.4205 159.411 60.3203C159.358 60.2201 159.278 60.1362 159.181 60.0775C158.89 59.9044 158.581 59.7624 158.259 59.6537L158.053 59.5811L157.362 59.339C157.04 59.2441 156.724 59.1309 156.416 59C156.075 58.8657 155.762 58.6686 155.494 58.4189C155.311 58.2434 155.165 58.0329 155.065 57.8C154.965 57.567 154.913 57.3164 154.912 57.0629C154.905 56.7839 154.954 56.5063 155.056 56.2464C155.158 55.9865 155.311 55.7496 155.506 55.5496C155.989 55.0811 156.61 54.7797 157.277 54.6901C158.329 54.5215 159.406 54.6429 160.394 55.0411C160.503 55.0744 160.596 55.1448 160.658 55.2399C160.72 55.3351 160.747 55.449 160.734 55.5617C160.721 55.7997 160.721 56.0381 160.734 56.276V56.8087L160.527 56.724L160.188 56.5908L159.533 56.3486C158.812 56.1089 158.036 56.0836 157.301 56.276C157.166 56.3051 157.04 56.3682 156.936 56.4593C156.832 56.5504 156.753 56.6665 156.707 56.7966C156.659 56.93 156.666 57.0766 156.725 57.2054C156.783 57.3342 156.89 57.4351 157.022 57.4867C157.456 57.6742 157.901 57.832 158.356 57.9588C158.935 58.1198 159.499 58.3305 160.042 58.5884C160.406 58.749 160.714 59.0122 160.93 59.3456C161.145 59.679 161.258 60.0681 161.255 60.4649C161.267 60.8854 161.16 61.3008 160.945 61.6629C160.73 62.025 160.417 62.319 160.042 62.5109C159.522 62.8016 158.94 62.9636 158.344 62.983L157.823 63.0315ZM155.288 62.1235C155.44 62.2319 155.608 62.3175 155.785 62.3777V62.3777C156.594 62.6627 157.454 62.77 158.308 62.6925C158.855 62.6705 159.389 62.5256 159.872 62.2687C160.193 62.0955 160.457 61.8352 160.635 61.5181C160.813 61.201 160.898 60.84 160.879 60.477C160.882 60.1362 160.785 59.8021 160.599 59.5159C160.414 59.2297 160.149 59.0041 159.836 58.8668C159.308 58.6202 158.76 58.4178 158.199 58.2615C157.732 58.1306 157.274 57.9689 156.828 57.7772C156.626 57.696 156.462 57.5399 156.372 57.3415C156.281 57.1431 156.271 56.9176 156.343 56.7118C156.404 56.534 156.509 56.3748 156.649 56.2497C156.789 56.1245 156.96 56.0377 157.144 55.9976C157.943 55.7905 158.784 55.8157 159.569 56.0702C159.8 56.1428 160.018 56.2276 160.248 56.3244H160.37V56.2397C160.37 55.9976 160.37 55.7554 160.37 55.5133C160.37 55.3801 160.37 55.3438 160.224 55.2833C159.285 54.9105 158.263 54.7976 157.265 54.9564C156.662 55.0308 156.101 55.2985 155.664 55.7191C155.495 55.8912 155.362 56.0959 155.275 56.3206C155.187 56.5454 155.146 56.7856 155.154 57.0266C155.152 57.2395 155.194 57.4506 155.277 57.6465C155.361 57.8424 155.484 58.0188 155.64 58.1646C155.88 58.3873 156.16 58.5638 156.464 58.6852C156.766 58.8102 157.073 58.9193 157.386 59.0121L158.102 59.2542L158.296 59.3269C158.641 59.4439 158.974 59.5939 159.29 59.7748C159.429 59.8674 159.542 59.9937 159.619 60.142C159.695 60.2903 159.732 60.4556 159.727 60.6223C159.72 60.7993 159.667 60.9714 159.573 61.122C159.48 61.2726 159.349 61.3965 159.193 61.4818C158.994 61.5831 158.782 61.6565 158.563 61.6997C157.426 61.8571 156.27 61.6449 155.264 61.0944V61.7361C155.263 61.8656 155.271 61.995 155.288 62.1235Z" fill="#7D7D7D"/>
<path fill-rule="evenodd" clip-rule="evenodd" d="M96.6105 54.9563H98.1023C98.1023 54.9563 98.2114 55.0532 98.2357 55.1137L99.7639 58.9515L100.674 61.2759L101.086 60.2832C101.789 58.552 102.505 56.8328 103.208 55.0895C103.222 55.0405 103.253 54.998 103.295 54.9692C103.337 54.9405 103.388 54.9273 103.439 54.9321H104.652L104.555 55.1742L101.462 62.5834C101.462 62.7045 101.353 62.765 101.219 62.7529H100.006C99.9651 62.758 99.9233 62.7487 99.888 62.7267C99.8526 62.7046 99.826 62.6712 99.8124 62.6319L96.659 55.0774C96.646 55.0358 96.6298 54.9954 96.6105 54.9563V54.9563Z" fill="#7D7D7D"/>
<path d="M101.231 62.8861H100.019C99.9457 62.8928 99.8726 62.8751 99.8111 62.8356C99.7495 62.7961 99.703 62.7371 99.6789 62.6682C98.9148 60.8159 98.1386 59.0362 97.3745 57.1355L96.5377 55.1379C96.5416 55.1098 96.5416 55.0812 96.5377 55.0531L96.4528 54.7989H98.1507C98.3205 54.7989 98.4054 55.0168 98.4176 55.041L99.3151 57.2928L100.734 60.9248L100.989 60.2953L102.602 56.2396L103.099 55.0289C103.119 54.9522 103.165 54.8848 103.229 54.8384C103.293 54.7919 103.372 54.7694 103.451 54.7747H104.967L104.785 55.2347L104.13 56.7602C103.322 58.6972 102.489 60.6423 101.632 62.5955C101.611 62.6841 101.56 62.7624 101.486 62.8158C101.413 62.8692 101.322 62.8942 101.231 62.8861ZM100.698 62.5834H101.219C101.219 62.5834 101.219 62.5834 101.316 62.4987C102.141 60.5495 102.978 58.6125 103.815 56.6633L104.482 55.1016H103.414C103.414 55.1016 103.414 55.1016 103.342 55.1621L102.844 56.3728C102.299 57.7045 101.765 59.0362 101.207 60.3679L100.661 61.6996L98.9633 57.4139C98.6601 56.6633 98.3691 55.9127 98.0658 55.1742V55.1137H96.853L97.6535 57.0265C98.4176 58.8788 99.1938 60.719 99.9579 62.5592L100.698 62.5834Z" fill="#7D7D7D"/>
<path fill-rule="evenodd" clip-rule="evenodd" d="M129.09 61.3728V62.6682C128.276 62.9685 127.382 62.9685 126.568 62.6682C126.307 62.5323 126.085 62.3318 125.923 62.086C125.762 61.8401 125.667 61.557 125.646 61.2638C125.598 60.9595 125.573 60.6519 125.573 60.3437C125.573 59.012 125.573 57.6924 125.573 56.3607V56.1428H124.433V54.9321H125.573V52.9587H127.065V54.9442H129.09V56.1549H127.041C127.041 56.1549 127.041 56.2154 127.041 56.2396C127.041 57.6682 127.041 59.0846 127.041 60.5011C127.049 60.6975 127.094 60.8905 127.174 61.0701C127.233 61.2248 127.341 61.3565 127.48 61.4458C127.62 61.5351 127.785 61.5774 127.95 61.5665C128.278 61.5269 128.603 61.4621 128.921 61.3728C128.977 61.3784 129.034 61.3784 129.09 61.3728V61.3728Z" fill="#7D7D7D"/>
<path d="M127.805 63.0315C127.357 63.034 126.914 62.9389 126.507 62.7531C126.224 62.6176 125.98 62.4118 125.8 62.1552C125.619 61.8987 125.508 61.6001 125.476 61.2882C125.415 60.9773 125.386 60.6608 125.391 60.3439V56.2882H124.251V54.8112H125.379V52.8015H127.174V54.787H129.2V56.264H127.186V57.632C127.186 58.5763 127.186 59.5206 127.186 60.465C127.197 60.6401 127.238 60.8122 127.308 60.9734C127.36 61.0983 127.45 61.2038 127.565 61.2753C127.68 61.3469 127.815 61.381 127.95 61.3729C128.185 61.3904 128.42 61.3904 128.654 61.3729H128.896H128.993L129.224 61.3003V62.9105H129.115C128.686 63.0128 128.245 63.0536 127.805 63.0315V63.0315ZM124.554 55.9855H125.646V60.3439C125.644 60.6441 125.668 60.9439 125.719 61.2398C125.749 61.499 125.846 61.7461 125.998 61.9579C126.151 62.1697 126.355 62.3392 126.592 62.4504C127.317 62.7697 128.137 62.8 128.884 62.5352V61.5545H128.654C128.409 61.5973 128.162 61.6216 127.914 61.6272C127.719 61.6371 127.526 61.5865 127.361 61.4825C127.196 61.3785 127.067 61.226 126.992 61.0461C126.903 60.8477 126.854 60.6338 126.847 60.4165C126.847 59.4722 126.847 58.5279 126.847 57.5836V56.1308V55.9613H128.836V55.0896H126.859V53.1042H125.646V55.1139H124.554V55.9855Z" fill="#7D7D7D"/>
<path fill-rule="evenodd" clip-rule="evenodd" d="M142.238 56.2518C142.407 55.9976 142.553 55.7433 142.735 55.5133C142.992 55.1892 143.348 54.958 143.749 54.8553C144.149 54.7525 144.573 54.7838 144.954 54.9443C144.983 54.9548 145.008 54.9726 145.027 54.996C145.046 55.0195 145.059 55.0476 145.064 55.0775V56.3608L144.372 56.2155C143.929 56.1612 143.48 56.2585 143.099 56.4916C142.718 56.7246 142.427 57.0797 142.274 57.4988C142.261 57.5627 142.261 57.6286 142.274 57.6925V62.7167H140.807V54.9564H142.262L142.238 56.2518Z" fill="#7D7D7D"/>
<path d="M142.407 62.874H140.637V54.811H142.395V55.7311C142.468 55.6222 142.529 55.5253 142.614 55.4163C142.899 55.0685 143.288 54.8209 143.725 54.7099C144.161 54.5988 144.622 54.63 145.039 54.7989C145.092 54.8222 145.138 54.8591 145.172 54.9059C145.207 54.9527 145.228 55.0077 145.233 55.0653C145.233 55.38 145.233 55.6948 145.233 55.9975V56.5302H145.051H144.833L144.372 56.4333C143.961 56.388 143.547 56.4831 143.197 56.7029C142.846 56.9227 142.581 57.2544 142.444 57.644C142.437 57.684 142.437 57.725 142.444 57.765V62.9587L142.407 62.874ZM140.94 62.5834H142.153V57.7408C142.134 57.6571 142.134 57.5703 142.153 57.4866C142.304 57.0877 142.57 56.7425 142.917 56.4947C143.265 56.2468 143.679 56.1075 144.105 56.0943C144.202 56.0827 144.3 56.0827 144.397 56.0943C144.564 56.1108 144.73 56.1391 144.894 56.1791V56.1791V56.0096C144.894 55.7069 144.894 55.3921 144.894 55.0895C144.54 54.9479 144.15 54.9232 143.781 55.0191C143.412 55.1149 143.084 55.3263 142.844 55.6222C142.718 55.7788 142.605 55.9447 142.505 56.1185L142.359 56.3486L142.08 56.7844V55.1137H140.867L140.94 62.5834Z" fill="#7D7D7D"/>
<path d="M61.8988 19C56.2514 19.003 50.7996 21.0653 46.5685 24.799C43.2129 21.8439 39.0743 19.9181 34.6494 19.2528C30.2245 18.5875 25.7012 19.2109 21.6225 21.0483C17.5438 22.8857 14.0829 25.859 11.6552 29.6113C9.22755 33.3635 7.93622 37.7354 7.93622 42.2021C7.93622 46.6689 9.22755 51.0408 11.6552 54.793C14.0829 58.5453 17.5438 61.5186 21.6225 63.3559C25.7012 65.1933 30.2245 65.8168 34.6494 65.1515C39.0743 64.4862 43.2129 62.5604 46.5685 59.6053C49.3906 62.0788 52.7715 63.8323 56.4214 64.7155C60.0713 65.5986 63.8813 65.5851 67.5248 64.6761C71.1684 63.7671 74.5367 61.9898 77.3412 59.4963C80.1456 57.0029 82.3025 53.8678 83.6269 50.3599C84.9514 46.8519 85.4038 43.0756 84.9455 39.3548C84.4872 35.634 83.1318 32.0797 80.9956 28.9964C78.8593 25.9131 76.0058 23.393 72.6798 21.6519C69.3538 19.9109 65.6544 19.0009 61.8988 19V19ZM50.9832 42.1235C51.0119 45.9752 49.9389 49.7551 47.8905 53.0193L48.1694 52.4866C46.8474 54.908 45.0524 52.7772 45.0282 52.7409C43.0275 49.5906 41.9634 45.9382 41.9597 42.2082C41.9631 40.6995 42.1421 39.1962 42.4933 37.7288C42.6389 37.4503 42.9785 37.2566 43.7062 37.6319C45.6975 38.7623 47.8087 39.6678 50.0008 40.3317C50.2379 40.434 50.4466 40.592 50.6092 40.7923C50.7719 40.9926 50.8835 41.2291 50.9347 41.4818C50.9711 41.6997 50.9954 41.9055 50.9954 42.1235H50.9832ZM27.9028 22.6319C29.0083 22.4384 30.1279 22.3372 31.2502 22.3293C31.4122 22.353 31.5678 22.4092 31.7074 22.4945C31.8471 22.5798 31.968 22.6924 32.0629 22.8256C32.1235 22.9951 32.1841 23.1888 32.269 23.3825C32.2646 23.4187 32.2646 23.4553 32.269 23.4915V23.4915C33.7409 27.2578 35.984 30.6761 38.8548 33.5278C39.3648 34.0904 39.6384 34.8274 39.6189 35.5859V35.5133C39.2992 36.5671 39.06 37.6437 38.9033 38.7336C38.9033 38.7336 38.9033 38.7336 38.9033 38.7336C38.685 39.7748 38.1513 39.7627 37.6905 39.5327C32.6571 35.368 28.8973 28.4673 27.0902 23.9758V24.0484C27.0385 23.9023 27.019 23.7468 27.033 23.5925C27.047 23.4382 27.0942 23.2887 27.1714 23.1543C27.2485 23.0199 27.3537 22.9036 27.48 22.8135C27.6062 22.7233 27.7504 22.6614 27.9028 22.6319V22.6319ZM75.701 31.4334L75.6282 31.5181C75.6282 31.5181 77.4718 30.5738 78.4906 31.2518C78.6361 31.4697 78.7695 31.7118 78.9029 31.9297C79.017 32.2937 79.0166 32.6838 78.9016 33.0475C78.7867 33.4112 78.5628 33.7309 78.2601 33.9636C78.2601 33.9636 78.2601 33.9636 78.2601 33.9636C77.0158 34.8095 75.7104 35.5621 74.3548 36.2155C70.2203 37.851 65.8125 38.6891 61.3652 38.6852C57.4773 38.6021 53.6215 37.962 49.9159 36.7845C49.2125 36.5302 48.5333 36.3244 47.8662 36.1186C52.4754 36.0622 57.0768 35.7225 61.6441 35.1017C69.4185 33.7094 73.4936 32.4745 75.701 31.4092V31.4334ZM61.0741 32.2324C56.1131 33.1243 51.074 33.5097 46.0348 33.3825V33.3825C44.7007 33.2978 44.5309 32.8014 44.5673 32.4382C45.0228 31.6333 45.5334 30.8606 46.0955 30.1259V30.1259C46.1006 30.106 46.1006 30.0852 46.0955 30.0653C46.3854 29.748 46.7464 29.5037 47.149 29.3522C47.5516 29.2007 47.9844 29.1464 48.412 29.1937C55.5125 31.031 62.948 31.1638 70.1098 29.5811C67.2216 30.8355 64.1854 31.7183 61.0741 32.2082V32.2324ZM43.3423 28.2251L43.8396 27.6682C43.1529 28.525 42.5248 29.4269 41.9597 30.368V30.368C41.8707 30.4886 41.7577 30.5896 41.6279 30.6647C41.498 30.7398 41.354 30.7874 41.2049 30.8044C41.0558 30.8215 40.9048 30.8076 40.7613 30.7638C40.6178 30.7199 40.4848 30.647 40.3708 30.5496C38.2579 28.4353 36.4533 26.0349 35.0101 23.4189C35.0101 23.1404 35.1071 22.8377 35.7863 22.8862C38.4571 23.5186 40.9705 24.6886 43.1725 26.3244C43.973 27.5835 43.3423 28.2251 43.3423 28.2251ZM72.208 25.1985C73.2996 26.2155 71.3469 26.7239 71.3469 26.7239C60.0068 28.5399 53.4574 27.3414 50.8862 26.5181L51.6624 26.7118C51.3228 26.615 50.2434 26.2518 51.2622 25.3922C54.3822 23.4096 57.9968 22.3405 61.6952 22.3062C65.3936 22.272 69.0274 23.274 72.1838 25.1985H72.208ZM14.416 31.5787C14.6949 31.3365 15.362 30.8886 15.4833 31.9176C15.1679 45.8886 12.063 46.2639 11.6385 45.7191C10.7317 40.8362 11.7251 35.7919 14.416 31.615V31.5787ZM31.2502 62.0992C27.7126 62.0974 24.2393 61.1556 21.187 59.3705C18.1346 57.5854 15.6134 55.0214 13.8823 51.9419C13.4942 49.6295 19.2188 46.845 17.8847 28.5036C17.8855 28.0337 18.0156 27.5731 18.2607 27.1719C19.1361 26.4081 20.0777 25.7234 21.0745 25.1259C21.7612 24.7165 22.4697 24.3446 23.197 24.0121C23.4565 23.9204 23.7396 23.9195 23.9997 24.0097C24.2598 24.1 24.4814 24.2758 24.6281 24.5084C27.0433 32.6394 31.842 39.8623 38.406 45.2469C38.7678 45.6399 39.0116 46.1266 39.1095 46.6513C39.3635 47.9289 39.7205 49.184 40.1768 50.4043C39.3782 51.4901 38.3434 52.381 37.1502 53.0101C35.957 53.6392 34.6364 53.99 33.2878 54.0363C29.9282 54.0363 27.9877 53.322 26.3018 51.2881C24.651 49.0619 23.8316 46.3297 23.9853 43.5641L24.4583 32.3172C24.4583 30.6707 21.6081 30.3317 21.4626 32.0508L20.65 43.4189C20.2788 47.0689 21.325 50.722 23.5729 53.6247C25.841 56.3607 29.2854 57.7288 33.5183 57.7288C36.055 57.6018 38.4995 56.7393 40.5528 55.2469C40.7567 55.1192 40.9845 55.034 41.2224 54.9965C41.4603 54.959 41.7033 54.97 41.9367 55.0289C42.1702 55.0877 42.3893 55.1931 42.5809 55.3388C42.7724 55.4845 42.9324 55.6674 43.0512 55.8765V55.7191C43.4515 56.276 43.8638 56.8087 44.2641 57.3172C40.6458 60.4255 36.024 62.1239 31.2502 62.0992V62.0992ZM49.9887 58.1283H50.0736C50.0736 58.1283 49.3944 57.4624 50.3404 55.3196C52.7669 51.6397 53.9953 47.3015 53.8577 42.8983V42.6198C53.8577 42.1719 54.076 41.4092 55.0705 41.506C56.9165 41.9048 58.7975 42.1197 60.686 42.1477C63.3253 42.1214 65.958 41.8785 68.5574 41.4213C68.6786 41.4006 68.8029 41.4058 68.9221 41.4364C69.0412 41.4671 69.1526 41.5225 69.2487 41.5991C69.3449 41.6757 69.4238 41.7717 69.4803 41.8808C69.5367 41.99 69.5694 42.1098 69.5761 42.2324C69.5148 46.7232 70.7302 51.1393 73.0813 54.9685C73.3723 55.5254 74.2941 57.4867 73.433 58.4067C70.0021 60.8432 65.8837 62.1272 61.6735 62.0727C57.4632 62.0183 53.3795 60.6284 50.013 58.1041L49.9887 58.1283ZM78.4906 53.1767L78.6846 52.7772C77.302 54.9201 75.4342 52.5956 75.1674 52.2445C73.3718 49.2042 72.4292 45.7375 72.4385 42.2082C72.4385 41.8813 72.4385 41.5666 72.4385 41.2518C72.5408 40.9839 72.6953 40.739 72.893 40.5312C73.0908 40.3234 73.3279 40.1568 73.5907 40.0411C75.7233 39.3274 77.7857 38.4196 79.7519 37.3293C80.1168 37.2618 80.4936 37.341 80.8003 37.5497C81.107 37.7583 81.3187 38.0794 81.3893 38.4431V38.3704C81.6514 39.6412 81.7855 40.935 81.7895 42.2324C81.7947 46.1254 80.647 49.933 78.4906 53.1767V53.1767Z" fill="#56D8D4"/>
</g>
<defs>
<clipPath id="clip0">
<rect x="8" y="19" width="193" height="46.4044" fill="white"/>
</clipPath>
</defs>
</svg>
