<svg width="281" height="83" viewBox="0 0 281 83" fill="none" xmlns="http://www.w3.org/2000/svg">
<mask id="mask0" mask-type="alpha" maskUnits="userSpaceOnUse" x="0" y="0" width="281" height="83">
<rect width="281" height="82.4134" fill="white"/>
</mask>
<g mask="url(#mask0)">
<path d="M30.7036 34.0984L21.8016 54.4758H18.931L10 34.0984H13.1316L20.4388 50.8369L27.8039 34.0984H30.7036Z" fill="black"/>
<path d="M42.2284 54.7087C40.1793 54.7087 38.3332 54.2623 36.69 53.3696C35.0469 52.4574 33.7517 51.2057 32.8045 49.6143C31.8766 48.0229 31.4126 46.2472 31.4126 44.2871C31.4126 42.327 31.8766 40.5512 32.8045 38.9598C33.7517 37.3685 35.0469 36.1264 36.69 35.2337C38.3332 34.3215 40.1793 33.8655 42.2284 33.8655C44.2581 33.8655 46.0946 34.3215 47.7377 35.2337C49.3809 36.1264 50.6664 37.3685 51.5943 38.9598C52.5222 40.5318 52.9861 42.3075 52.9861 44.2871C52.9861 46.2666 52.5222 48.052 51.5943 49.6434C50.6664 51.2154 49.3809 52.4574 47.7377 53.3696C46.0946 54.2623 44.2581 54.7087 42.2284 54.7087ZM42.2284 52.1178C43.7169 52.1178 45.0507 51.7782 46.2299 51.0989C47.4284 50.4197 48.366 49.4882 49.0426 48.3043C49.7385 47.1011 50.0865 45.762 50.0865 44.2871C50.0865 42.8121 49.7385 41.4827 49.0426 40.2989C48.366 39.0957 47.4284 38.1544 46.2299 37.4752C45.0507 36.7959 43.7169 36.4563 42.2284 36.4563C40.7399 36.4563 39.3867 36.7959 38.1688 37.4752C36.9703 38.1544 36.0231 39.0957 35.3272 40.2989C34.6506 41.4827 34.3123 42.8121 34.3123 44.2871C34.3123 45.762 34.6506 47.1011 35.3272 48.3043C36.0231 49.4882 36.9703 50.4197 38.1688 51.0989C39.3867 51.7782 40.7399 52.1178 42.2284 52.1178Z" fill="black"/>
<path d="M57.4181 34.0984H60.3177V51.9431H71.3074V54.4758H57.4181V34.0984Z" fill="black"/>
<path d="M76.7681 36.631H69.8089V34.0984H86.5979V36.631H79.6388V54.4758H76.7681V36.631Z" fill="black"/>
<path d="M106.619 54.7087C104.589 54.7087 102.753 54.2623 101.11 53.3696C99.486 52.4574 98.2102 51.2154 97.2823 49.6434C96.3544 48.052 95.8904 46.2666 95.8904 44.2871C95.8904 42.3075 96.3544 40.5318 97.2823 38.9598C98.2102 37.3685 99.4957 36.1264 101.139 35.2337C102.782 34.3215 104.618 33.8655 106.648 33.8655C108.233 33.8655 109.683 34.1372 110.998 34.6806C112.312 35.2046 113.433 35.9905 114.361 37.0385L112.477 38.8725C110.949 37.2617 109.045 36.4563 106.764 36.4563C105.256 36.4563 103.894 36.7959 102.676 37.4752C101.458 38.1544 100.501 39.0957 99.805 40.2989C99.1284 41.4827 98.7901 42.8121 98.7901 44.2871C98.7901 45.762 99.1284 47.1011 99.805 48.3043C100.501 49.4882 101.458 50.4197 102.676 51.0989C103.894 51.7782 105.256 52.1178 106.764 52.1178C109.026 52.1178 110.93 51.3027 112.477 49.6725L114.361 51.5065C113.433 52.5545 112.303 53.3502 110.969 53.8936C109.654 54.437 108.204 54.7087 106.619 54.7087Z" fill="black"/>
<path d="M130.949 49.3814H120.162L117.929 54.4758H114.943L124.135 34.0984H127.005L136.226 54.4758H133.182L130.949 49.3814ZM129.934 47.0526L125.556 37.0676L121.177 47.0526H129.934Z" fill="black"/>
<path d="M147.17 34.0984C149.799 34.0984 151.868 34.7291 153.376 35.9905C154.883 37.252 155.637 38.9889 155.637 41.2013C155.637 43.4137 154.883 45.1507 153.376 46.4121C151.868 47.6736 149.799 48.3043 147.17 48.3043H142.154V54.4758H139.254V34.0984H147.17ZM147.083 45.7717C148.92 45.7717 150.321 45.3836 151.288 44.6073C152.254 43.8116 152.738 42.6763 152.738 41.2013C152.738 39.7264 152.254 38.6008 151.288 37.8245C150.321 37.0288 148.92 36.631 147.083 36.631H142.154V45.7717H147.083Z" fill="black"/>
<path d="M159.897 34.0984H162.797V54.4758H159.897V34.0984Z" fill="black"/>
<path d="M172.904 36.631H165.945V34.0984H182.734V36.631H175.775V54.4758H172.904V36.631Z" fill="black"/>
<path d="M197.805 49.3814H187.019L184.786 54.4758H181.799L190.991 34.0984H193.862L203.083 54.4758H200.038L197.805 49.3814ZM196.79 47.0526L192.412 37.0676L188.034 47.0526H196.79Z" fill="black"/>
<path d="M206.111 34.0984H209.01V51.9431H220V54.4758H206.111V34.0984Z" fill="black"/>
</g>
</svg>
