<svg width="300" height="84" viewBox="0 0 300 84" fill="none" xmlns="http://www.w3.org/2000/svg">
<mask id="mask0" mask-type="alpha" maskUnits="userSpaceOnUse" x="0" y="0" width="300" height="84">
<rect width="300" height="83.3898" fill="#C4C4C4"/>
</mask>
<g mask="url(#mask0)">
<path d="M6.85938 47.1121H3.81784V53.4773H0V36.0894H6.88483C9.07372 36.0894 10.7621 36.5472 11.9498 37.4628C13.1376 38.3784 13.7315 39.6721 13.7315 41.344C13.7315 42.5303 13.4558 43.5215 12.9043 44.3176C12.3613 45.1058 11.5341 45.7348 10.4227 46.2045L14.4314 53.3101V53.4773H10.3336L6.85938 47.1121ZM3.81784 44.2101H6.89756C7.85626 44.2101 8.59862 43.9832 9.12463 43.5294C9.65064 43.0677 9.91365 42.4347 9.91365 41.6306C9.91365 40.8106 9.66337 40.1657 9.16281 39.696C8.67073 39.2263 7.9114 38.9914 6.88483 38.9914H3.81784V44.2101Z" fill="#8C2225"/>
<path d="M29.7486 45.9418H22.4183V50.5992H31.0212V53.4773H18.6005V36.0894H30.9957V38.9914H22.4183V43.1353H29.7486V45.9418Z" fill="#8C2225"/>
<path d="M46.3638 46.3717H39.0336V53.4773H35.2157V36.0894H47.2801V38.9914H39.0336V43.4817H46.3638V46.3717Z" fill="#8C2225"/>
<path d="M59.4666 49.8947H52.7727L51.5001 53.4773H47.4404L54.338 36.0894H57.8758L64.8116 53.4773H60.752L59.4666 49.8947ZM53.8035 46.9927H58.4358L56.1069 40.4842L53.8035 46.9927Z" fill="#8C2225"/>
<path d="M82.7631 47.6853C82.6188 49.5563 81.8807 51.0292 80.5487 52.104C79.2252 53.1788 77.4775 53.7162 75.3055 53.7162C72.93 53.7162 71.0593 52.9678 69.6933 51.471C68.3359 49.9663 67.6571 47.9043 67.6571 45.2849V44.2221C67.6571 42.5502 67.9711 41.0773 68.5989 39.8035C69.2267 38.5296 70.1218 37.5543 71.2841 36.8776C72.4549 36.1929 73.8123 35.8506 75.3564 35.8506C77.4944 35.8506 79.2167 36.388 80.5233 37.4628C81.8298 38.5376 82.5849 40.0463 82.7885 41.9889H78.9707C78.8773 40.8663 78.5422 40.0543 77.9653 39.5527C77.3969 39.0431 76.5273 38.7884 75.3564 38.7884C74.0838 38.7884 73.1294 39.2183 72.4931 40.0781C71.8652 40.93 71.5429 42.2556 71.5259 44.0549V45.3685C71.5259 47.2475 71.8271 48.6208 72.4294 49.4886C73.0403 50.3564 73.999 50.7903 75.3055 50.7903C76.4848 50.7903 77.3629 50.5395 77.9399 50.038C78.5253 49.5284 78.8604 48.7442 78.9452 47.6853H82.7631Z" fill="#8C2225"/>
<path d="M100.791 38.9914H95.115V53.4773H91.2972V38.9914H85.6977V36.0894H100.791V38.9914Z" fill="#8C2225"/>
<path d="M119.799 45.1775C119.799 46.8892 119.476 48.3899 118.831 49.6797C118.187 50.9695 117.262 51.9646 116.057 52.6652C114.861 53.3659 113.486 53.7162 111.934 53.7162C110.398 53.7162 109.028 53.3698 107.823 52.6772C106.619 51.9845 105.685 50.9973 105.024 49.7155C104.362 48.4258 104.027 46.9449 104.018 45.273V44.4132C104.018 42.7014 104.345 41.1967 104.998 39.899C105.66 38.5933 106.589 37.5942 107.785 36.9015C108.99 36.2009 110.364 35.8506 111.908 35.8506C113.453 35.8506 114.823 36.2009 116.019 36.9015C117.224 37.5942 118.153 38.5933 118.806 39.899C119.468 41.1967 119.799 42.6975 119.799 44.4012V45.1775ZM115.93 44.3893C115.93 42.5661 115.582 41.1808 114.886 40.2334C114.191 39.286 113.198 38.8123 111.908 38.8123C110.627 38.8123 109.639 39.282 108.943 40.2214C108.248 41.1529 107.895 42.5223 107.887 44.3296V45.1775C107.887 46.9529 108.235 48.3302 108.93 49.3095C109.626 50.2887 110.627 50.7784 111.934 50.7784C113.215 50.7784 114.199 50.3086 114.886 49.3692C115.574 48.4218 115.921 47.0444 115.93 45.2372V44.3893Z" fill="#8C2225"/>
<path d="M131.387 47.1121H128.345V53.4773H124.528V36.0894H131.412C133.601 36.0894 135.29 36.5472 136.477 37.4628C137.665 38.3784 138.259 39.6721 138.259 41.344C138.259 42.5303 137.983 43.5215 137.432 44.3176C136.889 45.1058 136.062 45.7348 134.95 46.2045L138.959 53.3101V53.4773H134.861L131.387 47.1121ZM128.345 44.2101H131.425C132.384 44.2101 133.126 43.9832 133.652 43.5294C134.178 43.0677 134.441 42.4347 134.441 41.6306C134.441 40.8106 134.191 40.1657 133.69 39.696C133.198 39.2263 132.439 38.9914 131.412 38.9914H128.345V44.2101Z" fill="#8C2225"/>
<path d="M165.843 48.0555C165.63 49.8867 164.931 51.2879 163.743 52.2592C162.563 53.2305 160.99 53.7162 159.021 53.7162C157.647 53.7162 156.429 53.3937 155.369 52.7488C154.317 52.104 153.502 51.1924 152.926 50.0141C152.349 48.8278 152.056 47.4744 152.047 45.9537V43.6966C152.047 42.1521 152.336 40.7827 152.913 39.5885C153.49 38.3943 154.317 37.4747 155.394 36.8298C156.48 36.177 157.728 35.8506 159.136 35.8506C161.121 35.8506 162.686 36.3561 163.832 37.3672C164.986 38.3704 165.656 39.7597 165.843 41.5351H164.265C163.874 38.5814 162.165 37.1045 159.136 37.1045C157.456 37.1045 156.116 37.6937 155.114 38.872C154.122 40.0503 153.625 41.6784 153.625 43.7563V45.8821C153.625 47.8884 154.109 49.4886 155.076 50.6828C156.052 51.8771 157.367 52.4742 159.021 52.4742C160.659 52.4742 161.893 52.1079 162.725 51.3755C163.556 50.6351 164.069 49.5284 164.265 48.0555H165.843Z" fill="#8C2225"/>
<path d="M181.46 48.6049H173.048L171.139 53.4773H169.498L176.51 36.0894H177.999L185.011 53.4773H183.382L181.46 48.6049ZM173.532 47.351H180.964L177.248 37.8808L173.532 47.351Z" fill="#8C2225"/>
<path d="M191.122 46.3956V53.4773H189.557V36.0894H195.869C197.795 36.0894 199.314 36.5512 200.425 37.4747C201.545 38.3983 202.105 39.6681 202.105 41.2843C202.105 42.9164 201.566 44.1783 200.489 45.07C199.42 45.9537 197.867 46.3956 195.831 46.3956H191.122ZM191.122 45.1536H195.869C197.388 45.1536 198.546 44.8152 199.343 44.1385C200.141 43.4618 200.54 42.5183 200.54 41.3082C200.54 40.106 200.141 39.1506 199.343 38.4421C198.554 37.7255 197.43 37.3593 195.971 37.3434H191.122V45.1536Z" fill="#8C2225"/>
<path d="M209.336 53.4773H207.771V36.0894H209.336V53.4773Z" fill="#8C2225"/>
<path d="M228.377 37.3434H222.027V53.4773H220.462V37.3434H214.124V36.0894H228.377V37.3434Z" fill="#8C2225"/>
<path d="M242.175 48.6049H233.763L231.854 53.4773H230.213L237.225 36.0894H238.714L245.726 53.4773H244.097L242.175 48.6049ZM234.247 47.351H241.679L237.963 37.8808L234.247 47.351Z" fill="#8C2225"/>
<path d="M251.85 52.2353H261V53.4773H250.272V36.0894H251.85V52.2353Z" fill="#8C2225"/>
</g>
</svg>
