<svg width="281" height="83" viewBox="0 0 281 83" fill="none" xmlns="http://www.w3.org/2000/svg">
<mask id="mask0" mask-type="alpha" maskUnits="userSpaceOnUse" x="0" y="0" width="281" height="83">
<rect width="281" height="82.4134" fill="#C4C4C4"/>
</mask>
<g mask="url(#mask0)">
<path fill-rule="evenodd" clip-rule="evenodd" d="M58.0526 50.3592L38.0555 16H22L55.1685 73L68.3076 50.391L51.2267 20.9994L48.3104 16H42.542L62.5071 50.391L55.1685 63.0329L30.7167 20.9994H35.1712L55.1685 55.3267L58.0526 50.3592Z" fill="#002396"/>
<path fill-rule="evenodd" clip-rule="evenodd" d="M60.8408 29.8838L70.5511 46.538L88.3049 16H68.7564H63.0521L70.5189 28.9285L73.4032 23.9609L71.6727 20.9994H79.5882L70.5511 36.571L66.6093 29.8201L58.5656 16H52.7971L60.8408 29.8838Z" fill="#AFB4B9"/>
<path d="M140.477 40.2327V29.597H143.714V46.697H141.695V46.7289L132.658 35.2015V46.7289H129.421V29.6289H132.049L140.477 40.2327ZM162.974 29.6607H166.179V39.4366C166.179 41.8887 165.506 43.7674 164.127 45.1048C162.781 46.4104 160.955 47.0791 158.711 47.0791C156.532 47.0791 154.706 46.4104 153.264 45.1048C151.821 43.7993 151.085 41.8887 151.085 39.4366V29.6607H154.289V39.4366C154.289 40.9651 154.706 42.1115 155.507 42.9395C156.309 43.7674 157.397 44.1495 158.744 44.1495C160.057 44.1495 161.115 43.7355 161.852 42.9076C162.59 42.0797 162.942 40.9333 162.942 39.4366V29.6607H162.974ZM186.977 32.4311L184.414 33.7366C184.092 33.2272 183.58 32.7813 182.811 32.3992C182.074 32.0171 181.241 31.826 180.344 31.826C179.19 31.826 178.292 32.0489 177.684 32.463C177.075 32.8768 176.786 33.4183 176.786 34.087C176.786 34.5646 176.979 34.9468 177.362 35.2334C177.747 35.52 178.196 35.7428 178.677 35.8702C179.19 35.9976 179.83 36.1249 180.631 36.2204C181.432 36.316 182.137 36.4434 182.746 36.5708C183.356 36.6981 183.965 36.8891 184.605 37.1757C185.246 37.4306 185.759 37.7489 186.176 38.1311C186.592 38.4813 186.912 38.9908 187.169 39.5959C187.426 40.2009 187.554 40.9015 187.554 41.6976C187.554 42.9076 187.201 43.9585 186.529 44.7864C185.855 45.6143 184.957 46.2193 183.9 46.6014C182.842 46.9517 181.657 47.1427 180.344 47.1427C176.497 47.1427 173.997 45.7417 172.844 42.9395L175.536 41.5383C175.889 42.43 176.53 43.0987 177.395 43.5763C178.26 44.0221 179.254 44.2451 180.375 44.2451C181.497 44.2451 182.459 44.0221 183.195 43.6082C183.932 43.1942 184.317 42.5574 184.317 41.6657C184.317 40.2646 183.004 39.4366 180.344 39.15C179.35 39.0227 178.485 38.8953 177.78 38.7042C177.075 38.5132 176.37 38.2266 175.665 37.8763C174.991 37.4942 174.446 36.9847 174.094 36.3478C173.741 35.711 173.581 34.9149 173.581 33.9915C173.581 32.8768 173.934 31.9534 174.607 31.1573C175.28 30.3613 176.114 29.82 177.075 29.5015C178.036 29.183 179.094 29.0238 180.215 28.9919C183.612 29.0557 185.855 30.1702 186.977 32.4311ZM206.301 29.6607H209.506V39.4366C209.506 41.8887 208.832 43.7674 207.455 45.1048C206.109 46.4104 204.282 47.0791 202.039 47.0791C199.86 47.0791 198.034 46.4104 196.591 45.1048C195.149 43.7993 194.411 41.8887 194.411 39.4366V29.6607H197.616V39.4366C197.616 40.9651 198.034 42.1115 198.834 42.9395C199.635 43.7674 200.725 44.1495 202.071 44.1495C203.385 44.1495 204.442 43.7355 205.18 42.9076C205.916 42.0797 206.269 40.9333 206.269 39.4366V29.6607H206.301ZM218.831 46.697H215.306L223.03 29.6289H226.555L234.277 46.697H230.752L224.824 33.2272L218.831 46.697ZM239.919 29.6289H243.155V43.7355H252V46.697H239.919V29.6289ZM118.365 29.6607H121.569V39.4366C121.569 41.8887 120.896 43.7674 119.518 45.1048C118.172 46.4104 116.346 47.0791 114.102 47.0791C111.923 47.0791 110.097 46.4104 108.655 45.1048C107.212 43.7993 106.475 41.8887 106.475 39.4366V29.6607H109.68V39.4366C109.68 40.9651 110.097 42.1115 110.898 42.9395C111.699 43.7674 112.789 44.1495 114.135 44.1495C115.448 44.1495 116.506 43.7355 117.243 42.9076C117.98 42.0797 118.333 40.9333 118.333 39.4366V29.6607H118.365Z" fill="#002396"/>
<path d="M228.092 53.3204L226.907 53.9255C226.747 53.6708 226.522 53.4797 226.17 53.2887C225.817 53.1294 225.434 53.0338 225.016 53.0338C224.471 53.0338 224.055 53.1294 223.766 53.3204C223.479 53.5115 223.35 53.7663 223.35 54.0847C223.35 54.3076 223.446 54.4987 223.606 54.626C223.766 54.7534 223.991 54.8808 224.215 54.9126C224.44 54.9763 224.76 55.04 225.112 55.0719C225.497 55.1036 225.817 55.1674 226.106 55.231C226.395 55.2947 226.682 55.3902 226.971 55.5176C227.26 55.6451 227.516 55.8042 227.709 55.9634C227.901 56.1227 228.061 56.3455 228.157 56.6321C228.285 56.9187 228.35 57.2372 228.35 57.6193C228.35 58.1925 228.189 58.6702 227.869 59.0523C227.549 59.4344 227.131 59.721 226.651 59.8802C226.17 60.0395 225.594 60.135 224.985 60.135C223.19 60.135 222.036 59.4981 221.491 58.1925L222.741 57.5557C222.901 57.9696 223.19 58.288 223.606 58.511C224.024 58.7338 224.471 58.8293 224.985 58.8293C225.497 58.8293 225.946 58.7338 226.299 58.5428C226.651 58.3517 226.811 58.0333 226.811 57.6512C226.811 57.0143 226.202 56.6004 224.952 56.4729C224.471 56.4093 224.087 56.3455 223.766 56.25C223.446 56.1545 223.094 56.0272 222.774 55.8679C222.452 55.7087 222.196 55.454 222.036 55.1674C221.876 54.8489 221.78 54.4987 221.78 54.0847C221.78 53.5753 221.94 53.1294 222.26 52.7791C222.581 52.4289 222.965 52.174 223.414 52.0149C223.862 51.8557 224.344 51.7919 224.889 51.7919C226.522 51.7283 227.58 52.2378 228.092 53.3204ZM215.499 58.4791V59.944H209.506V51.983H215.499V53.4478H211.012V55.2629H215.339V56.664H211.012V58.4472H215.499V58.4791ZM200.34 53.3842H198.034V55.9316H200.34C200.789 55.9316 201.141 55.8042 201.366 55.5495C201.59 55.2947 201.719 55.0081 201.719 54.6579C201.719 54.3076 201.59 54.021 201.366 53.7663C201.141 53.5115 200.789 53.3842 200.34 53.3842ZM203.641 59.8484V59.944H201.846L199.507 57.2691H198.065V59.944H196.559V51.983C196.975 51.983 197.616 51.983 198.481 51.983C199.315 51.983 199.956 51.983 200.372 51.983C201.27 51.983 201.975 52.2378 202.487 52.7472C203 53.2568 203.256 53.8936 203.256 54.5942C203.256 55.1992 203.096 55.7406 202.776 56.1864C202.456 56.6321 201.942 56.9506 201.237 57.078L203.641 59.8484ZM188.291 52.0149H189.797V56.5685C189.797 57.7149 189.476 58.6065 188.836 59.2115C188.195 59.8165 187.361 60.135 186.304 60.135C185.279 60.135 184.445 59.8165 183.772 59.2115C183.099 58.6065 182.746 57.7149 182.746 56.5685V52.0149H184.252V56.5685C184.252 57.2691 184.445 57.8104 184.797 58.1925C185.182 58.5746 185.662 58.7657 186.304 58.7657C186.912 58.7657 187.394 58.5746 187.746 58.1925C188.099 57.8104 188.259 57.2691 188.259 56.5685V52.0149H188.291ZM172.524 59.944V53.3523H169.992V51.983H176.594V53.3523H174.062V59.944H172.524ZM162.269 56.9187V51.983H163.775V59.944H162.846L158.647 54.5623V59.944H157.141V51.983H158.359L162.269 56.9187ZM150.571 58.4791V59.944H144.579V51.983H150.571V53.4478H146.085V55.2629H150.411V56.664H146.085V58.4472H150.571V58.4791ZM138.394 51.983L135.061 59.9757H133.491L130.158 51.983H131.856L134.26 58.1606L136.695 51.983H138.394Z" fill="#AFB4B9"/>
</g>
</svg>
