<svg width="178" height="44" viewBox="0 0 178 44" fill="none" xmlns="http://www.w3.org/2000/svg">
<g clip-path="url(#clip0)">
<path d="M28.7735 15.5328C28.7735 7.34092 22.4037 0.700092 14.546 0.700092C6.68845 0.700092 0.318604 7.34092 0.318604 15.5328C0.318604 23.7247 6.68845 30.3655 14.546 30.3655C22.4037 30.3655 28.7735 23.7247 28.7735 15.5328Z" fill="url(#paint0_linear)"/>
<path d="M-0.278622 29.0343C-0.278622 37.2262 6.09122 43.867 13.9488 43.867C21.8064 43.867 28.1763 37.2262 28.1763 29.0343C28.1763 20.8424 21.8064 14.2016 13.9488 14.2016C6.09122 14.2016 -0.278622 20.8424 -0.278622 29.0343Z" fill="url(#paint1_linear)"/>
<path fill-rule="evenodd" clip-rule="evenodd" d="M49.0167 35.3475C45.1103 35.3475 41.9363 34.4407 39.425 33.0107L41.6224 26.3488H41.7968C43.0176 31.2318 46.8193 33.7431 50.3421 33.7431C52.3302 33.7431 53.7951 32.5921 53.7951 30.7435C53.7951 29.6274 53.3416 28.5811 51.3187 27.6742L45.5288 25.0234C42.1107 23.419 40.3319 20.559 40.3319 17.4897C40.3319 13.6879 42.7385 9.53732 49.7143 9.53732C52.8533 9.53732 56.4807 10.5488 58.5386 11.6998L56.0273 17.4199H55.8529C54.4578 13.1298 51.3536 11.072 48.3191 11.072C45.773 11.072 44.8661 12.3625 44.8661 13.5135C44.8661 14.6645 45.4591 15.7457 47.3076 16.6526L53.2719 19.4777C57.1085 21.2566 58.2595 23.4539 58.2595 26.4883C58.2595 31.4411 54.5624 35.3475 49.0167 35.3475ZM69.93 29.9762C71.674 29.9762 72.9645 29.453 73.9062 28.1276L74.1852 28.1974C73.2435 33.5687 69.6161 35.1731 66.8258 35.1731C62.8148 35.1731 58.8735 31.9643 58.8735 25.8605C58.8735 20.0009 62.3265 15.8155 67.07 15.8155C70.0347 15.8155 74.255 17.385 74.255 24.012H64.2099C64.7331 27.9533 66.8258 29.9762 69.93 29.9762ZM66.3027 16.9665C64.8726 16.9665 64.0704 18.815 64.0704 21.9541C64.0704 22.3029 64.0704 22.6168 64.1053 22.9307H68.4303C68.4303 18.3267 67.6978 16.9665 66.3027 16.9665ZM87.4253 29.9065L87.7392 30.0111C86.9719 32.5921 84.8791 35.1731 81.2518 35.1731C77.9383 35.1731 76.4734 33.0455 76.4734 30.1506V17.3153H74.7643V17.1409C77.45 14.8389 80.31 12.7113 83.0654 10.3047H83.1003V16.4084H86.3092V17.2804H83.1003V29.2089C83.1003 30.7087 83.763 31.6853 84.9838 31.6853C86.344 31.6853 87.1114 30.7784 87.4253 29.9065Z" fill="#0F0835"/>
<path d="M99.0835 10.3047V35.3475" stroke="#CECDD9" stroke-linecap="square"/>
<path d="M113.317 29V20.46H110.531V18.99H117.979V20.46H115.193V29H113.317ZM121.439 27.824C122.699 27.824 123.455 26.886 123.455 25.388V25.29C123.455 23.778 122.699 22.854 121.439 22.854C120.179 22.854 119.409 23.764 119.409 25.276V25.388C119.409 26.886 120.151 27.824 121.439 27.824ZM121.425 29.14C119.269 29.14 117.673 27.642 117.673 25.416V25.304C117.673 23.036 119.283 21.524 121.439 21.524C123.581 21.524 125.191 23.022 125.191 25.262V25.374C125.191 27.656 123.581 29.14 121.425 29.14ZM126.592 29V18.29H128.286V24.898L130.904 21.678H132.752L129.91 25.038L132.99 29H131.03L128.286 25.402V29H126.592ZM136.898 29.14C134.742 29.14 133.188 27.726 133.188 25.416V25.304C133.188 23.036 134.742 21.524 136.828 21.524C138.648 21.524 140.286 22.602 140.286 25.22V25.71H134.924C134.98 27.096 135.68 27.88 136.94 27.88C137.962 27.88 138.494 27.474 138.62 26.76H140.258C140.02 28.3 138.774 29.14 136.898 29.14ZM134.952 24.576H138.606C138.522 23.316 137.878 22.756 136.828 22.756C135.806 22.756 135.12 23.442 134.952 24.576ZM141.673 29V21.678H143.367V22.84C143.717 22.126 144.529 21.524 145.733 21.524C147.203 21.524 148.239 22.378 148.239 24.394V29H146.545V24.548C146.545 23.442 146.097 22.938 145.089 22.938C144.137 22.938 143.367 23.526 143.367 24.688V29H141.673ZM153.603 29.14C150.873 29.14 149.725 27.782 149.585 25.892H151.377C151.503 26.9 151.909 27.74 153.603 27.74C154.709 27.74 155.493 27.124 155.493 26.2C155.493 25.276 155.031 24.926 153.407 24.66C151.013 24.338 149.879 23.61 149.879 21.734C149.879 20.096 151.279 18.864 153.365 18.864C155.521 18.864 156.809 19.844 157.005 21.762H155.297C155.115 20.712 154.513 20.264 153.365 20.264C152.231 20.264 151.643 20.81 151.643 21.58C151.643 22.392 151.979 22.798 153.715 23.05C156.067 23.372 157.285 24.044 157.285 26.046C157.285 27.782 155.815 29.14 153.603 29.14ZM162.046 29.14C159.89 29.14 158.336 27.726 158.336 25.416V25.304C158.336 23.036 159.89 21.524 161.976 21.524C163.796 21.524 165.434 22.602 165.434 25.22V25.71H160.072C160.128 27.096 160.828 27.88 162.088 27.88C163.11 27.88 163.642 27.474 163.768 26.76H165.406C165.168 28.3 163.922 29.14 162.046 29.14ZM160.1 24.576H163.754C163.67 23.316 163.026 22.756 161.976 22.756C160.954 22.756 160.268 23.442 160.1 24.576ZM169.314 29.126C167.858 29.126 167.102 28.342 167.102 26.956V22.952H166.122V21.678H167.102V20.068H168.796V21.678H170.406V22.952H168.796V26.802C168.796 27.446 169.104 27.74 169.636 27.74C169.972 27.74 170.224 27.698 170.462 27.6V28.944C170.196 29.042 169.832 29.126 169.314 29.126ZM174.439 29.14C172.549 29.14 171.443 28.272 171.373 26.718H172.969C173.053 27.46 173.431 27.894 174.425 27.894C175.335 27.894 175.741 27.572 175.741 26.956C175.741 26.354 175.251 26.13 174.173 25.948C172.241 25.64 171.527 25.094 171.527 23.722C171.527 22.252 172.899 21.524 174.271 21.524C175.769 21.524 176.959 22.084 177.141 23.736H175.573C175.433 23.064 175.055 22.756 174.271 22.756C173.543 22.756 173.109 23.106 173.109 23.624C173.109 24.156 173.459 24.366 174.621 24.562C176.343 24.828 177.365 25.248 177.365 26.802C177.365 28.286 176.315 29.14 174.439 29.14Z" fill="black"/>
</g>
<defs>
<linearGradient id="paint0_linear" x1="0.318604" y1="15.5328" x2="28.7735" y2="15.5328" gradientUnits="userSpaceOnUse">
<stop/>
<stop offset="1" stop-opacity="0"/>
</linearGradient>
<linearGradient id="paint1_linear" x1="28.1763" y1="29.0343" x2="-0.278622" y2="29.0343" gradientUnits="userSpaceOnUse">
<stop/>
<stop offset="1" stop-opacity="0"/>
</linearGradient>
<clipPath id="clip0">
<rect width="178" height="44" fill="white"/>
</clipPath>
</defs>
</svg>
