<svg width="111" height="50" viewBox="0 0 111 50" fill="none" xmlns="http://www.w3.org/2000/svg">
<g clip-path="url(#clip0)">
<path d="M55.216 34.288C58.864 34.288 60.88 32.344 62.032 30.352L59.104 28.936C58.432 30.256 56.992 31.264 55.216 31.264C52.432 31.264 50.32 29.032 50.32 26.008C50.32 22.984 52.432 20.752 55.216 20.752C56.992 20.752 58.432 21.784 59.104 23.08L62.032 21.64C60.904 19.648 58.864 17.728 55.216 17.728C50.536 17.728 46.816 21.088 46.816 26.008C46.816 30.928 50.536 34.288 55.216 34.288ZM63.2446 28.192C63.2446 31.912 65.9086 34.288 69.4366 34.288C71.2366 34.288 73.0366 33.76 74.2126 32.68L72.8686 30.712C72.1246 31.432 70.8526 31.864 69.7726 31.864C67.8046 31.864 66.6286 30.64 66.4366 29.176H75.0526V28.504C75.0526 24.712 72.7006 22.12 69.2446 22.12C65.7166 22.12 63.2446 24.832 63.2446 28.192ZM69.2446 24.544C71.2606 24.544 72.0286 26.008 72.1006 27.112H66.3886C66.5326 25.96 67.3486 24.544 69.2446 24.544ZM85.0782 34H88.1262V25.816C88.1262 23.56 86.9022 22.12 84.3582 22.12C82.4622 22.12 81.0462 23.032 80.3022 23.92V22.408H77.2542V34H80.3022V26.2C80.8062 25.504 81.7422 24.832 82.9422 24.832C84.2382 24.832 85.0782 25.384 85.0782 26.992V34ZM95.0406 34.288C96.3126 34.288 97.1286 33.952 97.5846 33.544L96.9366 31.24C96.7686 31.408 96.3366 31.576 95.8806 31.576C95.2086 31.576 94.8246 31.024 94.8246 30.304V25.072H97.1766V22.408H94.8246V19.24H91.7526V22.408H89.8326V25.072H91.7526V31.12C91.7526 33.184 92.9046 34.288 95.0406 34.288Z" fill="black"/>
<path d="M14.2795 17.6813C16.1577 17.6813 17.6802 16.1588 17.6802 14.2806C17.6802 12.4025 16.1577 10.88 14.2795 10.88C12.4014 10.88 10.8789 12.4025 10.8789 14.2806C10.8789 16.1588 12.4014 17.6813 14.2795 17.6813Z" fill="black" stroke="black" stroke-width="0.5"/>
<path d="M14.2795 6.80128C16.1577 6.80128 17.6802 5.27876 17.6802 3.40064C17.6802 1.52252 16.1577 0 14.2795 0C12.4014 0 10.8789 1.52252 10.8789 3.40064C10.8789 5.27876 12.4014 6.80128 14.2795 6.80128Z" fill="black" stroke="black" stroke-width="0.5"/>
<path d="M25.1616 17.6813C27.0397 17.6813 28.5623 16.1588 28.5623 14.2806C28.5623 12.4025 27.0397 10.88 25.1616 10.88C23.2835 10.88 21.761 12.4025 21.761 14.2806C21.761 16.1588 23.2835 17.6813 25.1616 17.6813Z" fill="black" stroke="black" stroke-width="0.5"/>
<path d="M3.40064 17.6813C5.27876 17.6813 6.80128 16.1588 6.80128 14.2806C6.80128 12.4025 5.27876 10.88 3.40064 10.88C1.52252 10.88 0 12.4025 0 14.2806C0 16.1588 1.52252 17.6813 3.40064 17.6813Z" fill="black" stroke="black" stroke-width="0.5"/>
<path d="M3.40064 28.5613C5.27876 28.5613 6.80128 27.0388 6.80128 25.1606C6.80128 23.2825 5.27876 21.76 3.40064 21.76C1.52252 21.76 0 23.2825 0 25.1606C0 27.0388 1.52252 28.5613 3.40064 28.5613Z" fill="black" stroke="black" stroke-width="0.5"/>
<path d="M14.2795 39.1513C16.1577 39.1513 17.6802 37.6288 17.6802 35.7506C17.6802 33.8725 16.1577 32.35 14.2795 32.35C12.4014 32.35 10.8789 33.8725 10.8789 35.7506C10.8789 37.6288 12.4014 39.1513 14.2795 39.1513Z" fill="black" stroke="black" stroke-width="0.5"/>
<path d="M14.2795 49.7513C16.1577 49.7513 17.6802 48.2288 17.6802 46.3506C17.6802 44.4725 16.1577 42.95 14.2795 42.95C12.4014 42.95 10.8789 44.4725 10.8789 46.3506C10.8789 48.2288 12.4014 49.7513 14.2795 49.7513Z" fill="black" stroke="black" stroke-width="0.5"/>
<path d="M25.1616 39.1513C27.0397 39.1513 28.5623 37.6288 28.5623 35.7506C28.5623 33.8725 27.0397 32.35 25.1616 32.35C23.2835 32.35 21.761 33.8725 21.761 35.7506C21.761 37.6288 23.2835 39.1513 25.1616 39.1513Z" fill="black" stroke="black" stroke-width="0.5"/>
<path d="M3.40064 39.1513C5.27876 39.1513 6.80128 37.6288 6.80128 35.7506C6.80128 33.8725 5.27876 32.35 3.40064 32.35C1.52252 32.35 0 33.8725 0 35.7506C0 37.6288 1.52252 39.1513 3.40064 39.1513Z" fill="black" stroke="black" stroke-width="0.5"/>
</g>
<defs>
<clipPath id="clip0">
<rect width="111" height="50" fill="white"/>
</clipPath>
</defs>
</svg>
