<svg width="30" height="50" viewBox="0 0 30 50" fill="none" xmlns="http://www.w3.org/2000/svg">
<path d="M19.1579 49.6925C19.0529 49.6808 18.9655 49.6458 18.9655 49.6225C18.9655 49.5992 19.0996 49.2375 19.2628 48.8233C19.7585 47.5575 20.3999 45.4867 20.5923 44.5125C20.6331 44.32 20.7264 43.8592 20.8022 43.4917C21.3095 41.0417 21.4728 38.0608 21.2687 35.1208C20.948 30.6058 19.4436 25.8867 17.0646 21.9375C16.2657 20.6133 15.9625 20.1642 15.1578 19.1083C14.2132 17.8717 14.2249 17.8892 13.6301 17.5275C13.3152 17.3408 13.0353 17.16 12.9945 17.1308C12.9595 17.1017 12.8138 17.0142 12.668 16.9325C11.7409 16.4133 8.86034 14.3892 7.92738 13.6017C5.22763 11.3208 3.51331 9.32583 2.33545 7.09167C1.35001 5.23667 0.831055 3.25917 0.831055 1.41V0.77417L1.43165 0.815003C3.42585 0.94917 5.97983 2.01084 7.62417 3.38167C8.18394 3.84834 9.14606 4.81084 9.53673 5.28334C9.73499 5.5225 9.90992 5.7325 9.93324 5.75C9.95073 5.7675 10.0674 5.925 10.1898 6.1C10.3123 6.275 10.4697 6.5025 10.5397 6.59584C10.7962 6.93417 11.4843 8.12417 11.8108 8.78333C12.4347 10.0433 12.9829 11.5192 13.4493 13.2167C13.5893 13.7125 13.9333 15.4975 14.0441 16.2792L14.1432 16.9792L14.4698 17.37C15.566 18.6883 16.429 19.8842 17.3853 21.4008C17.5777 21.71 17.7409 21.9842 17.7409 22.0017C17.7409 22.025 17.8284 22.1883 17.9392 22.3692C18.2599 22.8942 19.0937 24.6092 19.4786 25.525C20.7497 28.5642 21.4961 31.6033 21.7935 34.9575C21.8984 36.1008 21.9101 38.79 21.8226 39.9042C21.7468 40.8433 21.6127 41.9283 21.4728 42.7333C21.4145 43.0717 21.3212 43.585 21.2745 43.8708C21.1054 44.8275 20.6448 46.525 20.2366 47.6917C20.0733 48.1583 19.8984 48.6717 19.8401 48.8292C19.6535 49.36 19.4786 49.7333 19.4086 49.7217C19.3736 49.7217 19.257 49.7042 19.1579 49.6925Z" fill="black"/>
<path d="M20.0444 37.8275C18.6974 37.635 17.1347 36.865 16.2426 35.955C15.0414 34.7358 14.3883 33.2541 14.1492 31.23L14.1143 30.8975L14.5399 30.9266C15.572 31.0025 16.8607 31.4633 17.7062 32.07C18.2426 32.4491 18.9831 33.1958 19.3505 33.7266C19.8986 34.5083 20.4001 35.7275 20.6158 36.7833C20.8607 37.9966 20.8666 37.8916 20.61 37.8858C20.4934 37.88 20.2368 37.8566 20.0444 37.8275Z" fill="black"/>
<path d="M22.7264 37.1565C22.7439 36.964 22.7847 36.3398 22.8197 35.7623C22.9946 32.7406 23.3387 31.1481 24.0617 29.999C24.8547 28.739 26.2367 27.899 28.5166 27.2981C28.8431 27.2165 29.1347 27.1581 29.1522 27.1815C29.2047 27.2281 28.7557 29.4798 28.5574 30.1623C27.9743 32.204 27.3038 33.7031 26.4641 34.8581C26.0559 35.424 25.0413 36.3748 24.4932 36.7131C23.9568 37.0456 23.1929 37.4015 22.8839 37.4598L22.6973 37.4948L22.7264 37.1565Z" fill="black"/>
<path d="M18.3125 30.3376C15.053 29.6493 13.397 28.4418 12.1025 25.7876C11.9043 25.3734 11.6652 24.8193 11.5835 24.5626C11.4961 24.3059 11.4145 24.0668 11.4028 24.0318C11.362 23.9209 12.2075 23.8801 13.0471 23.9443C15.0647 24.1076 16.7673 25.0059 17.9685 26.5459C18.3184 26.9951 18.779 27.8584 18.9656 28.4126C19.1522 28.9784 19.3796 30.5476 19.2746 30.5359C19.2513 30.5359 18.8198 30.4426 18.3125 30.3376Z" fill="black"/>
<path d="M21.2625 28.7566C21.3325 27.5141 21.554 26.3591 21.9564 25.1166C22.1838 24.4225 22.8194 23.0983 23.1343 22.6608C23.245 22.5033 23.3383 22.3575 23.3383 22.34C23.3383 22.2758 24.0614 21.3716 24.4229 20.9808C24.6153 20.7708 25.0468 20.3333 25.3734 20.0125L25.9681 19.4291L26.0847 19.575C26.5046 20.1116 26.8836 20.9225 27.0702 21.7041C27.216 22.2933 27.2276 23.32 27.0935 23.8975C26.9186 24.6616 26.4638 25.7175 26.1605 26.0558C26.1139 26.1025 26.0789 26.1725 26.0789 26.2016C26.0731 26.3008 25.2392 27.2575 24.8369 27.6308C23.7174 28.6575 22.2421 29.4333 21.4199 29.4333H21.2217L21.2625 28.7566Z" fill="black"/>
<path d="M19.1406 23.0925C19.1406 22.5092 19.2514 20.5083 19.3156 19.8083C19.4438 18.5308 19.7354 16.8625 19.992 15.9583C20.1494 15.3983 20.5925 14.3367 20.8491 13.8992C21.2165 13.275 21.9337 12.5808 22.5051 12.3067C22.9191 12.1025 23.0008 12.085 23.4789 12.085L23.9979 12.0792L24.0503 12.2542C24.0795 12.3533 24.1611 12.68 24.2428 12.9833C24.9483 15.7542 24.5635 18.5658 23.1815 20.7067C22.5226 21.7333 21.5547 22.6492 20.6684 23.0983C20.3302 23.2733 19.5721 23.4833 19.3039 23.4833H19.1406V23.0925Z" fill="black"/>
<path d="M14.7674 22.9758C11.228 22.6141 8.96553 21.5 7.09378 19.1958C6.59815 18.5891 5.49609 16.8041 5.49609 16.6116C5.49609 16.5358 6.79057 16.4658 7.40866 16.5125C10.1725 16.7166 11.9918 17.4691 13.4612 19.0033C14.0152 19.5866 14.2776 19.9483 14.6449 20.6366C14.9481 21.1966 15.3505 22.4741 15.3505 22.865C15.3505 23.0283 15.3155 23.0341 14.7674 22.9758Z" fill="black"/>
<path d="M16.8778 18.4608C16.6095 16.845 16.0031 14.71 15.3326 13.0125C15.2159 12.7266 15.0293 12.225 14.9127 11.9041C14.0322 9.46579 13.834 8.62579 13.834 7.32496C13.834 6.48496 13.9156 5.96579 14.178 5.17829C14.3413 4.67079 14.7203 3.8833 14.9127 3.6208C15.0002 3.50996 15.006 3.50996 15.1926 3.61496C15.5833 3.84246 16.5921 4.89829 16.9769 5.48746C17.0585 5.61579 17.146 5.73246 17.1635 5.74996C17.2685 5.83746 17.8107 6.75329 18.1781 7.47079C18.8545 8.80079 19.216 9.86829 19.5017 11.3791C19.6009 11.9158 19.6009 13.8116 19.5017 14.3541C19.1927 16.0283 18.3414 17.79 17.2918 18.9333L17.0061 19.2425L16.8778 18.4608Z" fill="black"/>
<path d="M20.0444 37.8274C18.6974 37.6349 17.1347 36.8649 16.2426 35.9549C15.0414 34.7357 14.3883 33.2541 14.1492 31.2299L14.1143 30.8974L14.5399 30.9266C15.572 31.0024 16.8607 31.4632 17.7062 32.0699C18.2426 32.4491 18.9832 33.1957 19.3505 33.7266C19.8986 34.5082 20.4001 35.7274 20.6158 36.7832C20.8607 37.9966 20.8666 37.8916 20.61 37.8857C20.4934 37.8799 20.2368 37.8566 20.0444 37.8274Z" fill="black"/>
<path d="M22.7264 37.1567C22.7439 36.9642 22.7847 36.34 22.8197 35.7625C22.948 33.5634 23.2104 31.8717 23.5661 30.985C24.3299 29.0834 25.7352 28.0334 28.5166 27.2984C28.8431 27.2167 29.1347 27.1584 29.1522 27.1817C29.2047 27.2284 28.7557 29.48 28.5574 30.1625C27.9743 32.2042 27.3038 33.7034 26.4641 34.8584C26.0559 35.4242 25.0413 36.375 24.4932 36.7134C23.9568 37.0459 23.1929 37.4017 22.8839 37.46L22.6973 37.495L22.7264 37.1567Z" fill="black"/>
<path d="M18.3125 30.3375C15.053 29.6492 13.397 28.4417 12.1025 25.7875C11.9043 25.3734 11.6652 24.8192 11.5835 24.5625C11.4961 24.3059 11.4145 24.0667 11.4028 24.0317C11.362 23.9209 12.2075 23.88 13.0471 23.9442C15.0647 24.1075 16.7673 25.0059 17.9685 26.5459C18.3184 26.995 18.779 27.8584 18.9656 28.4125C19.1522 28.9784 19.3796 30.5475 19.2746 30.5359C19.2513 30.5359 18.8198 30.4425 18.3125 30.3375Z" fill="black"/>
<path d="M21.2635 28.7568C21.3334 27.5143 21.555 26.3593 21.9574 25.1168C22.1848 24.4227 22.8204 23.0985 23.1352 22.661C23.246 22.5035 23.3393 22.3577 23.3393 22.3402C23.3393 22.276 24.0624 21.3718 24.4239 20.981C24.6163 20.771 25.0478 20.3335 25.3743 20.0127L25.9691 19.4293L26.0857 19.5752C26.5056 20.1118 26.8846 20.9227 27.0712 21.7043C27.2169 22.2935 27.2286 23.3202 27.0945 23.8977C26.9196 24.6618 26.4647 25.7177 26.1615 26.056C26.1149 26.1027 26.0799 26.1727 26.0799 26.2018C26.0741 26.301 25.2402 27.2576 24.8379 27.631C23.7183 28.6576 22.2431 29.4335 21.4209 29.4335H21.2227L21.2635 28.7568Z" fill="black"/>
<path d="M19.1406 23.0924C19.1406 22.5091 19.2514 20.5083 19.3156 19.8083C19.4438 18.5308 19.7354 16.8624 19.992 15.9583C20.1494 15.3983 20.5925 14.3366 20.8491 13.8991C21.2165 13.2749 21.9337 12.5808 22.5051 12.3066C22.9191 12.1024 23.0008 12.0849 23.4789 12.0849L23.9979 12.0791L24.0503 12.2541C24.0795 12.3533 24.1611 12.6799 24.2428 12.9833C24.9483 15.7541 24.5635 18.5658 23.1815 20.7066C22.5226 21.7333 21.5547 22.6491 20.6683 23.0983C20.3302 23.2733 19.5721 23.4833 19.3039 23.4833H19.1406V23.0924Z" fill="black"/>
<path d="M14.7674 22.9758C10.8489 22.5733 8.40576 21.2142 6.50486 18.3792C6.13167 17.8192 5.49609 16.7108 5.49609 16.6117C5.49609 16.5183 6.91886 16.4658 7.71187 16.5358C9.26875 16.6758 10.3125 16.9442 11.4495 17.51C12.2017 17.8833 12.6857 18.245 13.3679 18.9275C14.0035 19.5633 14.2484 19.8958 14.6449 20.6367C14.9481 21.1967 15.3505 22.4742 15.3505 22.865C15.3505 23.0283 15.3155 23.0342 14.7674 22.9758Z" fill="black"/>
<path d="M16.878 18.4609C16.6098 16.8451 16.0034 14.7101 15.3328 13.0126C15.1346 12.5167 14.9247 11.9451 14.534 10.8542C14.3007 10.2009 14.0267 9.18008 13.9217 8.57924C13.8109 7.93758 13.8109 6.71258 13.9159 6.14674C14.0733 5.31258 14.5573 4.09341 14.913 3.62675C15.0005 3.51008 15.0005 3.51008 15.1987 3.62675C15.4378 3.76091 15.9626 4.25675 16.4174 4.77591C17.2804 5.76174 18.2833 7.47674 18.8373 8.91174C19.0705 9.51841 19.3446 10.5276 19.502 11.3792C19.6011 11.9159 19.6011 13.8117 19.502 14.3542C19.193 16.0284 18.3416 17.7901 17.292 18.9334L17.0063 19.2426L16.878 18.4609Z" fill="black"/>
<path d="M22.7264 37.1567C22.7439 36.9642 22.7847 36.34 22.8197 35.7625C22.948 33.5634 23.2104 31.8717 23.5661 30.985C24.3299 29.0834 25.7352 28.0334 28.5166 27.2984C28.8431 27.2167 29.1347 27.1584 29.1522 27.1817C29.2047 27.2284 28.7557 29.48 28.5574 30.1625C27.9743 32.2042 27.3038 33.7034 26.4641 34.8584C26.0559 35.4242 25.0413 36.375 24.4932 36.7134C23.9568 37.0459 23.1929 37.4017 22.8839 37.46L22.6973 37.495L22.7264 37.1567Z" fill="black"/>
<path d="M18.3125 30.3375C15.053 29.6492 13.397 28.4417 12.1025 25.7875C11.9043 25.3734 11.6652 24.8192 11.5835 24.5625C11.4961 24.3059 11.4145 24.0667 11.4028 24.0317C11.362 23.9209 12.2075 23.88 13.0471 23.9442C15.0647 24.1075 16.7673 25.0059 17.9685 26.5459C18.3184 26.995 18.779 27.8584 18.9656 28.4125C19.1522 28.9784 19.3796 30.5475 19.2746 30.5359C19.2513 30.5359 18.8198 30.4425 18.3125 30.3375Z" fill="black"/>
<path d="M21.2635 28.7568C21.3334 27.5143 21.555 26.3593 21.9574 25.1168C22.1848 24.4227 22.8204 23.0985 23.1352 22.661C23.246 22.5035 23.3393 22.3577 23.3393 22.3402C23.3393 22.276 24.0624 21.3718 24.4239 20.981C24.6163 20.771 25.0478 20.3335 25.3743 20.0127L25.9691 19.4293L26.0857 19.5752C26.5056 20.1118 26.8846 20.9227 27.0712 21.7043C27.2169 22.2935 27.2286 23.3202 27.0945 23.8977C26.9196 24.6618 26.4647 25.7177 26.1615 26.056C26.1149 26.1027 26.0799 26.1727 26.0799 26.2018C26.0741 26.301 25.2402 27.2576 24.8379 27.631C23.7183 28.6576 22.2431 29.4335 21.4209 29.4335H21.2227L21.2635 28.7568Z" fill="black"/>
<path d="M19.1406 23.0924C19.1406 22.5091 19.2514 20.5083 19.3156 19.8083C19.4438 18.5308 19.7354 16.8624 19.992 15.9583C20.1494 15.3983 20.5925 14.3366 20.8491 13.8991C21.2165 13.2749 21.9337 12.5808 22.5051 12.3066C22.9191 12.1024 23.0008 12.0849 23.4789 12.0849L23.9979 12.0791L24.0503 12.2541C24.0795 12.3533 24.1611 12.6799 24.2428 12.9833C24.9483 15.7541 24.5635 18.5658 23.1815 20.7066C22.5226 21.7333 21.5547 22.6491 20.6683 23.0983C20.3302 23.2733 19.5721 23.4833 19.3039 23.4833H19.1406V23.0924Z" fill="black"/>
<path d="M14.7674 22.9758C10.8489 22.5733 8.40576 21.2142 6.50486 18.3792C6.13167 17.8192 5.49609 16.7108 5.49609 16.6117C5.49609 16.5183 6.91886 16.4658 7.71187 16.5358C9.26875 16.6758 10.3125 16.9442 11.4495 17.51C12.2017 17.8833 12.6857 18.245 13.3679 18.9275C14.0035 19.5633 14.2484 19.8958 14.6449 20.6367C14.9481 21.1967 15.3505 22.4742 15.3505 22.865C15.3505 23.0283 15.3155 23.0342 14.7674 22.9758Z" fill="black"/>
<path d="M16.878 18.4609C16.6098 16.8451 16.0034 14.7101 15.3328 13.0126C15.1346 12.5167 14.9247 11.9451 14.534 10.8542C14.3007 10.2009 14.0267 9.18008 13.9217 8.57924C13.8109 7.93758 13.8109 6.71258 13.9159 6.14674C14.0733 5.31258 14.5573 4.09341 14.913 3.62675C15.0005 3.51008 15.0005 3.51008 15.1987 3.62675C15.4378 3.76091 15.9626 4.25675 16.4174 4.77591C17.2804 5.76174 18.2833 7.47674 18.8373 8.91174C19.0705 9.51841 19.3446 10.5276 19.502 11.3792C19.6011 11.9159 19.6011 13.8117 19.502 14.3542C19.193 16.0284 18.3416 17.7901 17.292 18.9334L17.0063 19.2426L16.878 18.4609Z" fill="black"/>
<path d="M22.7264 37.1567C22.7439 36.9642 22.7847 36.34 22.8197 35.7625C22.948 33.5634 23.2104 31.8717 23.5661 30.985C24.3299 29.0834 25.7352 28.0334 28.5166 27.2984C28.8431 27.2167 29.1347 27.1584 29.1522 27.1817C29.2047 27.2284 28.7557 29.48 28.5574 30.1625C27.9743 32.2042 27.3038 33.7034 26.4641 34.8584C26.0559 35.4242 25.0413 36.375 24.4932 36.7134C23.9568 37.0459 23.1929 37.4017 22.8839 37.46L22.6973 37.495L22.7264 37.1567Z" fill="black"/>
<path d="M18.3184 30.3375C17.3038 30.1275 17.228 30.1042 16.3125 29.7658C14.3474 29.0425 13.1288 27.8875 12.1025 25.7875C11.9043 25.3734 11.6652 24.8192 11.5835 24.5625C11.4961 24.3059 11.4145 24.0667 11.4028 24.0317C11.362 23.9209 12.2075 23.88 13.0471 23.9442C15.4787 24.1425 17.502 25.4434 18.5633 27.4967C19.0064 28.36 19.1639 28.955 19.2863 30.2092C19.3038 30.39 19.298 30.5417 19.2746 30.5358C19.2455 30.5358 18.8198 30.4425 18.3184 30.3375Z" fill="black"/>
<path d="M21.2635 28.751C21.3393 27.4851 21.555 26.3593 21.9574 25.1168C22.1848 24.4227 22.8204 23.0985 23.1352 22.661C23.246 22.5035 23.3393 22.3577 23.3393 22.3402C23.3393 22.2877 24.1731 21.2552 24.5055 20.8877C24.6571 20.7302 25.0478 20.3335 25.3743 20.0127L25.9691 19.4293L26.0857 19.5752C26.1499 19.6568 26.3015 19.8902 26.4298 20.106C27.2694 21.4885 27.4269 23.1802 26.8554 24.7085C26.6805 25.1752 26.4064 25.7235 26.2198 25.9743C26.144 26.0735 26.0799 26.1785 26.0799 26.2077C26.0741 26.2952 25.2344 27.2576 24.8262 27.6368C23.7417 28.6401 22.2314 29.4335 21.4151 29.4335H21.2227L21.2635 28.751Z" fill="black"/>
<path d="M14.7674 22.9758C10.8489 22.5733 8.40576 21.2142 6.50486 18.3792C6.13167 17.8192 5.49609 16.7108 5.49609 16.6117C5.49609 16.5183 6.91886 16.4658 7.71187 16.5358C9.26875 16.6758 10.3125 16.9442 11.4495 17.51C12.2017 17.8833 12.6857 18.245 13.3679 18.9275C14.0035 19.5633 14.2484 19.8958 14.6449 20.6367C14.9481 21.1967 15.3505 22.4742 15.3505 22.865C15.3505 23.0283 15.3155 23.0342 14.7674 22.9758Z" fill="black"/>
<path d="M16.878 18.4609C16.6098 16.8451 16.0034 14.7101 15.3328 13.0126C15.1346 12.5167 14.9247 11.9451 14.534 10.8542C14.3007 10.2009 14.0267 9.18008 13.9217 8.57924C13.8109 7.93758 13.8109 6.71258 13.9159 6.14674C14.0733 5.31258 14.5573 4.09341 14.913 3.62675C15.0005 3.51008 15.0005 3.51008 15.1987 3.62675C15.4378 3.76091 15.9626 4.25675 16.4174 4.77591C17.2804 5.76174 18.2833 7.47674 18.8373 8.91174C19.0705 9.51841 19.3446 10.5276 19.502 11.3792C19.6011 11.9159 19.6011 13.8117 19.502 14.3542C19.193 16.0284 18.3416 17.7901 17.292 18.9334L17.0063 19.2426L16.878 18.4609Z" fill="black"/>
<path d="M22.7264 37.1567C22.7439 36.9642 22.7847 36.34 22.8197 35.7625C22.948 33.5634 23.2104 31.8717 23.5661 30.985C24.3299 29.0834 25.7352 28.0334 28.5166 27.2984C28.8431 27.2167 29.1347 27.1584 29.1522 27.1817C29.2047 27.2284 28.7557 29.48 28.5574 30.1625C27.9743 32.2042 27.3038 33.7034 26.4641 34.8584C26.0559 35.4242 25.0413 36.375 24.4932 36.7134C23.9568 37.0459 23.1929 37.4017 22.8839 37.46L22.6973 37.495L22.7264 37.1567Z" fill="black"/>
<path d="M18.3183 30.3375C17.3038 30.1275 17.228 30.1042 16.3125 29.7658C14.3474 29.0425 13.1288 27.8875 12.1025 25.7875C11.9043 25.3734 11.6652 24.8192 11.5835 24.5625C11.4961 24.3059 11.4145 24.0667 11.4028 24.0317C11.362 23.9209 12.2075 23.88 13.0471 23.9442C15.4787 24.1425 17.502 25.4434 18.5633 27.4967C19.0064 28.36 19.1638 28.955 19.2863 30.2092C19.3038 30.39 19.298 30.5417 19.2746 30.5358C19.2455 30.5358 18.8198 30.4425 18.3183 30.3375Z" fill="black"/>
<path d="M21.2635 28.751C21.3393 27.4851 21.555 26.3593 21.9574 25.1168C22.1848 24.4227 22.8203 23.0985 23.1352 22.661C23.246 22.5035 23.3393 22.3577 23.3393 22.3402C23.3393 22.2877 24.1731 21.2552 24.5055 20.8877C24.6571 20.7302 25.0478 20.3335 25.3743 20.0127L25.9691 19.4293L26.0857 19.5752C26.1499 19.6568 26.3015 19.8902 26.4297 20.106C27.2694 21.4885 27.4268 23.1802 26.8554 24.7085C26.6805 25.1752 26.4064 25.7235 26.2198 25.9743C26.144 26.0735 26.0799 26.1785 26.0799 26.2077C26.074 26.2952 25.2344 27.2576 24.8262 27.6368C23.7416 28.6401 22.2314 29.4335 21.4151 29.4335H21.2227L21.2635 28.751Z" fill="black"/>
<path d="M16.878 18.4609C16.6098 16.8451 16.0034 14.7101 15.3328 13.0126C15.1346 12.5167 14.9247 11.9451 14.534 10.8542C14.3007 10.2009 14.0267 9.18008 13.9217 8.57924C13.8109 7.93758 13.8109 6.71258 13.9159 6.14674C14.0733 5.31258 14.5573 4.09341 14.913 3.62675C15.0005 3.51008 15.0005 3.51008 15.1987 3.62675C15.4378 3.76091 15.9626 4.25675 16.4174 4.77591C17.2804 5.76174 18.2833 7.47674 18.8373 8.91174C19.0705 9.51841 19.3446 10.5392 19.502 11.3792C19.6011 11.9159 19.6011 13.8176 19.502 14.3542C19.193 16.0284 18.3416 17.7901 17.292 18.9334L17.0063 19.2426L16.878 18.4609Z" fill="black"/>
<path d="M18.3183 30.3375C17.3038 30.1275 17.228 30.1042 16.3125 29.7658C14.3474 29.0425 13.1288 27.8875 12.1025 25.7875C11.9043 25.3734 11.6652 24.8192 11.5835 24.5625C11.4961 24.3059 11.4145 24.0667 11.4028 24.0317C11.362 23.9209 12.2075 23.88 13.0471 23.9442C15.4787 24.1425 17.502 25.4434 18.5633 27.4967C19.0064 28.36 19.1638 28.955 19.2863 30.2092C19.3038 30.39 19.298 30.5417 19.2746 30.5358C19.2455 30.5358 18.8198 30.4425 18.3183 30.3375Z" fill="black"/>
<path d="M21.2635 28.751C21.3393 27.4851 21.555 26.3593 21.9574 25.1168C22.1848 24.4227 22.8203 23.0985 23.1352 22.661C23.246 22.5035 23.3393 22.3577 23.3393 22.3402C23.3393 22.2877 24.1731 21.2552 24.5055 20.8877C24.6571 20.7302 25.0478 20.3335 25.3743 20.0127L25.9691 19.4293L26.0857 19.5752C26.1499 19.6568 26.3015 19.8902 26.4297 20.106C27.2694 21.4885 27.4268 23.1802 26.8554 24.7085C26.6805 25.1752 26.4064 25.7235 26.2198 25.9743C26.144 26.0735 26.0799 26.1785 26.0799 26.2077C26.074 26.2952 25.2344 27.2576 24.8262 27.6368C23.7416 28.6401 22.2314 29.4335 21.4151 29.4335H21.2227L21.2635 28.751Z" fill="black"/>
<path d="M16.8783 18.4609C16.6043 16.8159 16.0503 14.8501 15.3214 12.9834C14.5459 10.9826 14.0911 9.56508 13.922 8.58508C13.8112 7.93758 13.8054 6.71258 13.9162 6.14674C14.0736 5.31258 14.5576 4.09341 14.9133 3.62675C15.0007 3.51008 15.0007 3.51008 15.199 3.62675C15.4381 3.76091 15.9629 4.25675 16.4177 4.77591C17.2748 5.75591 18.2661 7.44174 18.8375 8.90591C19.0708 9.50674 19.3448 10.5334 19.5023 11.3792C19.6014 11.9159 19.6014 13.8176 19.5023 14.3542C19.1932 16.0284 18.3419 17.7901 17.2923 18.9334L17.0066 19.2426L16.8783 18.4609Z" fill="black"/>
<path d="M18.3178 30.3376C17.3032 30.1276 17.2274 30.1042 16.312 29.7659C14.3411 29.0367 13.1107 27.8701 12.0787 25.7409C11.8221 25.2042 11.3848 24.0959 11.3848 23.9734C11.3848 23.9151 12.4343 23.8976 13.0174 23.9442C14.6851 24.0842 16.0671 24.6676 17.2099 25.7292C18.277 26.7092 18.9942 28.0451 19.1925 29.4042C19.2799 30.0342 19.3149 30.5417 19.2683 30.5359C19.245 30.5359 18.8193 30.4426 18.3178 30.3376Z" fill="black"/>
<path d="M16.8773 18.4609C16.6033 16.8159 16.0493 14.8501 15.3205 12.9834C14.5449 10.9826 14.0901 9.56508 13.921 8.58508C13.8102 7.93758 13.8044 6.71258 13.9152 6.14674C14.0726 5.31258 14.5566 4.09341 14.9123 3.62675C14.9998 3.51008 14.9998 3.51008 15.198 3.62675C15.4371 3.76091 15.9619 4.25675 16.4167 4.77591C17.2739 5.75591 18.2651 7.44174 18.8366 8.90591C19.0698 9.50674 19.3439 10.5334 19.5013 11.3792C19.6004 11.9159 19.6004 13.8176 19.5013 14.3542C19.1923 16.0284 18.3409 17.7901 17.2913 18.9334L17.0056 19.2426L16.8773 18.4609Z" fill="black"/>
<path d="M18.3178 30.3376C17.3032 30.1276 17.2274 30.1043 16.312 29.7659C14.3411 29.0368 13.1107 27.8701 12.0787 25.7409C11.8221 25.2042 11.3848 24.0959 11.3848 23.9734C11.3848 23.9151 12.4343 23.8976 13.0174 23.9442C14.6851 24.0842 16.0671 24.6676 17.2099 25.7292C18.277 26.7093 18.9942 28.0451 19.1925 29.4043C19.2799 30.0343 19.3149 30.5418 19.2683 30.5359C19.245 30.5359 18.8193 30.4426 18.3178 30.3376Z" fill="black"/>
</svg>
