<svg width="30" height="51" viewBox="0 0 30 51" fill="none" xmlns="http://www.w3.org/2000/svg">
<path d="M14.5298 17.9304C16.4079 17.9304 17.9304 16.4079 17.9304 14.5298C17.9304 12.6517 16.4079 11.1292 14.5298 11.1292C12.6517 11.1292 11.1292 12.6517 11.1292 14.5298C11.1292 16.4079 12.6517 17.9304 14.5298 17.9304Z" fill="black" stroke="black" stroke-width="0.5"/>
<path d="M14.5298 7.05055C16.4079 7.05055 17.9304 5.52803 17.9304 3.64991C17.9304 1.77179 16.4079 0.249268 14.5298 0.249268C12.6517 0.249268 11.1292 1.77179 11.1292 3.64991C11.1292 5.52803 12.6517 7.05055 14.5298 7.05055Z" fill="black" stroke="black" stroke-width="0.5"/>
<path d="M25.4119 17.9304C27.29 17.9304 28.8125 16.4079 28.8125 14.5298C28.8125 12.6517 27.29 11.1292 25.4119 11.1292C23.5337 11.1292 22.0112 12.6517 22.0112 14.5298C22.0112 16.4079 23.5337 17.9304 25.4119 17.9304Z" fill="black" stroke="black" stroke-width="0.5"/>
<path d="M3.65088 17.9304C5.52901 17.9304 7.05152 16.4079 7.05152 14.5298C7.05152 12.6517 5.52901 11.1292 3.65088 11.1292C1.77276 11.1292 0.250244 12.6517 0.250244 14.5298C0.250244 16.4079 1.77276 17.9304 3.65088 17.9304Z" fill="black" stroke="black" stroke-width="0.5"/>
<path d="M3.65088 28.8106C5.52901 28.8106 7.05152 27.288 7.05152 25.4099C7.05152 23.5318 5.52901 22.0093 3.65088 22.0093C1.77276 22.0093 0.250244 23.5318 0.250244 25.4099C0.250244 27.288 1.77276 28.8106 3.65088 28.8106Z" fill="black" stroke="black" stroke-width="0.5"/>
<path d="M14.5298 39.4006C16.4079 39.4006 17.9304 37.8781 17.9304 36C17.9304 34.1219 16.4079 32.5994 14.5298 32.5994C12.6517 32.5994 11.1292 34.1219 11.1292 36C11.1292 37.8781 12.6517 39.4006 14.5298 39.4006Z" fill="black" stroke="black" stroke-width="0.5"/>
<path d="M14.5298 50.0005C16.4079 50.0005 17.9304 48.478 17.9304 46.5999C17.9304 44.7217 16.4079 43.1992 14.5298 43.1992C12.6517 43.1992 11.1292 44.7217 11.1292 46.5999C11.1292 48.478 12.6517 50.0005 14.5298 50.0005Z" fill="black" stroke="black" stroke-width="0.5"/>
<path d="M25.4119 39.4006C27.29 39.4006 28.8125 37.8781 28.8125 36C28.8125 34.1219 27.29 32.5994 25.4119 32.5994C23.5337 32.5994 22.0112 34.1219 22.0112 36C22.0112 37.8781 23.5337 39.4006 25.4119 39.4006Z" fill="black" stroke="black" stroke-width="0.5"/>
<path d="M3.65088 39.4006C5.52901 39.4006 7.05152 37.8781 7.05152 36C7.05152 34.1219 5.52901 32.5994 3.65088 32.5994C1.77276 32.5994 0.250244 34.1219 0.250244 36C0.250244 37.8781 1.77276 39.4006 3.65088 39.4006Z" fill="black" stroke="black" stroke-width="0.5"/>
</svg>
