<svg width="46" height="37" viewBox="0 0 46 37" fill="none" xmlns="http://www.w3.org/2000/svg">
<path fill-rule="evenodd" clip-rule="evenodd" d="M39.2708 8.95717C38.4209 9.73906 37.0761 9.70703 36.267 8.88589L34.0696 6.6556C30.8335 3.37087 25.4543 3.24293 22.0548 6.36995L7.3045 19.9388L21.2923 20.2711C22.4652 20.299 23.3927 21.2405 23.3639 22.374C23.335 23.5073 22.3607 24.4037 21.1877 24.3758L2.07235 23.9216C0.89934 23.8937 -0.0281917 22.9522 0.000655024 21.8187L0.470748 3.34797C0.499595 2.2146 1.47389 1.31834 2.6469 1.34622C3.81993 1.37409 4.74746 2.31554 4.71862 3.44904L4.37461 16.9651L19.1251 3.39618C24.2241 -1.29433 32.2929 -1.10259 37.1473 3.82457L39.3445 6.05486C40.1536 6.876 40.1205 8.17546 39.2708 8.95717Z" fill="black"/>
<path fill-rule="evenodd" clip-rule="evenodd" d="M6.61572 28.0428C7.4655 27.261 8.8103 27.2929 9.61942 28.1142L11.8168 30.3445C15.053 33.6292 20.4322 33.757 23.8316 30.63L38.582 17.0613L24.5942 16.7288C23.4213 16.7009 22.4938 15.7596 22.5226 14.6261C22.5514 13.4926 23.5257 12.5964 24.6988 12.6243L43.8141 13.0785C44.9871 13.1064 45.9146 14.0477 45.8858 15.1812L45.4157 33.652C45.3869 34.7854 44.4126 35.6816 43.2395 35.6538C42.0665 35.6259 41.139 34.6845 41.1678 33.5511L41.5119 20.035L26.7614 33.6037C21.6624 38.2944 13.5936 38.1025 8.73918 33.1755L6.54185 30.9452C5.7328 30.1239 5.76588 28.8245 6.61572 28.0428Z" fill="black"/>
</svg>
