<svg width="45" height="59" viewBox="0 0 45 59" fill="none" xmlns="http://www.w3.org/2000/svg">
<path fill-rule="evenodd" clip-rule="evenodd" d="M22.5 0C34.9264 0 45 10.1388 45 22.6456V35.7418C45 48.2487 34.9264 58.3874 22.5 58.3874C10.0736 58.3874 0 48.2487 0 35.7418V22.6456C0 10.1388 10.0736 0 22.5 0ZM22.3936 13.4224C17.2035 13.4224 12.9961 17.638 12.9961 22.8381L12.9959 24.2503L12.9851 24.2505V44.965L13.1514 44.9631C16.9671 44.8741 20.0332 41.7331 20.0332 37.8713L20.0328 37.3683C20.7872 37.5638 21.5782 37.6679 22.3936 37.6679C27.5837 37.6679 31.791 33.4523 31.791 28.2521V22.8381C31.791 17.638 27.5837 13.4224 22.3936 13.4224ZM22.3936 20.4842C23.6911 20.4842 24.743 21.5381 24.743 22.8381V28.2521C24.743 29.5522 23.6911 30.6061 22.3936 30.6061C21.0961 30.6061 20.0442 29.5522 20.0442 28.2521V22.8381C20.0442 21.5381 21.0961 20.4842 22.3936 20.4842Z" fill="black"/>
</svg>
