<svg width="52" height="52" viewBox="0 0 52 52" fill="none" xmlns="http://www.w3.org/2000/svg">
<path fill-rule="evenodd" clip-rule="evenodd" d="M25.7357 0C39.9491 0 51.4714 11.5222 51.4714 25.7357C51.4714 39.9492 39.9491 51.4714 25.7357 51.4714C11.5223 51.4714 0 39.9492 0 25.7357C0 11.5222 11.5223 0 25.7357 0ZM44.1505 25.888C44.1505 36.1486 35.8564 44.4664 25.625 44.4664C15.3937 44.4664 7.09951 36.1486 7.09951 25.888C7.09951 15.6274 15.3937 7.30955 25.625 7.30955C35.8564 7.30955 44.1505 15.6274 44.1505 25.888Z" fill="url(#paint0_linear)"/>
<path fill-rule="evenodd" clip-rule="evenodd" d="M27.2037 15.5502C27.2037 16.0176 26.957 16.4254 26.582 16.6442V17.8035L26.6226 17.809L28.4384 18.0477C28.4431 18.0477 28.4479 18.0477 28.4526 18.0488L28.4482 18.0369C28.4524 18.0369 28.4548 18.0369 28.457 18.0377C28.4599 18.0387 28.4622 18.0411 28.4679 18.0469C28.7837 18.206 31.912 20.9609 31.912 25.0386C31.912 28.9976 30.6732 29.7765 30.1201 30.1242C30.0507 30.1679 29.9922 30.2047 29.9482 30.2402C29.889 30.28 29.81 30.28 29.7607 30.2302L29.723 30.1934L29.7137 30.1841C29.4162 29.8906 28.71 29.194 27.2443 28.9871C27.0371 28.9572 26.8299 28.9373 26.6226 28.9174L26.5818 28.9148V31.7921H30.0568C30.8956 31.7921 31.5863 31.1953 31.7541 30.4096C31.7639 30.3499 31.8232 30.3002 31.8922 30.3002C33.581 30.3002 35.2478 29.9187 36.7684 29.1843L37.073 29.0371C37.1818 28.9823 37.3094 28.9983 37.4041 29.0656C37.4909 29.1275 37.5565 29.2288 37.5565 29.3355C37.5565 29.4548 37.4876 29.5741 37.3692 29.6338C35.9789 30.3066 35.1122 31.686 34.6025 33.1439C34.3718 33.8038 34.0754 34.4321 33.7215 35.0218C33.4912 35.4057 33.0491 35.6484 32.6422 35.462L32.0107 35.1835C31.537 34.9746 31.0238 34.9746 30.5502 35.1835L29.9187 35.462C29.4449 35.6708 28.9318 35.6708 28.4581 35.462L27.8266 35.1835C27.3528 34.9746 26.8397 34.9746 26.3661 35.1835L25.7345 35.462C25.2608 35.6708 24.7477 35.6708 24.2741 35.462L23.6425 35.1835C23.1687 34.9746 22.6556 34.9746 22.182 35.1835L21.5504 35.462C21.0767 35.6708 20.5536 35.6708 20.0899 35.462L19.4583 35.1835C18.9846 34.9746 18.4616 34.9746 17.9978 35.1835L17.4155 35.4421C17.1394 35.5639 16.8271 35.4259 16.6636 35.1723C15.6531 33.6045 15.0867 31.756 15.0867 29.7731C15.0867 29.6338 15.0867 29.4946 15.0965 29.3554C15.0965 29.2758 15.1656 29.2161 15.2346 29.2161H20.5832C20.6622 29.2161 20.7215 29.2758 20.7215 29.3554V30.0416C20.7215 31.0064 21.501 31.7921 22.4582 31.7921H25.3286V28.8994C24.6761 28.9306 24.1391 29.0079 23.82 29.0567C23.7643 29.066 23.7173 29.0402 23.6873 29.0039L23.6819 29.0078C23.6523 28.968 23.6425 28.9183 23.672 28.8686C23.9187 28.3415 24.4023 26.8993 24.3135 23.7863C24.2148 20.4148 23.0405 18.2267 22.5865 17.5107C22.5174 17.4112 22.6063 17.2819 22.7247 17.2919L25.3286 17.6346V16.6384C24.9593 16.4182 24.717 16.0135 24.717 15.5502C24.717 14.854 25.2794 14.2871 25.9701 14.2871C26.661 14.2871 27.2037 14.854 27.2037 15.5502ZM22.8037 27.9418V22.4717C22.8037 22.422 22.7741 22.3623 22.7247 22.3424L20.2478 21.1788C20.1787 21.1489 20.0899 21.1788 20.0603 21.2583L17.4945 27.8821C17.4551 27.9815 17.5242 28.081 17.6228 28.081H22.6655C22.7444 28.081 22.8037 28.0214 22.8037 27.9418Z" fill="url(#paint1_linear)"/>
<defs>
<linearGradient id="paint0_linear" x1="25.7357" y1="0" x2="25.7357" y2="51.4714" gradientUnits="userSpaceOnUse">
<stop offset="0.176796"/>
</linearGradient>
<linearGradient id="paint1_linear" x1="26.3216" y1="14.2871" x2="26.3216" y2="35.6186" gradientUnits="userSpaceOnUse">
<stop offset="0.176796"/>
</linearGradient>
</defs>
</svg>
