<svg width="33" height="40" viewBox="0 0 33 40" fill="none" xmlns="http://www.w3.org/2000/svg">
<path fill-rule="evenodd" clip-rule="evenodd" d="M20.804 6.96L16.441 13.41L25.224 13.47C27.3816 10.1917 29.3695 7.19263 30.7477 5.11351C31.8708 3.41914 32.589 2.33573 32.664 2.21C33.056 1.64 32.944 1.07 32.944 1.07C32.944 0.51 32.441 0 31.881 0H0.440954C0.328954 0 0.216954 0.06 0.160954 0.11C-0.00604593 0.28 -0.00604593 0.51 0.160954 0.62L6.03495 6.56C6.09095 6.62 6.20295 6.68 6.31495 6.68H12.189L20.804 6.73C20.804 6.73 20.972 6.73 20.804 6.96ZM13.4177 31.2011C14.4237 29.6725 15.4182 28.1612 16.441 26.65L7.37795 26.76C5.5783 29.4093 3.92882 31.8572 2.67837 33.713C1.28569 35.7798 0.387967 37.112 0.328954 37.17C-0.174046 37.96 0.0499541 38.93 0.0499541 38.93C0.0499541 39.49 0.496954 40 1.11195 40H32.608C32.832 40 33 39.83 33 39.6C33 39.49 32.944 39.38 32.888 39.32L26.455 33.38C26.431 33.3672 26.4096 33.3548 26.3897 33.3433C26.3165 33.3009 26.263 33.27 26.175 33.27H12.133C12.133 33.27 12.021 33.27 12.133 33.15C12.5652 32.4964 12.9925 31.8472 13.4177 31.2011Z" fill="black"/>
</svg>
