<svg width="39" height="45" viewBox="0 0 39 45" fill="none" xmlns="http://www.w3.org/2000/svg">
<path fill-rule="evenodd" clip-rule="evenodd" d="M38.03 19.88C38.03 26.71 34.54 32.74 29.237 36.33L38.031 44.99V45H38.028H0.029V42.91H32.922L27.375 37.44C24.568 38.92 21.369 39.77 17.973 39.77H0.027V37.67H17.973C20.778 37.67 23.434 37.03 25.801 35.89L23.388 33.51C21.71 34.17 19.884 34.53 17.973 34.53H0.027V32.44H17.973C19.281 32.44 20.542 32.24 21.73 31.88L19.053 29.24C18.698 29.28 18.339 29.3 17.973 29.3H0.027V27.21H16.992L0 10.47H17.973C23.22 10.47 27.474 14.68 27.474 19.88C27.474 23.87 24.975 27.27 21.447 28.65L23.84 31.01C27.878 28.91 30.641 24.71 30.641 19.88C30.641 12.96 24.958 7.33 17.973 7.33H0.027V5.23H17.973C26.122 5.23 32.752 11.8 32.752 19.88C32.752 25.28 29.791 30 25.398 32.54L27.706 34.82C32.643 31.65 35.919 26.14 35.919 19.88C35.919 10.07 27.868 2.09 17.973 2.09H0.027V0H17.973C29.032 0 38.03 8.92 38.03 19.88ZM25.363 19.88C25.363 15.84 22.049 12.56 17.974 12.56H5.117L19.763 26.99C22.975 26.2 25.363 23.31 25.363 19.88Z" fill="black"/>
</svg>
