<svg width="79" height="20" viewBox="0 0 79 20" fill="none" xmlns="http://www.w3.org/2000/svg">
<path d="M64.3721 17.6941H65.1441V19.7651H65.5711V17.6941H66.3461V17.3251H64.3711V17.6941H64.3721ZM66.6241 19.7661H67.0301V17.8831H67.0371L67.7141 19.7661H68.0661L68.7431 17.8831H68.7501V19.7661H69.1571V17.3261H68.5621L67.9061 19.2371H67.9001L67.2271 17.3261H66.6251V19.7661H66.6241Z" fill="black"/>
<path d="M20.525 11.362L11.862 19.765H0.812012L14.559 6.12201C19.668 1.06401 22.133 0.234009 30.848 0.234009H65.267L57.797 7.54801H31.833C25.323 7.54901 23.938 8.05101 20.525 11.362ZM56.682 8.71601H31.989C25.432 8.71601 24.406 9.21701 21.432 12.191L13.858 19.765H24.103L26.541 17.327C28.151 15.717 28.871 15.563 32.117 15.563H49.833L56.682 8.71601ZM59.354 19.766L78.937 0.234009H66.772L47.241 19.766H59.354Z" fill="black"/>
</svg>
